<svg xmlns="http://www.w3.org/2000/svg" xmlns:xlink="http://www.w3.org/1999/xlink" width="500" zoomAndPan="magnify" viewBox="0 0 375 374.999991" height="500" preserveAspectRatio="xMidYMid meet" version="1.0"><defs><g/><clipPath id="8b933a76b6"><path d="M 129.15625 218.019531 L 145.332031 218.019531 L 145.332031 234.195312 L 129.15625 234.195312 Z M 129.15625 218.019531 " clip-rule="nonzero"/></clipPath><clipPath id="57321e97ef"><path d="M 137.246094 218.019531 C 132.777344 218.019531 129.15625 221.640625 129.15625 226.105469 C 129.15625 230.574219 132.777344 234.195312 137.246094 234.195312 C 141.710938 234.195312 145.332031 230.574219 145.332031 226.105469 C 145.332031 221.640625 141.710938 218.019531 137.246094 218.019531 Z M 137.246094 218.019531 " clip-rule="nonzero"/></clipPath></defs><g fill="#6482ad" fill-opacity="1"><g transform="translate(96.533947, 197.183194)"><g><path d="M 21.140625 -88.890625 L 21.140625 -1.515625 L 53.03125 -1.515625 C 61.207031 -1.515625 67.90625 -3.523438 73.125 -7.546875 C 78.351562 -11.578125 82.664062 -18.375 86.0625 -27.9375 L 81.71875 0 L 6.609375 0 L 6.609375 -133.25 L 82.859375 -133.25 L 82.859375 -118.140625 C 78.453125 -122.421875 74.171875 -125.535156 70.015625 -127.484375 C 65.867188 -129.441406 61.179688 -130.671875 55.953125 -131.171875 C 50.734375 -131.671875 44.285156 -131.921875 36.609375 -131.921875 L 21.140625 -131.921875 L 21.140625 -101.34375 C 21.140625 -92.789062 22.582031 -86.25 25.46875 -81.71875 C 28.363281 -77.1875 32.707031 -74.132812 38.5 -72.5625 C 44.289062 -70.988281 51.523438 -70.203125 60.203125 -70.203125 L 60.203125 -55.296875 C 57.429688 -58.441406 54.128906 -60.925781 50.296875 -62.75 C 46.460938 -64.570312 42.5625 -66.457031 38.59375 -68.40625 C 34.632812 -70.363281 31.082031 -72.882812 27.9375 -75.96875 C 24.789062 -79.050781 22.523438 -83.359375 21.140625 -88.890625 Z M 21.140625 -88.890625 "/></g></g></g><g fill="#6482ad" fill-opacity="1"><g transform="translate(158.926089, 269.948079)"><g><path d="M 128.28125 -63.359375 C 128.28125 -66.359375 127.265625 -68.910156 125.234375 -71.015625 C 123.210938 -73.117188 120.695312 -74.25 117.6875 -74.40625 L 45.546875 -74.40625 L 45.546875 -16.453125 C 45.546875 -12.546875 46.972656 -9.203125 49.828125 -6.421875 C 52.679688 -3.640625 56.0625 -2.25 59.96875 -2.25 L 62.90625 -2.25 L 62.90625 0 L 13.53125 0 L 13.53125 -2.25 L 16.453125 -2.25 C 20.359375 -2.25 23.703125 -3.640625 26.484375 -6.421875 C 29.265625 -9.203125 30.734375 -12.546875 30.890625 -16.453125 L 30.890625 -142.71875 C 30.890625 -146.320312 29.421875 -149.363281 26.484375 -151.84375 C 23.554688 -154.320312 20.210938 -155.5625 16.453125 -155.5625 L 13.75 -155.5625 L 13.53125 -157.8125 L 79.578125 -157.8125 C 86.046875 -157.8125 91.757812 -158.335938 96.71875 -159.390625 C 101.675781 -160.441406 104.90625 -161.269531 106.40625 -161.875 L 106.40625 -136.40625 L 104.15625 -136.40625 L 104.15625 -139.78125 C 104.15625 -142.789062 103.101562 -145.382812 101 -147.5625 C 98.894531 -149.738281 96.265625 -150.828125 93.109375 -150.828125 L 45.546875 -150.828125 L 45.546875 -81.15625 L 117.46875 -81.15625 C 120.46875 -81.3125 123.019531 -82.441406 125.125 -84.546875 C 127.226562 -86.648438 128.28125 -89.28125 128.28125 -92.4375 L 128.28125 -95.59375 L 130.53125 -95.59375 L 130.53125 -59.96875 L 128.28125 -59.96875 Z M 128.28125 -63.359375 "/></g></g></g><g clip-path="url(#8b933a76b6)"><g clip-path="url(#57321e97ef)"><path fill="#ffffff" d="M 129.15625 218.019531 L 145.332031 218.019531 L 145.332031 234.195312 L 129.15625 234.195312 Z M 129.15625 218.019531 " fill-opacity="1" fill-rule="nonzero"/></g></g></svg>