<svg xmlns="http://www.w3.org/2000/svg" xmlns:xlink="http://www.w3.org/1999/xlink" width="500" zoomAndPan="magnify" viewBox="0 0 375 374.999991" height="500" preserveAspectRatio="xMidYMid meet" version="1.0"><defs><g/><clipPath id="8be0b71de4"><path d="M 37.5 214.125 L 337.5 214.125 L 337.5 219 L 37.5 219 Z M 37.5 214.125 " clip-rule="nonzero"/></clipPath><clipPath id="0b9aca822b"><path d="M 37.5 156 L 337.5 156 L 337.5 160.875 L 37.5 160.875 Z M 37.5 156 " clip-rule="nonzero"/></clipPath></defs><path fill="#6482ad" d="M 241.894531 237.042969 C 237.773438 237.539062 233.820312 238.691406 229.699219 240.503906 C 237.28125 243.308594 245.191406 243.144531 252.609375 246.109375 C 251.785156 246.769531 251.125 246.273438 250.632812 246.273438 C 248.488281 245.78125 246.179688 245.449219 244.039062 245.449219 C 238.433594 245.78125 232.828125 245.617188 227.226562 242.648438 C 229.699219 247.757812 233.652344 250.726562 238.433594 252.207031 C 244.203125 254.1875 250.136719 253.527344 256.070312 252.207031 C 258.378906 251.714844 260.6875 250.726562 262.664062 253.03125 C 264.3125 251.382812 262.664062 250.230469 262.335938 249.078125 C 259.699219 241 249.3125 236.21875 241.894531 237.042969 Z M 241.894531 237.042969 " fill-opacity="1" fill-rule="nonzero"/><path fill="#6482ad" d="M 271.566406 221.878906 C 267.445312 222.375 263.488281 223.527344 259.367188 225.339844 C 266.949219 228.144531 274.863281 227.976562 282.28125 230.945312 C 281.457031 231.605469 280.796875 231.109375 280.300781 231.109375 C 278.160156 230.613281 275.851562 230.285156 273.707031 230.285156 C 268.105469 230.613281 262.5 230.449219 256.894531 227.484375 C 259.367188 232.59375 263.324219 235.558594 268.105469 237.042969 C 273.875 239.023438 279.808594 238.363281 285.742188 237.042969 C 288.050781 236.550781 290.355469 235.558594 292.335938 237.867188 C 293.984375 236.21875 292.335938 235.066406 292.003906 233.910156 C 289.367188 225.835938 278.984375 221.054688 271.566406 221.878906 Z M 271.566406 221.878906 " fill-opacity="1" fill-rule="nonzero"/><path fill="#6482ad" d="M 308.652344 221.382812 C 304.699219 220.230469 300.578125 219.734375 295.960938 219.734375 C 301.730469 225.175781 309.3125 228.144531 314.917969 233.910156 C 313.765625 234.078125 313.597656 233.582031 313.105469 233.253906 C 311.292969 231.933594 309.3125 230.617188 307.335938 229.957031 C 302.058594 227.976562 296.949219 225.671875 292.996094 220.890625 C 293.324219 226.660156 295.796875 230.78125 299.421875 234.078125 C 304.039062 238.03125 309.644531 240.011719 315.578125 241 C 317.882812 241.328125 320.355469 241.328125 321.347656 244.460938 C 323.488281 243.636719 322.5 241.824219 322.5 240.671875 C 323.488281 231.933594 315.90625 223.527344 308.652344 221.382812 Z M 308.652344 221.382812 " fill-opacity="1" fill-rule="nonzero"/><path fill="#6482ad" d="M 169.863281 230.449219 C 169.203125 229.957031 168.875 229.625 168.542969 229.460938 C 164.257812 226.660156 159.476562 225.175781 154.699219 223.527344 C 152.058594 222.539062 149.421875 221.21875 146.621094 221.714844 C 142.171875 222.539062 138.050781 224.1875 134.09375 226.496094 C 132.773438 227.320312 133.105469 227.976562 133.929688 228.800781 C 137.058594 231.769531 140.191406 234.40625 143.820312 236.714844 C 150.90625 240.835938 162.445312 239.023438 169.039062 234.242188 C 158.984375 236.21875 150.246094 232.097656 141.179688 228.800781 C 150.578125 230.121094 159.808594 232.261719 169.863281 230.449219 Z M 169.863281 230.449219 " fill-opacity="1" fill-rule="nonzero"/><path fill="#6482ad" d="M 157.5 243.472656 C 152.71875 243.800781 148.765625 245.78125 144.972656 248.253906 C 142.5 249.902344 140.355469 251.714844 137.71875 252.867188 C 136.070312 253.691406 134.257812 254.1875 132.445312 254.351562 C 134.753906 253.03125 137.390625 252.539062 139.367188 250.726562 C 143.160156 247.261719 147.445312 244.460938 152.058594 241.824219 C 149.753906 241.988281 147.445312 242.152344 145.300781 242.484375 C 137.554688 243.636719 129.148438 248.417969 127.003906 257.648438 C 126.839844 258.636719 127.171875 259.132812 128.160156 258.800781 C 130.796875 258.144531 133.433594 258.800781 135.90625 259.132812 C 142.664062 259.957031 148.765625 258.96875 152.390625 252.042969 C 152.71875 251.550781 153.214844 251.21875 153.542969 250.726562 C 154.53125 248.253906 156.839844 246.4375 157.5 243.472656 Z M 157.5 243.472656 " fill-opacity="1" fill-rule="nonzero"/><path fill="#6482ad" d="M 126.839844 224.847656 C 122.058594 225.175781 118.105469 227.152344 114.3125 229.625 C 111.839844 231.273438 109.699219 233.085938 107.058594 234.242188 C 105.410156 235.066406 103.597656 235.558594 101.785156 235.726562 C 104.09375 234.40625 106.730469 233.910156 108.707031 232.097656 C 112.5 228.636719 116.785156 225.835938 121.402344 223.199219 C 119.09375 223.363281 116.785156 223.527344 114.644531 223.855469 C 106.894531 225.011719 98.488281 229.792969 96.347656 239.023438 C 96.179688 240.011719 96.511719 240.503906 97.5 240.175781 C 100.136719 239.515625 102.773438 240.175781 105.246094 240.503906 C 112.003906 241.328125 118.105469 240.339844 121.730469 233.417969 C 122.058594 232.921875 122.554688 232.59375 122.882812 232.097656 C 123.707031 229.792969 126.015625 227.8125 126.839844 224.847656 Z M 126.839844 224.847656 " fill-opacity="1" fill-rule="nonzero"/><path fill="#6482ad" d="M 86.125 223.527344 C 80.851562 224.515625 76.566406 227.484375 72.609375 230.78125 C 70.136719 232.921875 67.828125 235.230469 65.027344 237.042969 C 63.214844 238.199219 61.402344 239.1875 59.257812 239.515625 C 61.566406 237.703125 64.53125 236.714844 66.511719 234.40625 C 70.300781 229.957031 74.753906 226 79.53125 222.539062 C 76.894531 223.03125 74.421875 223.691406 71.949219 224.351562 C 63.378906 226.824219 54.644531 233.582031 53.652344 244.296875 C 53.488281 245.449219 53.984375 245.945312 55.136719 245.449219 C 57.941406 244.296875 61.070312 244.625 64.039062 244.625 C 71.949219 244.460938 78.542969 242.484375 81.511719 234.242188 C 81.675781 233.582031 82.335938 233.085938 82.5 232.59375 C 83.488281 229.460938 85.796875 226.988281 86.125 223.527344 Z M 86.125 223.527344 " fill-opacity="1" fill-rule="nonzero"/><g clip-path="url(#8be0b71de4)"><path fill="#6482ad" d="M 327.117188 214.625 C 296.621094 214.792969 265.960938 215.121094 235.46875 215.121094 C 215.851562 215.121094 196.402344 216.4375 176.785156 215.945312 C 131.621094 214.792969 86.292969 214.296875 41.125 214.792969 C 39.972656 214.792969 38.820312 214.460938 37.5 216.109375 C 137.71875 219.570312 237.609375 219.734375 337.5 215.78125 C 334.203125 214.460938 330.742188 214.625 327.117188 214.625 Z M 327.117188 214.625 " fill-opacity="1" fill-rule="nonzero"/></g><path fill="#6482ad" d="M 228.050781 250.230469 C 223.597656 242.976562 215.027344 240.503906 208.105469 244.625 C 212.390625 244.957031 216.347656 245.121094 219.644531 247.757812 C 222.773438 250.230469 225.742188 252.867188 227.390625 256.824219 C 227.058594 256.824219 226.894531 256.824219 226.730469 256.824219 C 226.566406 256.660156 226.402344 256.496094 226.402344 256.328125 C 224.917969 253.199219 222.445312 251.21875 219.476562 249.734375 C 215.6875 247.921875 211.894531 247.097656 207.609375 247.59375 C 206.621094 247.757812 206.292969 248.085938 206.949219 249.078125 C 208.597656 251.878906 210.742188 254.1875 213.875 255.671875 C 220.136719 258.800781 226.894531 260.945312 232.171875 265.726562 C 232.5 265.890625 232.828125 266.054688 232.996094 265.890625 C 233.324219 265.558594 233.324219 265.066406 233.160156 264.570312 C 231.675781 259.625 230.851562 254.679688 228.050781 250.230469 Z M 228.050781 250.230469 " fill-opacity="1" fill-rule="nonzero"/><path fill="#6482ad" d="M 153.707031 263.417969 C 154.203125 263.085938 154.863281 262.757812 155.523438 262.59375 C 158.984375 261.605469 162.609375 260.945312 166.070312 259.792969 C 171.179688 257.976562 173.160156 254.1875 173.820312 249.242188 C 174.3125 245.78125 172.996094 242.648438 173.488281 238.855469 C 170.6875 240.503906 169.039062 242.484375 167.882812 244.957031 C 167.390625 246.109375 167.058594 247.429688 166.402344 248.582031 C 165.082031 251.054688 164.257812 253.691406 161.621094 255.339844 C 162.941406 252.375 163.765625 249.40625 164.589844 246.4375 C 165.742188 242.152344 167.71875 238.527344 172.003906 236.054688 C 167.226562 236.21875 162.609375 238.03125 161.457031 242.8125 C 161.125 244.625 160.300781 246.273438 159.808594 248.085938 C 158.324219 253.199219 157.171875 258.472656 152.71875 262.097656 C 152.390625 262.261719 152.058594 262.59375 152.390625 263.085938 C 152.71875 263.582031 153.214844 263.746094 153.707031 263.417969 Z M 153.707031 263.417969 " fill-opacity="1" fill-rule="nonzero"/><path fill="#6482ad" d="M 72.941406 261.933594 C 73.433594 261.605469 74.09375 261.273438 74.753906 261.109375 C 78.214844 260.121094 81.839844 259.460938 85.300781 258.308594 C 90.410156 256.496094 92.390625 252.703125 93.050781 247.757812 C 93.542969 244.296875 92.226562 241.164062 92.71875 237.375 C 89.917969 239.023438 88.269531 241 87.117188 243.472656 C 86.621094 244.625 86.292969 245.945312 85.632812 247.097656 C 84.3125 249.570312 83.488281 252.207031 80.851562 253.855469 C 82.171875 250.890625 82.996094 247.921875 83.820312 244.957031 C 84.972656 240.671875 86.949219 237.042969 91.234375 234.570312 C 86.457031 234.734375 81.839844 236.550781 80.6875 241.328125 C 80.355469 243.144531 79.53125 244.792969 79.039062 246.605469 C 77.554688 251.714844 76.402344 256.988281 71.949219 260.613281 C 71.621094 260.78125 71.292969 261.109375 71.621094 261.605469 C 71.949219 262.097656 72.445312 262.261719 72.941406 261.933594 Z M 72.941406 261.933594 " fill-opacity="1" fill-rule="nonzero"/><path fill="#6482ad" d="M 210.410156 270.175781 C 210.246094 267.375 210.246094 264.734375 209.421875 261.933594 C 208.105469 257.484375 202.828125 251.714844 196.234375 252.375 C 202.5 257.484375 204.3125 264.902344 207.28125 271.496094 C 203.324219 265.726562 200.523438 259.132812 195.082031 254.515625 C 195.082031 257.8125 195.246094 260.945312 196.730469 264.078125 C 198.707031 268.199219 201.675781 271 205.46875 273.308594 C 207.28125 274.460938 209.589844 274.957031 210.742188 276.933594 C 211.070312 277.429688 211.402344 277.59375 211.894531 277.097656 C 212.390625 276.769531 212.226562 276.273438 211.894531 275.945312 C 210.742188 274.460938 210.578125 272.320312 210.410156 270.175781 Z M 210.410156 270.175781 " fill-opacity="1" fill-rule="nonzero"/><path fill="#6482ad" d="M 214.699219 261.273438 C 217.5 265.890625 220.632812 270.339844 222.609375 275.285156 C 219.476562 272.152344 217.003906 268.199219 214.203125 264.570312 C 214.53125 267.207031 214.53125 269.679688 215.027344 271.988281 C 215.523438 274.296875 216.015625 276.933594 217.828125 278.582031 C 220.632812 281.054688 223.269531 283.691406 226.566406 285.503906 C 228.050781 286.328125 228.542969 286.164062 228.875 284.351562 C 229.863281 278.582031 228.050781 273.472656 225.082031 268.691406 C 222.609375 265.066406 218.488281 263.417969 214.699219 261.273438 Z M 214.699219 261.273438 " fill-opacity="1" fill-rule="nonzero"/><path fill="#6482ad" d="M 264.148438 241.328125 C 268.433594 244.792969 272.882812 247.757812 276.511719 251.714844 C 272.390625 249.902344 268.765625 247.097656 264.808594 244.625 C 265.960938 247.097656 266.949219 249.242188 268.105469 251.382812 C 269.257812 253.527344 270.742188 255.671875 273.050781 256.496094 C 276.511719 257.8125 279.972656 259.296875 283.597656 259.957031 C 285.410156 260.285156 285.742188 259.792969 285.410156 258.144531 C 284.257812 252.375 280.796875 248.253906 276.347656 244.792969 C 272.882812 241.988281 268.433594 241.824219 264.148438 241.328125 Z M 264.148438 241.328125 " fill-opacity="1" fill-rule="nonzero"/><path fill="#6482ad" d="M 159.808594 272.152344 C 161.785156 270.175781 163.433594 268.03125 165.410156 265.890625 C 167.226562 263.910156 169.039062 261.769531 170.6875 258.96875 C 167.390625 260.945312 163.929688 261.769531 161.125 263.746094 C 159.3125 264.902344 157.171875 265.890625 156.347656 267.867188 C 155.027344 270.835938 154.039062 274.132812 152.882812 277.261719 C 161.125 276.933594 175.136719 267.867188 175.46875 257.152344 C 170.523438 262.921875 165.082031 267.539062 159.808594 272.152344 Z M 159.808594 272.152344 " fill-opacity="1" fill-rule="nonzero"/><path fill="#6482ad" d="M 109.039062 258.96875 C 111.015625 256.988281 112.664062 254.847656 114.644531 252.703125 C 116.457031 250.726562 118.269531 248.582031 119.917969 245.78125 C 116.621094 247.757812 113.160156 248.582031 110.355469 250.558594 C 108.542969 251.714844 106.402344 252.703125 105.578125 254.679688 C 104.257812 257.648438 103.269531 260.945312 102.117188 264.078125 C 110.355469 263.746094 124.367188 254.679688 124.699219 243.96875 C 119.753906 249.734375 114.3125 254.351562 109.039062 258.96875 Z M 109.039062 258.96875 " fill-opacity="1" fill-rule="nonzero"/><path fill="#6482ad" d="M 202.003906 244.460938 C 202.335938 243.800781 202.664062 242.976562 202.003906 242.484375 C 201.511719 241.824219 200.6875 242.152344 200.027344 242.320312 C 199.039062 242.648438 198.050781 243.144531 197.226562 243.636719 C 193.433594 245.449219 189.644531 245.285156 186.179688 242.8125 C 184.53125 241.496094 182.882812 240.339844 181.402344 238.855469 C 180.90625 238.363281 180.410156 237.539062 179.589844 238.03125 C 178.765625 238.527344 179.257812 239.1875 179.257812 240.011719 C 179.257812 242.152344 181.234375 243.144531 182.226562 244.625 C 185.027344 248.910156 189.3125 249.570312 193.269531 250.066406 C 197.71875 249.902344 200.191406 247.59375 202.003906 244.460938 Z M 202.003906 244.460938 " fill-opacity="1" fill-rule="nonzero"/><path fill="#6482ad" d="M 190.960938 225.175781 C 190.46875 223.691406 189.644531 223.363281 188.324219 224.1875 C 186.015625 225.503906 185.6875 227.648438 187.664062 229.792969 C 188.160156 230.285156 188.820312 230.617188 188.652344 231.4375 C 187.828125 231.605469 187.5 230.121094 186.675781 230.945312 C 186.015625 231.605469 186.511719 232.429688 186.675781 233.253906 C 186.675781 233.253906 186.675781 233.417969 186.839844 233.417969 C 187.996094 235.890625 190.136719 237.375 192.445312 238.527344 C 194.917969 239.679688 197.390625 237.703125 197.390625 234.902344 C 197.390625 233.910156 197.390625 232.921875 197.390625 231.933594 C 197.390625 231.109375 197.390625 230.449219 197.390625 229.625 C 198.875 232.757812 199.203125 235.890625 198.050781 239.023438 C 197.882812 239.351562 197.390625 239.847656 197.71875 240.175781 C 198.050781 240.671875 198.707031 240.503906 199.203125 240.339844 C 202.828125 239.515625 205.632812 235.890625 203.324219 231.769531 C 202.5 230.449219 201.511719 229.296875 200.355469 228.144531 C 198.050781 225.503906 198.050781 225.503906 196.566406 228.308594 C 195.90625 226.988281 194.917969 226.164062 193.269531 225.503906 C 193.929688 227.320312 194.257812 228.800781 192.941406 230.449219 C 191.785156 228.636719 191.457031 226.824219 190.960938 225.175781 Z M 190.960938 225.175781 " fill-opacity="1" fill-rule="nonzero"/><path fill="#6482ad" d="M 181.894531 231.4375 C 181.070312 232.921875 180.410156 234.734375 181.566406 236.21875 C 184.367188 240.175781 187.828125 243.308594 193.269531 243.472656 C 193.765625 243.636719 194.257812 243.308594 194.917969 243.144531 C 195.578125 242.976562 196.234375 242.648438 196.234375 241.824219 C 196.234375 241 195.578125 240.835938 194.917969 240.671875 C 194.09375 240.503906 193.433594 240.175781 192.773438 239.679688 C 189.3125 237.703125 186.347656 235.394531 184.53125 231.769531 C 183.875 230.617188 182.390625 230.449219 181.894531 231.4375 Z M 181.894531 231.4375 " fill-opacity="1" fill-rule="nonzero"/><path fill="#6482ad" d="M 185.355469 222.042969 C 181.402344 221.878906 178.105469 225.011719 177.941406 229.792969 C 178.105469 231.109375 178.433594 232.921875 178.929688 234.570312 C 178.929688 234.902344 179.257812 235.230469 179.589844 235.230469 C 179.917969 235.230469 180.082031 234.902344 180.082031 234.570312 C 180.246094 234.078125 180.246094 233.417969 180.246094 232.757812 C 180.082031 231.4375 180.578125 229.792969 181.402344 229.625 C 185.523438 229.132812 185.523438 226 185.851562 223.199219 C 185.851562 223.03125 186.015625 223.03125 186.015625 222.867188 C 186.179688 222.375 186.015625 222.042969 185.355469 222.042969 Z M 185.355469 222.042969 " fill-opacity="1" fill-rule="nonzero"/><path fill="#6482ad" d="M 196.234375 222.207031 C 195.410156 222.375 194.589844 222.703125 194.589844 223.691406 C 194.589844 224.679688 195.578125 224.679688 196.402344 224.847656 C 199.367188 225.011719 201.675781 226.496094 203.652344 228.636719 C 204.3125 229.296875 204.972656 229.957031 205.796875 230.78125 C 206.125 231.109375 206.457031 231.273438 206.785156 231.109375 C 207.28125 230.945312 207.28125 230.449219 207.28125 229.957031 C 206.292969 224.847656 202.828125 220.558594 196.234375 222.207031 Z M 196.234375 222.207031 " fill-opacity="1" fill-rule="nonzero"/><path fill="#6482ad" d="M 202.996094 240.671875 C 202.335938 241 202.5 241.824219 203.324219 241.988281 C 203.820312 242.152344 204.476562 242.152344 204.476562 242.152344 C 206.949219 242.320312 208.269531 241.496094 209.09375 239.847656 C 210.410156 237.375 209.421875 235.394531 208.105469 233.417969 C 207.609375 232.59375 206.785156 231.769531 205.632812 232.097656 C 204.644531 232.429688 204.972656 233.582031 204.808594 234.570312 C 204.808594 234.902344 204.808594 235.394531 204.808594 235.726562 C 204.808594 237.539062 204.808594 239.351562 202.996094 240.671875 Z M 202.996094 240.671875 " fill-opacity="1" fill-rule="nonzero"/><path fill="#6482ad" d="M 232.003906 227.8125 C 225.082031 226.496094 218.488281 228.308594 212.058594 230.449219 C 211.566406 230.617188 210.742188 230.617188 211.234375 231.605469 C 212.71875 234.078125 214.699219 236.054688 217.664062 237.042969 C 221.949219 238.363281 226.070312 237.539062 230.191406 236.550781 C 236.457031 235.066406 242.554688 232.921875 249.148438 233.910156 C 249.808594 234.078125 250.46875 233.910156 250.632812 233.417969 C 250.960938 232.757812 250.300781 232.429688 249.972656 231.933594 C 247.828125 229.625 244.863281 228.472656 242.058594 226.988281 C 233.984375 222.539062 225.246094 221.550781 216.179688 223.199219 C 213.542969 223.691406 211.070312 225.835938 210.578125 227.976562 C 214.699219 226.496094 218.820312 226.328125 222.941406 226 C 226.894531 225.835938 230.851562 226.164062 234.644531 227.484375 C 236.621094 227.8125 238.269531 228.96875 239.753906 230.285156 C 237.609375 229.460938 235.46875 228.636719 233.488281 227.976562 C 232.996094 227.976562 232.5 227.976562 232.003906 227.8125 Z M 232.003906 227.8125 " fill-opacity="1" fill-rule="nonzero"/><path fill="#6482ad" d="M 179.257812 247.097656 C 182.058594 252.207031 183.875 257.152344 182.390625 262.59375 C 182.226562 264.078125 181.234375 264.902344 180.082031 265.558594 C 181.730469 263.253906 181.894531 260.78125 181.730469 258.144531 C 181.234375 254.1875 179.257812 250.890625 177.941406 249.078125 C 179.421875 256 177.941406 262.429688 174.3125 268.527344 C 173.820312 269.515625 172.171875 270.175781 172.5 271 C 172.996094 271.988281 174.644531 271.496094 175.632812 271.824219 C 183.875 273.472656 189.808594 266.382812 188.984375 259.957031 C 188.160156 254.023438 184.699219 250.066406 179.257812 247.097656 Z M 179.257812 247.097656 " fill-opacity="1" fill-rule="nonzero"/><path fill="#6482ad" d="M 241.894531 137.957031 C 237.773438 137.460938 233.820312 136.308594 229.699219 134.496094 C 237.28125 131.691406 245.191406 131.855469 252.609375 128.890625 C 251.785156 128.230469 251.125 128.726562 250.632812 128.726562 C 248.488281 129.21875 246.179688 129.550781 244.039062 129.550781 C 238.433594 129.21875 232.828125 129.382812 227.226562 132.351562 C 229.699219 127.242188 233.652344 124.273438 238.433594 122.792969 C 244.203125 120.8125 250.136719 121.472656 256.070312 122.792969 C 258.378906 123.285156 260.6875 124.273438 262.664062 121.96875 C 264.3125 123.617188 262.664062 124.769531 262.335938 125.921875 C 259.699219 134 249.3125 138.78125 241.894531 137.957031 Z M 241.894531 137.957031 " fill-opacity="1" fill-rule="nonzero"/><path fill="#6482ad" d="M 271.566406 153.121094 C 267.445312 152.625 263.488281 151.472656 259.367188 149.660156 C 266.949219 146.855469 274.863281 147.023438 282.28125 144.054688 C 281.457031 143.394531 280.796875 143.890625 280.300781 143.890625 C 278.160156 144.382812 275.851562 144.714844 273.707031 144.714844 C 268.105469 144.382812 262.5 144.550781 256.894531 147.515625 C 259.367188 142.40625 263.324219 139.441406 268.105469 137.957031 C 273.875 135.976562 279.808594 136.636719 285.742188 137.957031 C 288.050781 138.449219 290.355469 139.441406 292.335938 137.132812 C 293.984375 138.78125 292.335938 139.933594 292.003906 141.089844 C 289.367188 149.164062 278.984375 153.945312 271.566406 153.121094 Z M 271.566406 153.121094 " fill-opacity="1" fill-rule="nonzero"/><path fill="#6482ad" d="M 308.652344 153.617188 C 304.699219 154.769531 300.578125 155.265625 295.960938 155.265625 C 301.730469 149.824219 309.3125 146.855469 314.917969 141.089844 C 313.765625 140.921875 313.597656 141.417969 313.105469 141.746094 C 311.292969 143.066406 309.3125 144.382812 307.335938 145.042969 C 302.058594 147.023438 296.949219 149.328125 292.996094 154.109375 C 293.324219 148.339844 295.796875 144.21875 299.421875 140.921875 C 304.039062 136.96875 309.644531 134.988281 315.578125 134 C 317.882812 133.671875 320.355469 133.671875 321.347656 130.539062 C 323.488281 131.363281 322.5 133.175781 322.5 134.328125 C 323.488281 143.066406 315.90625 151.472656 308.652344 153.617188 Z M 308.652344 153.617188 " fill-opacity="1" fill-rule="nonzero"/><path fill="#6482ad" d="M 169.863281 144.550781 C 169.203125 145.042969 168.875 145.375 168.542969 145.539062 C 164.257812 148.339844 159.476562 149.824219 154.699219 151.472656 C 152.058594 152.460938 149.421875 153.78125 146.621094 153.285156 C 142.171875 152.460938 138.050781 150.8125 134.09375 148.503906 C 132.773438 147.679688 133.105469 147.023438 133.929688 146.199219 C 137.058594 143.230469 140.191406 140.59375 143.820312 138.285156 C 150.90625 134.164062 162.445312 135.976562 169.039062 140.757812 C 158.984375 138.78125 150.246094 142.902344 141.179688 146.199219 C 150.578125 144.878906 159.808594 142.738281 169.863281 144.550781 Z M 169.863281 144.550781 " fill-opacity="1" fill-rule="nonzero"/><path fill="#6482ad" d="M 157.5 131.527344 C 152.71875 131.199219 148.765625 129.21875 144.972656 126.746094 C 142.5 125.097656 140.355469 123.285156 137.71875 122.132812 C 136.070312 121.308594 134.257812 120.8125 132.445312 120.648438 C 134.753906 121.96875 137.390625 122.460938 139.367188 124.273438 C 143.160156 127.738281 147.445312 130.539062 152.058594 133.175781 C 149.753906 133.011719 147.445312 132.847656 145.300781 132.515625 C 137.554688 131.363281 129.148438 126.582031 127.003906 117.351562 C 126.839844 116.363281 127.171875 115.867188 128.160156 116.199219 C 130.796875 116.855469 133.433594 116.199219 135.90625 115.867188 C 142.664062 115.042969 148.765625 116.03125 152.390625 122.957031 C 152.71875 123.449219 153.214844 123.78125 153.542969 124.273438 C 154.53125 126.746094 156.839844 128.5625 157.5 131.527344 Z M 157.5 131.527344 " fill-opacity="1" fill-rule="nonzero"/><path fill="#6482ad" d="M 126.839844 150.152344 C 122.058594 149.824219 118.105469 147.847656 114.3125 145.375 C 111.839844 143.726562 109.699219 141.914062 107.058594 140.757812 C 105.410156 139.933594 103.597656 139.441406 101.785156 139.273438 C 104.09375 140.59375 106.730469 141.089844 108.707031 142.902344 C 112.5 146.363281 116.785156 149.164062 121.402344 151.800781 C 119.09375 151.636719 116.785156 151.472656 114.644531 151.144531 C 106.894531 149.988281 98.488281 145.207031 96.347656 135.976562 C 96.179688 134.988281 96.511719 134.496094 97.5 134.824219 C 100.136719 135.484375 102.773438 134.824219 105.246094 134.496094 C 112.003906 133.671875 118.105469 134.660156 121.730469 141.582031 C 122.058594 142.078125 122.554688 142.40625 122.882812 142.902344 C 123.707031 145.207031 126.015625 147.1875 126.839844 150.152344 Z M 126.839844 150.152344 " fill-opacity="1" fill-rule="nonzero"/><path fill="#6482ad" d="M 86.125 151.472656 C 80.851562 150.484375 76.566406 147.515625 72.609375 144.21875 C 70.136719 142.078125 67.828125 139.769531 65.027344 137.957031 C 63.214844 136.800781 61.402344 135.8125 59.257812 135.484375 C 61.566406 137.296875 64.53125 138.285156 66.511719 140.59375 C 70.300781 145.042969 74.753906 149 79.53125 152.460938 C 76.894531 151.96875 74.421875 151.308594 71.949219 150.648438 C 63.378906 148.175781 54.644531 141.417969 53.652344 130.703125 C 53.488281 129.550781 53.984375 129.054688 55.136719 129.550781 C 57.941406 130.703125 61.070312 130.375 64.039062 130.375 C 71.949219 130.539062 78.542969 132.515625 81.511719 140.757812 C 81.675781 141.417969 82.335938 141.914062 82.5 142.40625 C 83.488281 145.539062 85.796875 148.011719 86.125 151.472656 Z M 86.125 151.472656 " fill-opacity="1" fill-rule="nonzero"/><g clip-path="url(#0b9aca822b)"><path fill="#6482ad" d="M 327.117188 160.375 C 296.621094 160.207031 265.960938 159.878906 235.46875 159.878906 C 215.851562 159.878906 196.402344 158.5625 176.785156 159.054688 C 131.621094 160.207031 86.292969 160.703125 41.125 160.207031 C 39.972656 160.207031 38.820312 160.539062 37.5 158.890625 C 137.71875 155.429688 237.609375 155.265625 337.5 159.21875 C 334.203125 160.539062 330.742188 160.375 327.117188 160.375 Z M 327.117188 160.375 " fill-opacity="1" fill-rule="nonzero"/></g><path fill="#6482ad" d="M 228.050781 124.769531 C 223.597656 132.023438 215.027344 134.496094 208.105469 130.375 C 212.390625 130.042969 216.347656 129.878906 219.644531 127.242188 C 222.773438 124.769531 225.742188 122.132812 227.390625 118.175781 C 227.058594 118.175781 226.894531 118.175781 226.730469 118.175781 C 226.566406 118.339844 226.402344 118.503906 226.402344 118.671875 C 224.917969 121.800781 222.445312 123.78125 219.476562 125.265625 C 215.6875 127.078125 211.894531 127.902344 207.609375 127.40625 C 206.621094 127.242188 206.292969 126.914062 206.949219 125.921875 C 208.597656 123.121094 210.742188 120.8125 213.875 119.328125 C 220.136719 116.199219 226.894531 114.054688 232.171875 109.273438 C 232.5 109.109375 232.828125 108.945312 232.996094 109.109375 C 233.324219 109.441406 233.324219 109.933594 233.160156 110.429688 C 231.675781 115.375 230.851562 120.320312 228.050781 124.769531 Z M 228.050781 124.769531 " fill-opacity="1" fill-rule="nonzero"/><path fill="#6482ad" d="M 153.707031 111.582031 C 154.203125 111.914062 154.863281 112.242188 155.523438 112.40625 C 158.984375 113.394531 162.609375 114.054688 166.070312 115.207031 C 171.179688 117.023438 173.160156 120.8125 173.820312 125.757812 C 174.3125 129.21875 172.996094 132.351562 173.488281 136.144531 C 170.6875 134.496094 169.039062 132.515625 167.882812 130.042969 C 167.390625 128.890625 167.058594 127.570312 166.402344 126.417969 C 165.082031 123.945312 164.257812 121.308594 161.621094 119.660156 C 162.941406 122.625 163.765625 125.59375 164.589844 128.5625 C 165.742188 132.847656 167.71875 136.472656 172.003906 138.945312 C 167.226562 138.78125 162.609375 136.96875 161.457031 132.1875 C 161.125 130.375 160.300781 128.726562 159.808594 126.914062 C 158.324219 121.800781 157.171875 116.527344 152.71875 112.902344 C 152.390625 112.738281 152.058594 112.40625 152.390625 111.914062 C 152.71875 111.417969 153.214844 111.253906 153.707031 111.582031 Z M 153.707031 111.582031 " fill-opacity="1" fill-rule="nonzero"/><path fill="#6482ad" d="M 72.941406 113.066406 C 73.433594 113.394531 74.09375 113.726562 74.753906 113.890625 C 78.214844 114.878906 81.839844 115.539062 85.300781 116.691406 C 90.410156 118.503906 92.390625 122.296875 93.050781 127.242188 C 93.542969 130.703125 92.226562 133.835938 92.71875 137.625 C 89.917969 135.976562 88.269531 134 87.117188 131.527344 C 86.621094 130.375 86.292969 129.054688 85.632812 127.902344 C 84.3125 125.429688 83.488281 122.792969 80.851562 121.144531 C 82.171875 124.109375 82.996094 127.078125 83.820312 130.042969 C 84.972656 134.328125 86.949219 137.957031 91.234375 140.429688 C 86.457031 140.265625 81.839844 138.449219 80.6875 133.671875 C 80.355469 131.855469 79.53125 130.207031 79.039062 128.394531 C 77.554688 123.285156 76.402344 118.011719 71.949219 114.386719 C 71.621094 114.21875 71.292969 113.890625 71.621094 113.394531 C 71.949219 112.902344 72.445312 112.738281 72.941406 113.066406 Z M 72.941406 113.066406 " fill-opacity="1" fill-rule="nonzero"/><path fill="#6482ad" d="M 210.410156 104.824219 C 210.246094 107.625 210.246094 110.265625 209.421875 113.066406 C 208.105469 117.515625 202.828125 123.285156 196.234375 122.625 C 202.5 117.515625 204.3125 110.097656 207.28125 103.503906 C 203.324219 109.273438 200.523438 115.867188 195.082031 120.484375 C 195.082031 117.1875 195.246094 114.054688 196.730469 110.921875 C 198.707031 106.800781 201.675781 104 205.46875 101.691406 C 207.28125 100.539062 209.589844 100.042969 210.742188 98.066406 C 211.070312 97.570312 211.402344 97.40625 211.894531 97.902344 C 212.390625 98.230469 212.226562 98.726562 211.894531 99.054688 C 210.742188 100.539062 210.578125 102.679688 210.410156 104.824219 Z M 210.410156 104.824219 " fill-opacity="1" fill-rule="nonzero"/><path fill="#6482ad" d="M 214.699219 113.726562 C 217.5 109.109375 220.632812 104.660156 222.609375 99.714844 C 219.476562 102.847656 217.003906 106.800781 214.203125 110.429688 C 214.53125 107.792969 214.53125 105.320312 215.027344 103.011719 C 215.523438 100.703125 216.015625 98.066406 217.828125 96.417969 C 220.632812 93.945312 223.269531 91.308594 226.566406 89.496094 C 228.050781 88.671875 228.542969 88.835938 228.875 90.648438 C 229.863281 96.417969 228.050781 101.527344 225.082031 106.308594 C 222.609375 109.933594 218.488281 111.582031 214.699219 113.726562 Z M 214.699219 113.726562 " fill-opacity="1" fill-rule="nonzero"/><path fill="#6482ad" d="M 264.148438 133.671875 C 268.433594 130.207031 272.882812 127.242188 276.511719 123.285156 C 272.390625 125.097656 268.765625 127.902344 264.808594 130.375 C 265.960938 127.902344 266.949219 125.757812 268.105469 123.617188 C 269.257812 121.472656 270.742188 119.328125 273.050781 118.503906 C 276.511719 117.1875 279.972656 115.703125 283.597656 115.042969 C 285.410156 114.714844 285.742188 115.207031 285.410156 116.855469 C 284.257812 122.625 280.796875 126.746094 276.347656 130.207031 C 272.882812 133.011719 268.433594 133.175781 264.148438 133.671875 Z M 264.148438 133.671875 " fill-opacity="1" fill-rule="nonzero"/><path fill="#6482ad" d="M 159.808594 102.847656 C 161.785156 104.824219 163.433594 106.96875 165.410156 109.109375 C 167.226562 111.089844 169.039062 113.230469 170.6875 116.03125 C 167.390625 114.054688 163.929688 113.230469 161.125 111.253906 C 159.3125 110.097656 157.171875 109.109375 156.347656 107.132812 C 155.027344 104.164062 154.039062 100.867188 152.882812 97.738281 C 161.125 98.066406 175.136719 107.132812 175.46875 117.847656 C 170.523438 112.078125 165.082031 107.460938 159.808594 102.847656 Z M 159.808594 102.847656 " fill-opacity="1" fill-rule="nonzero"/><path fill="#6482ad" d="M 109.039062 116.03125 C 111.015625 118.011719 112.664062 120.152344 114.644531 122.296875 C 116.457031 124.273438 118.269531 126.417969 119.917969 129.21875 C 116.621094 127.242188 113.160156 126.417969 110.355469 124.441406 C 108.542969 123.285156 106.402344 122.296875 105.578125 120.320312 C 104.257812 117.351562 103.269531 114.054688 102.117188 110.921875 C 110.355469 111.253906 124.367188 120.320312 124.699219 131.03125 C 119.753906 125.265625 114.3125 120.648438 109.039062 116.03125 Z M 109.039062 116.03125 " fill-opacity="1" fill-rule="nonzero"/><path fill="#6482ad" d="M 202.003906 130.539062 C 202.335938 131.199219 202.664062 132.023438 202.003906 132.515625 C 201.511719 133.175781 200.6875 132.847656 200.027344 132.679688 C 199.039062 132.351562 198.050781 131.855469 197.226562 131.363281 C 193.433594 129.550781 189.644531 129.714844 186.179688 132.1875 C 184.53125 133.503906 182.882812 134.660156 181.402344 136.144531 C 180.90625 136.636719 180.410156 137.460938 179.589844 136.96875 C 178.765625 136.472656 179.257812 135.8125 179.257812 134.988281 C 179.257812 132.847656 181.234375 131.855469 182.226562 130.375 C 185.027344 126.089844 189.3125 125.429688 193.269531 124.933594 C 197.71875 125.097656 200.191406 127.40625 202.003906 130.539062 Z M 202.003906 130.539062 " fill-opacity="1" fill-rule="nonzero"/><path fill="#6482ad" d="M 190.960938 149.824219 C 190.46875 151.308594 189.644531 151.636719 188.324219 150.8125 C 186.015625 149.496094 185.6875 147.351562 187.664062 145.207031 C 188.160156 144.714844 188.820312 144.382812 188.652344 143.5625 C 187.828125 143.394531 187.5 144.878906 186.675781 144.054688 C 186.015625 143.394531 186.511719 142.570312 186.675781 141.746094 C 186.675781 141.746094 186.675781 141.582031 186.839844 141.582031 C 187.996094 139.109375 190.136719 137.625 192.445312 136.472656 C 194.917969 135.320312 197.390625 137.296875 197.390625 140.097656 C 197.390625 141.089844 197.390625 142.078125 197.390625 143.066406 C 197.390625 143.890625 197.390625 144.550781 197.390625 145.375 C 198.875 142.242188 199.203125 139.109375 198.050781 135.976562 C 197.882812 135.648438 197.390625 135.152344 197.71875 134.824219 C 198.050781 134.328125 198.707031 134.496094 199.203125 134.660156 C 202.828125 135.484375 205.632812 139.109375 203.324219 143.230469 C 202.5 144.550781 201.511719 145.703125 200.355469 146.855469 C 198.050781 149.496094 198.050781 149.496094 196.566406 146.691406 C 195.90625 148.011719 194.917969 148.835938 193.269531 149.496094 C 193.929688 147.679688 194.257812 146.199219 192.941406 144.550781 C 191.785156 146.363281 191.457031 148.175781 190.960938 149.824219 Z M 190.960938 149.824219 " fill-opacity="1" fill-rule="nonzero"/><path fill="#6482ad" d="M 181.894531 143.5625 C 181.070312 142.078125 180.410156 140.265625 181.566406 138.78125 C 184.367188 134.824219 187.828125 131.691406 193.269531 131.527344 C 193.765625 131.363281 194.257812 131.691406 194.917969 131.855469 C 195.578125 132.023438 196.234375 132.351562 196.234375 133.175781 C 196.234375 134 195.578125 134.164062 194.917969 134.328125 C 194.09375 134.496094 193.433594 134.824219 192.773438 135.320312 C 189.3125 137.296875 186.347656 139.605469 184.53125 143.230469 C 183.875 144.382812 182.390625 144.550781 181.894531 143.5625 Z M 181.894531 143.5625 " fill-opacity="1" fill-rule="nonzero"/><path fill="#6482ad" d="M 185.355469 152.957031 C 181.402344 153.121094 178.105469 149.988281 177.941406 145.207031 C 178.105469 143.890625 178.433594 142.078125 178.929688 140.429688 C 178.929688 140.097656 179.257812 139.769531 179.589844 139.769531 C 179.917969 139.769531 180.082031 140.097656 180.082031 140.429688 C 180.246094 140.921875 180.246094 141.582031 180.246094 142.242188 C 180.082031 143.5625 180.578125 145.207031 181.402344 145.375 C 185.523438 145.867188 185.523438 149 185.851562 151.800781 C 185.851562 151.96875 186.015625 151.96875 186.015625 152.132812 C 186.179688 152.625 186.015625 152.957031 185.355469 152.957031 Z M 185.355469 152.957031 " fill-opacity="1" fill-rule="nonzero"/><path fill="#6482ad" d="M 196.234375 152.792969 C 195.410156 152.625 194.589844 152.296875 194.589844 151.308594 C 194.589844 150.320312 195.578125 150.320312 196.402344 150.152344 C 199.367188 149.988281 201.675781 148.503906 203.652344 146.363281 C 204.3125 145.703125 204.972656 145.042969 205.796875 144.21875 C 206.125 143.890625 206.457031 143.726562 206.785156 143.890625 C 207.28125 144.054688 207.28125 144.550781 207.28125 145.042969 C 206.292969 150.152344 202.828125 154.441406 196.234375 152.792969 Z M 196.234375 152.792969 " fill-opacity="1" fill-rule="nonzero"/><path fill="#6482ad" d="M 202.996094 134.328125 C 202.335938 134 202.5 133.175781 203.324219 133.011719 C 203.820312 132.847656 204.476562 132.847656 204.476562 132.847656 C 206.949219 132.679688 208.269531 133.503906 209.09375 135.152344 C 210.410156 137.625 209.421875 139.605469 208.105469 141.582031 C 207.609375 142.40625 206.785156 143.230469 205.632812 142.902344 C 204.644531 142.570312 204.972656 141.417969 204.808594 140.429688 C 204.808594 140.097656 204.808594 139.605469 204.808594 139.273438 C 204.808594 137.460938 204.808594 135.648438 202.996094 134.328125 Z M 202.996094 134.328125 " fill-opacity="1" fill-rule="nonzero"/><path fill="#6482ad" d="M 232.003906 147.1875 C 225.082031 148.503906 218.488281 146.691406 212.058594 144.550781 C 211.566406 144.382812 210.742188 144.382812 211.234375 143.394531 C 212.71875 140.921875 214.699219 138.945312 217.664062 137.957031 C 221.949219 136.636719 226.070312 137.460938 230.191406 138.449219 C 236.457031 139.933594 242.554688 142.078125 249.148438 141.089844 C 249.808594 140.921875 250.46875 141.089844 250.632812 141.582031 C 250.960938 142.242188 250.300781 142.570312 249.972656 143.066406 C 247.828125 145.375 244.863281 146.527344 242.058594 148.011719 C 233.984375 152.460938 225.246094 153.449219 216.179688 151.800781 C 213.542969 151.308594 211.070312 149.164062 210.578125 147.023438 C 214.699219 148.503906 218.820312 148.671875 222.941406 149 C 226.894531 149.164062 230.851562 148.835938 234.644531 147.515625 C 236.621094 147.1875 238.269531 146.03125 239.753906 144.714844 C 237.609375 145.539062 235.46875 146.363281 233.488281 147.023438 C 232.996094 147.023438 232.5 147.023438 232.003906 147.1875 Z M 232.003906 147.1875 " fill-opacity="1" fill-rule="nonzero"/><path fill="#6482ad" d="M 179.257812 127.902344 C 182.058594 122.792969 183.875 117.847656 182.390625 112.40625 C 182.226562 110.921875 181.234375 110.097656 180.082031 109.441406 C 181.730469 111.746094 181.894531 114.21875 181.730469 116.855469 C 181.234375 120.8125 179.257812 124.109375 177.941406 125.921875 C 179.421875 119 177.941406 112.570312 174.3125 106.472656 C 173.820312 105.484375 172.171875 104.824219 172.5 104 C 172.996094 103.011719 174.644531 103.503906 175.632812 103.175781 C 183.875 101.527344 189.808594 108.617188 188.984375 115.042969 C 188.160156 120.976562 184.699219 124.933594 179.257812 127.902344 Z M 179.257812 127.902344 " fill-opacity="1" fill-rule="nonzero"/><path fill="#eaeff5" d="M 73.957031 163.222656 L 301.015625 163.222656 C 307.507812 163.222656 312.773438 168.484375 312.773438 174.980469 L 312.773438 198.496094 C 312.773438 204.992188 307.507812 210.253906 301.015625 210.253906 L 73.957031 210.253906 C 67.464844 210.253906 62.199219 204.992188 62.199219 198.496094 L 62.199219 174.980469 C 62.199219 168.484375 67.464844 163.222656 73.957031 163.222656 Z M 73.957031 163.222656 " fill-opacity="1" fill-rule="nonzero"/><g fill="#6482ad" fill-opacity="1"><g transform="translate(77.518273, 193.618397)"><g><path d="M 15.046875 -14.5 L 14.5625 -14.5 C 14.519531 -14.75 14.394531 -14.898438 14.1875 -14.953125 C 13.988281 -15.015625 13.726562 -15.046875 13.40625 -15.046875 L 6.0625 -15.046875 L 6.0625 -10.625 L 10.453125 -10.625 C 10.742188 -10.625 10.988281 -10.648438 11.1875 -10.703125 C 11.394531 -10.753906 11.523438 -10.929688 11.578125 -11.234375 L 12.046875 -11.234375 L 12.046875 -7.21875 L 11.578125 -7.21875 C 11.523438 -7.46875 11.398438 -7.617188 11.203125 -7.671875 C 11.015625 -7.734375 10.765625 -7.765625 10.453125 -7.765625 L 6.0625 -7.765625 L 6.0625 -2.859375 L 13.921875 -2.859375 C 14.210938 -2.859375 14.457031 -2.882812 14.65625 -2.9375 C 14.863281 -3 14.992188 -3.175781 15.046875 -3.46875 L 15.515625 -3.46875 L 15.515625 0.609375 L 15.046875 0.609375 C 14.992188 0.316406 14.863281 0.140625 14.65625 0.078125 C 14.457031 0.0234375 14.210938 0 13.921875 0 L 1.5625 0 L 1.5625 -0.46875 C 2.039062 -0.519531 2.34375 -0.613281 2.46875 -0.75 C 2.59375 -0.882812 2.65625 -1.097656 2.65625 -1.390625 L 2.65625 -16.5 C 2.65625 -16.800781 2.59375 -17.019531 2.46875 -17.15625 C 2.34375 -17.289062 2.019531 -17.378906 1.5 -17.421875 L 1.5 -17.90625 L 13.4375 -17.90625 C 13.738281 -17.90625 13.988281 -17.929688 14.1875 -17.984375 C 14.394531 -18.046875 14.519531 -18.222656 14.5625 -18.515625 L 15.046875 -18.515625 Z M 15.046875 -14.5 "/></g></g></g><g fill="#6482ad" fill-opacity="1"><g transform="translate(97.938316, 193.618397)"><g><path d="M 6.84375 -17.90625 L 6.84375 -17.421875 C 6.34375 -17.378906 6.023438 -17.296875 5.890625 -17.171875 C 5.753906 -17.046875 5.6875 -16.820312 5.6875 -16.5 L 5.6875 -2.859375 L 13.203125 -2.859375 C 13.566406 -2.859375 13.832031 -2.898438 14 -2.984375 C 14.175781 -3.078125 14.285156 -3.304688 14.328125 -3.671875 L 14.796875 -3.671875 L 14.796875 0.609375 L 14.328125 0.609375 C 14.285156 0.316406 14.160156 0.140625 13.953125 0.078125 C 13.742188 0.0234375 13.492188 0 13.203125 0 L 1.328125 0 L 1.328125 -0.46875 C 1.734375 -0.519531 1.992188 -0.613281 2.109375 -0.75 C 2.222656 -0.882812 2.28125 -1.085938 2.28125 -1.359375 L 2.28125 -16.5 C 2.28125 -16.820312 2.21875 -17.046875 2.09375 -17.171875 C 1.96875 -17.296875 1.691406 -17.378906 1.265625 -17.421875 L 1.265625 -17.90625 Z M 6.84375 -17.90625 "/></g></g></g><g fill="#6482ad" fill-opacity="1"><g transform="translate(116.452585, 193.618397)"><g><path d="M 7.59375 -17.90625 L 7.59375 -17.421875 C 7.09375 -17.378906 6.773438 -17.296875 6.640625 -17.171875 C 6.503906 -17.046875 6.4375 -16.835938 6.4375 -16.546875 L 6.4375 -1.359375 C 6.4375 -1.066406 6.503906 -0.859375 6.640625 -0.734375 C 6.773438 -0.609375 7.09375 -0.519531 7.59375 -0.46875 L 7.59375 0 L 1.875 0 L 1.875 -0.46875 C 2.375 -0.519531 2.691406 -0.609375 2.828125 -0.734375 C 2.960938 -0.859375 3.03125 -1.066406 3.03125 -1.359375 L 3.03125 -16.546875 C 3.03125 -16.835938 2.960938 -17.046875 2.828125 -17.171875 C 2.691406 -17.296875 2.375 -17.378906 1.875 -17.421875 L 1.875 -17.90625 Z M 7.59375 -17.90625 "/></g></g></g><g fill="#6482ad" fill-opacity="1"><g transform="translate(129.317623, 193.618397)"><g><path d="M 1.09375 -18.515625 L 1.5625 -18.515625 C 1.613281 -18.222656 1.738281 -18.046875 1.9375 -17.984375 C 2.144531 -17.929688 2.40625 -17.90625 2.71875 -17.90625 L 14.296875 -17.90625 C 14.609375 -17.90625 14.863281 -17.929688 15.0625 -17.984375 C 15.269531 -18.046875 15.398438 -18.222656 15.453125 -18.515625 L 15.921875 -18.515625 L 15.921875 -14.265625 L 15.453125 -14.265625 C 15.398438 -14.578125 15.296875 -14.785156 15.140625 -14.890625 C 14.984375 -14.992188 14.703125 -15.046875 14.296875 -15.046875 L 10.203125 -15.046875 L 10.203125 -1.359375 C 10.203125 -1.066406 10.257812 -0.859375 10.375 -0.734375 C 10.488281 -0.609375 10.707031 -0.519531 11.03125 -0.46875 L 11.03125 0 L 6.125 0 L 6.125 -0.46875 C 6.394531 -0.519531 6.578125 -0.613281 6.671875 -0.75 C 6.765625 -0.882812 6.8125 -1.085938 6.8125 -1.359375 L 6.8125 -15.046875 L 2.71875 -15.046875 C 2.351562 -15.046875 2.082031 -15.003906 1.90625 -14.921875 C 1.726562 -14.835938 1.613281 -14.617188 1.5625 -14.265625 L 1.09375 -14.265625 Z M 1.09375 -18.515625 "/></g></g></g><g fill="#6482ad" fill-opacity="1"><g transform="translate(149.737664, 193.618397)"><g><path d="M 15.046875 -14.5 L 14.5625 -14.5 C 14.519531 -14.75 14.394531 -14.898438 14.1875 -14.953125 C 13.988281 -15.015625 13.726562 -15.046875 13.40625 -15.046875 L 6.0625 -15.046875 L 6.0625 -10.625 L 10.453125 -10.625 C 10.742188 -10.625 10.988281 -10.648438 11.1875 -10.703125 C 11.394531 -10.753906 11.523438 -10.929688 11.578125 -11.234375 L 12.046875 -11.234375 L 12.046875 -7.21875 L 11.578125 -7.21875 C 11.523438 -7.46875 11.398438 -7.617188 11.203125 -7.671875 C 11.015625 -7.734375 10.765625 -7.765625 10.453125 -7.765625 L 6.0625 -7.765625 L 6.0625 -2.859375 L 13.921875 -2.859375 C 14.210938 -2.859375 14.457031 -2.882812 14.65625 -2.9375 C 14.863281 -3 14.992188 -3.175781 15.046875 -3.46875 L 15.515625 -3.46875 L 15.515625 0.609375 L 15.046875 0.609375 C 14.992188 0.316406 14.863281 0.140625 14.65625 0.078125 C 14.457031 0.0234375 14.210938 0 13.921875 0 L 1.5625 0 L 1.5625 -0.46875 C 2.039062 -0.519531 2.34375 -0.613281 2.46875 -0.75 C 2.59375 -0.882812 2.65625 -1.097656 2.65625 -1.390625 L 2.65625 -16.5 C 2.65625 -16.800781 2.59375 -17.019531 2.46875 -17.15625 C 2.34375 -17.289062 2.019531 -17.378906 1.5 -17.421875 L 1.5 -17.90625 L 13.4375 -17.90625 C 13.738281 -17.90625 13.988281 -17.929688 14.1875 -17.984375 C 14.394531 -18.046875 14.519531 -18.222656 14.5625 -18.515625 L 15.046875 -18.515625 Z M 15.046875 -14.5 "/></g></g></g><g fill="#6482ad" fill-opacity="1"><g transform="translate(170.157705, 193.618397)"><g/></g></g><g fill="#6482ad" fill-opacity="1"><g transform="translate(182.069859, 193.618397)"><g><path d="M 14.5625 -14.421875 L 14.09375 -14.421875 C 14.039062 -14.703125 13.929688 -14.875 13.765625 -14.9375 C 13.597656 -15.007812 13.363281 -15.046875 13.0625 -15.046875 L 5.65625 -15.046875 L 5.65625 -10.625 L 10.25 -10.625 C 10.582031 -10.625 10.847656 -10.65625 11.046875 -10.71875 C 11.253906 -10.789062 11.382812 -10.984375 11.4375 -11.296875 L 11.90625 -11.296875 L 11.90625 -7.1875 L 11.4375 -7.1875 C 11.382812 -7.476562 11.242188 -7.644531 11.015625 -7.6875 C 10.796875 -7.738281 10.492188 -7.765625 10.109375 -7.765625 L 5.65625 -7.765625 L 5.65625 -1.328125 C 5.65625 -0.984375 5.75 -0.765625 5.9375 -0.671875 C 6.132812 -0.585938 6.4375 -0.519531 6.84375 -0.46875 L 6.84375 0 L 1.15625 0 L 1.15625 -0.46875 C 1.632812 -0.519531 1.9375 -0.613281 2.0625 -0.75 C 2.1875 -0.882812 2.25 -1.097656 2.25 -1.390625 L 2.25 -16.546875 C 2.25 -16.835938 2.179688 -17.046875 2.046875 -17.171875 C 1.910156 -17.296875 1.59375 -17.378906 1.09375 -17.421875 L 1.09375 -17.90625 L 13.0625 -17.90625 C 13.363281 -17.90625 13.597656 -17.9375 13.765625 -18 C 13.929688 -18.070312 14.039062 -18.242188 14.09375 -18.515625 L 14.5625 -18.515625 Z M 14.5625 -14.421875 "/></g></g></g><g fill="#6482ad" fill-opacity="1"><g transform="translate(200.584126, 193.618397)"><g><path d="M 6.640625 -17.90625 L 6.640625 -17.421875 C 6.316406 -17.378906 6.097656 -17.296875 5.984375 -17.171875 C 5.867188 -17.046875 5.8125 -16.835938 5.8125 -16.546875 L 5.8125 -6.4375 C 5.8125 -5.300781 6.132812 -4.382812 6.78125 -3.6875 C 7.4375 -3 8.382812 -2.65625 9.625 -2.65625 C 10.875 -2.65625 11.820312 -2.992188 12.46875 -3.671875 C 13.113281 -4.359375 13.4375 -5.28125 13.4375 -6.4375 L 13.4375 -16.546875 C 13.4375 -16.835938 13.378906 -17.046875 13.265625 -17.171875 C 13.160156 -17.296875 12.945312 -17.378906 12.625 -17.421875 L 12.625 -17.90625 L 17.453125 -17.90625 L 17.453125 -17.421875 C 17.085938 -17.378906 16.847656 -17.296875 16.734375 -17.171875 C 16.628906 -17.046875 16.578125 -16.835938 16.578125 -16.546875 L 16.578125 -6.5625 C 16.578125 -4.363281 16 -2.6875 14.84375 -1.53125 C 13.6875 -0.375 11.90625 0.203125 9.5 0.203125 C 4.78125 0.203125 2.421875 -2.050781 2.421875 -6.5625 L 2.421875 -16.546875 C 2.421875 -16.835938 2.359375 -17.046875 2.234375 -17.171875 C 2.109375 -17.296875 1.851562 -17.378906 1.46875 -17.421875 L 1.46875 -17.90625 Z M 6.640625 -17.90625 "/></g></g></g><g fill="#6482ad" fill-opacity="1"><g transform="translate(222.909934, 193.618397)"><g><path d="M 8.203125 -18.109375 C 9.398438 -18.109375 10.378906 -17.988281 11.140625 -17.75 C 11.898438 -17.507812 12.507812 -17.285156 12.96875 -17.078125 C 13.28125 -16.941406 13.515625 -16.835938 13.671875 -16.765625 C 13.835938 -16.703125 13.976562 -16.671875 14.09375 -16.671875 C 14.269531 -16.671875 14.414062 -16.703125 14.53125 -16.765625 C 14.644531 -16.835938 14.757812 -16.941406 14.875 -17.078125 L 15.140625 -16.953125 L 12.625 -12.734375 L 12.15625 -12.9375 C 12.15625 -12.976562 12.160156 -13.0625 12.171875 -13.1875 C 12.179688 -13.3125 12.1875 -13.421875 12.1875 -13.515625 C 12.1875 -13.710938 12.078125 -13.941406 11.859375 -14.203125 C 11.640625 -14.460938 11.316406 -14.695312 10.890625 -14.90625 C 10.429688 -15.132812 9.945312 -15.289062 9.4375 -15.375 C 8.925781 -15.46875 8.398438 -15.515625 7.859375 -15.515625 C 6.972656 -15.515625 6.296875 -15.328125 5.828125 -14.953125 C 5.367188 -14.578125 5.140625 -14.0625 5.140625 -13.40625 C 5.140625 -12.789062 5.441406 -12.3125 6.046875 -11.96875 C 6.660156 -11.632812 7.71875 -11.304688 9.21875 -10.984375 C 10.125 -10.804688 10.976562 -10.59375 11.78125 -10.34375 C 12.59375 -10.09375 13.304688 -9.765625 13.921875 -9.359375 C 14.535156 -8.953125 15.015625 -8.4375 15.359375 -7.8125 C 15.710938 -7.1875 15.890625 -6.394531 15.890625 -5.4375 C 15.890625 -4.71875 15.726562 -4.019531 15.40625 -3.34375 C 15.09375 -2.675781 14.613281 -2.078125 13.96875 -1.546875 C 13.320312 -1.015625 12.507812 -0.585938 11.53125 -0.265625 C 10.5625 0.046875 9.429688 0.203125 8.140625 0.203125 C 7.179688 0.203125 6.289062 0.0976562 5.46875 -0.109375 C 4.65625 -0.328125 3.875 -0.609375 3.125 -0.953125 C 2.625 -1.179688 2.273438 -1.296875 2.078125 -1.296875 C 1.960938 -1.296875 1.867188 -1.257812 1.796875 -1.1875 C 1.734375 -1.125 1.625 -1 1.46875 -0.8125 L 1.125 -1.015625 L 3.171875 -5.234375 L 3.640625 -5.03125 C 3.617188 -4.96875 3.601562 -4.910156 3.59375 -4.859375 C 3.582031 -4.816406 3.578125 -4.765625 3.578125 -4.703125 C 3.578125 -4.378906 3.726562 -4.101562 4.03125 -3.875 C 4.332031 -3.65625 4.691406 -3.453125 5.109375 -3.265625 C 5.628906 -3.054688 6.164062 -2.898438 6.71875 -2.796875 C 7.28125 -2.703125 7.820312 -2.65625 8.34375 -2.65625 C 9.632812 -2.65625 10.644531 -2.851562 11.375 -3.25 C 12.113281 -3.644531 12.484375 -4.332031 12.484375 -5.3125 C 12.484375 -5.945312 12.175781 -6.453125 11.5625 -6.828125 C 10.957031 -7.203125 9.882812 -7.546875 8.34375 -7.859375 C 7.5 -8.046875 6.679688 -8.242188 5.890625 -8.453125 C 5.097656 -8.671875 4.394531 -8.96875 3.78125 -9.34375 C 3.164062 -9.71875 2.671875 -10.1875 2.296875 -10.75 C 1.921875 -11.320312 1.734375 -12.050781 1.734375 -12.9375 C 1.734375 -13.632812 1.863281 -14.296875 2.125 -14.921875 C 2.382812 -15.546875 2.78125 -16.09375 3.3125 -16.5625 C 3.851562 -17.039062 4.53125 -17.414062 5.34375 -17.6875 C 6.15625 -17.96875 7.109375 -18.109375 8.203125 -18.109375 Z M 8.203125 -18.109375 "/></g></g></g><g fill="#6482ad" fill-opacity="1"><g transform="translate(243.329975, 193.618397)"><g><path d="M 7.59375 -17.90625 L 7.59375 -17.421875 C 7.09375 -17.378906 6.773438 -17.296875 6.640625 -17.171875 C 6.503906 -17.046875 6.4375 -16.835938 6.4375 -16.546875 L 6.4375 -1.359375 C 6.4375 -1.066406 6.503906 -0.859375 6.640625 -0.734375 C 6.773438 -0.609375 7.09375 -0.519531 7.59375 -0.46875 L 7.59375 0 L 1.875 0 L 1.875 -0.46875 C 2.375 -0.519531 2.691406 -0.609375 2.828125 -0.734375 C 2.960938 -0.859375 3.03125 -1.066406 3.03125 -1.359375 L 3.03125 -16.546875 C 3.03125 -16.835938 2.960938 -17.046875 2.828125 -17.171875 C 2.691406 -17.296875 2.375 -17.378906 1.875 -17.421875 L 1.875 -17.90625 Z M 7.59375 -17.90625 "/></g></g></g><g fill="#6482ad" fill-opacity="1"><g transform="translate(256.195008, 193.618397)"><g><path d="M 4.703125 -8.953125 C 4.703125 -6.890625 5.113281 -5.320312 5.9375 -4.25 C 6.769531 -3.1875 7.941406 -2.65625 9.453125 -2.65625 C 10.972656 -2.65625 12.144531 -3.1875 12.96875 -4.25 C 13.800781 -5.320312 14.21875 -6.890625 14.21875 -8.953125 C 14.21875 -10.992188 13.800781 -12.550781 12.96875 -13.625 C 12.144531 -14.707031 10.960938 -15.25 9.421875 -15.25 C 7.929688 -15.25 6.769531 -14.710938 5.9375 -13.640625 C 5.113281 -12.578125 4.703125 -11.015625 4.703125 -8.953125 Z M 9.453125 -18.109375 C 10.753906 -18.109375 11.90625 -17.875 12.90625 -17.40625 C 13.914062 -16.9375 14.765625 -16.285156 15.453125 -15.453125 C 16.148438 -14.628906 16.6875 -13.660156 17.0625 -12.546875 C 17.4375 -11.441406 17.625 -10.242188 17.625 -8.953125 C 17.625 -7.660156 17.4375 -6.457031 17.0625 -5.34375 C 16.6875 -4.226562 16.148438 -3.253906 15.453125 -2.421875 C 14.765625 -1.597656 13.914062 -0.953125 12.90625 -0.484375 C 11.90625 -0.0234375 10.753906 0.203125 9.453125 0.203125 C 8.160156 0.203125 7.007812 -0.0234375 6 -0.484375 C 4.988281 -0.953125 4.140625 -1.597656 3.453125 -2.421875 C 2.765625 -3.253906 2.234375 -4.226562 1.859375 -5.34375 C 1.484375 -6.457031 1.296875 -7.660156 1.296875 -8.953125 C 1.296875 -10.242188 1.484375 -11.441406 1.859375 -12.546875 C 2.234375 -13.660156 2.765625 -14.628906 3.453125 -15.453125 C 4.140625 -16.285156 4.988281 -16.9375 6 -17.40625 C 7.007812 -17.875 8.160156 -18.109375 9.453125 -18.109375 Z M 9.453125 -18.109375 "/></g></g></g><g fill="#6482ad" fill-opacity="1"><g transform="translate(278.520808, 193.618397)"><g><path d="M 7.5625 -17.90625 L 7.5625 -17.421875 C 7.28125 -17.398438 7.101562 -17.363281 7.03125 -17.3125 C 6.96875 -17.269531 6.9375 -17.207031 6.9375 -17.125 C 6.9375 -16.9375 7.945312 -15.15625 9.96875 -11.78125 C 12.007812 -8.375 13.078125 -6.398438 13.171875 -5.859375 L 13.234375 -5.859375 L 13.234375 -16.546875 C 13.234375 -16.785156 13.1875 -16.976562 13.09375 -17.125 C 13.007812 -17.28125 12.804688 -17.378906 12.484375 -17.421875 L 12.484375 -17.90625 L 17.125 -17.90625 L 17.125 -17.421875 C 16.800781 -17.378906 16.59375 -17.289062 16.5 -17.15625 C 16.414062 -17.019531 16.375 -16.816406 16.375 -16.546875 L 16.375 -1.390625 C 16.375 -1.078125 16.410156 -0.859375 16.484375 -0.734375 C 16.566406 -0.609375 16.734375 -0.519531 16.984375 -0.46875 L 16.984375 0 L 12.015625 0 L 12.015625 -0.46875 C 12.441406 -0.539062 12.65625 -0.691406 12.65625 -0.921875 C 12.65625 -1.035156 12.523438 -1.316406 12.265625 -1.765625 C 12.003906 -2.222656 11.660156 -2.800781 11.234375 -3.5 C 10.773438 -4.226562 10.285156 -5.007812 9.765625 -5.84375 C 9.242188 -6.6875 8.6875 -7.617188 8.09375 -8.640625 C 7.507812 -9.640625 7.019531 -10.523438 6.625 -11.296875 C 6.226562 -12.066406 5.945312 -12.679688 5.78125 -13.140625 L 5.71875 -13.140625 L 5.71875 -1.359375 C 5.71875 -1.085938 5.757812 -0.882812 5.84375 -0.75 C 5.9375 -0.613281 6.132812 -0.519531 6.4375 -0.46875 L 6.4375 0 L 1.796875 0 L 1.796875 -0.46875 C 2.117188 -0.519531 2.332031 -0.613281 2.4375 -0.75 C 2.539062 -0.882812 2.59375 -1.085938 2.59375 -1.359375 L 2.59375 -16.546875 C 2.59375 -16.785156 2.546875 -16.976562 2.453125 -17.125 C 2.359375 -17.28125 2.1875 -17.378906 1.9375 -17.421875 L 1.9375 -17.90625 Z M 7.5625 -17.90625 "/></g></g></g></svg>