<svg xmlns="http://www.w3.org/2000/svg" xmlns:xlink="http://www.w3.org/1999/xlink" width="500" zoomAndPan="magnify" viewBox="0 0 375 187.499995" height="250" preserveAspectRatio="xMidYMid meet" version="1.0"><defs><g/><clipPath id="4894cd4562"><path d="M 41.140625 119 L 324.476562 119 L 324.476562 123 L 41.140625 123 Z M 41.140625 119 " clip-rule="nonzero"/></clipPath><clipPath id="dd4e8fe6b2"><path d="M 41.140625 64 L 324.476562 64 L 324.476562 68 L 41.140625 68 Z M 41.140625 64 " clip-rule="nonzero"/></clipPath></defs><path fill="#6482ad" d="M 234.183594 140.292969 C 230.289062 140.757812 226.554688 141.847656 222.660156 143.5625 C 229.824219 146.207031 237.296875 146.050781 244.300781 148.855469 C 243.523438 149.476562 242.898438 149.011719 242.433594 149.011719 C 240.410156 148.542969 238.230469 148.230469 236.207031 148.230469 C 230.914062 148.542969 225.621094 148.386719 220.328125 145.585938 C 222.660156 150.410156 226.398438 153.214844 230.914062 154.613281 C 236.363281 156.484375 241.964844 155.859375 247.570312 154.613281 C 249.75 154.148438 251.929688 153.214844 253.796875 155.394531 C 255.355469 153.835938 253.796875 152.746094 253.484375 151.65625 C 250.996094 144.027344 241.1875 139.515625 234.183594 140.292969 Z M 234.183594 140.292969 " fill-opacity="1" fill-rule="nonzero"/><path fill="#6482ad" d="M 262.203125 125.96875 C 258.3125 126.4375 254.574219 127.527344 250.683594 129.238281 C 257.84375 131.886719 265.316406 131.730469 272.324219 134.53125 C 271.542969 135.15625 270.921875 134.6875 270.453125 134.6875 C 268.429688 134.21875 266.25 133.910156 264.226562 133.910156 C 258.933594 134.21875 253.640625 134.066406 248.347656 131.261719 C 250.683594 136.089844 254.421875 138.890625 258.933594 140.292969 C 264.382812 142.160156 269.988281 141.539062 275.59375 140.292969 C 277.773438 139.824219 279.953125 138.890625 281.820312 141.070312 C 283.375 139.515625 281.820312 138.425781 281.507812 137.335938 C 279.015625 129.707031 269.210938 125.191406 262.203125 125.96875 Z M 262.203125 125.96875 " fill-opacity="1" fill-rule="nonzero"/><path fill="#6482ad" d="M 297.230469 125.503906 C 293.496094 124.414062 289.601562 123.945312 285.246094 123.945312 C 290.691406 129.082031 297.855469 131.886719 303.148438 137.335938 C 302.058594 137.488281 301.902344 137.023438 301.433594 136.710938 C 299.722656 135.464844 297.855469 134.21875 295.984375 133.597656 C 291.003906 131.730469 286.179688 129.550781 282.441406 125.035156 C 282.753906 130.484375 285.089844 134.375 288.511719 137.488281 C 292.871094 141.226562 298.164062 143.09375 303.769531 144.027344 C 305.949219 144.339844 308.285156 144.339844 309.21875 147.296875 C 311.242188 146.519531 310.308594 144.808594 310.308594 143.71875 C 311.242188 135.464844 304.082031 127.527344 297.230469 125.503906 Z M 297.230469 125.503906 " fill-opacity="1" fill-rule="nonzero"/><path fill="#6482ad" d="M 166.152344 134.066406 C 165.527344 133.597656 165.214844 133.285156 164.90625 133.132812 C 160.859375 130.484375 156.34375 129.082031 151.828125 127.527344 C 149.335938 126.59375 146.847656 125.347656 144.199219 125.8125 C 139.996094 126.59375 136.105469 128.148438 132.367188 130.328125 C 131.125 131.105469 131.433594 131.730469 132.210938 132.507812 C 135.171875 135.308594 138.128906 137.800781 141.554688 139.980469 C 148.246094 143.871094 159.144531 142.160156 165.371094 137.644531 C 155.875 139.515625 147.625 135.621094 139.0625 132.507812 C 147.9375 133.753906 156.65625 135.777344 166.152344 134.066406 Z M 166.152344 134.066406 " fill-opacity="1" fill-rule="nonzero"/><path fill="#6482ad" d="M 154.476562 146.363281 C 149.960938 146.675781 146.222656 148.542969 142.644531 150.878906 C 140.308594 152.433594 138.285156 154.148438 135.792969 155.238281 C 134.238281 156.015625 132.523438 156.484375 130.8125 156.636719 C 132.992188 155.394531 135.480469 154.925781 137.351562 153.214844 C 140.929688 149.945312 144.976562 147.296875 149.335938 144.808594 C 147.15625 144.960938 144.976562 145.117188 142.953125 145.429688 C 135.636719 146.519531 127.699219 151.035156 125.675781 159.75 C 125.519531 160.6875 125.832031 161.152344 126.765625 160.839844 C 129.253906 160.21875 131.746094 160.839844 134.082031 161.152344 C 140.464844 161.929688 146.222656 160.996094 149.648438 154.457031 C 149.960938 153.992188 150.425781 153.679688 150.738281 153.214844 C 151.671875 150.878906 153.851562 149.164062 154.476562 146.363281 Z M 154.476562 146.363281 " fill-opacity="1" fill-rule="nonzero"/><path fill="#6482ad" d="M 125.519531 128.773438 C 121.003906 129.082031 117.269531 130.953125 113.6875 133.285156 C 111.351562 134.84375 109.328125 136.554688 106.835938 137.644531 C 105.28125 138.425781 103.566406 138.890625 101.855469 139.046875 C 104.035156 137.800781 106.527344 137.335938 108.394531 135.621094 C 111.976562 132.351562 116.023438 129.707031 120.382812 127.214844 C 118.203125 127.371094 116.023438 127.527344 114 127.839844 C 106.683594 128.925781 98.742188 133.441406 96.71875 142.160156 C 96.5625 143.09375 96.875 143.5625 97.808594 143.25 C 100.300781 142.628906 102.789062 143.25 105.125 143.5625 C 111.507812 144.339844 117.269531 143.40625 120.691406 136.867188 C 121.003906 136.398438 121.472656 136.089844 121.78125 135.621094 C 122.5625 133.441406 124.742188 131.574219 125.519531 128.773438 Z M 125.519531 128.773438 " fill-opacity="1" fill-rule="nonzero"/><path fill="#6482ad" d="M 87.066406 127.527344 C 82.085938 128.460938 78.035156 131.261719 74.300781 134.375 C 71.964844 136.398438 69.785156 138.578125 67.140625 140.292969 C 65.425781 141.382812 63.714844 142.316406 61.691406 142.628906 C 63.871094 140.914062 66.671875 139.980469 68.539062 137.800781 C 72.121094 133.597656 76.324219 129.863281 80.839844 126.59375 C 78.347656 127.058594 76.011719 127.683594 73.679688 128.304688 C 65.582031 130.640625 57.332031 137.023438 56.398438 147.140625 C 56.242188 148.230469 56.710938 148.699219 57.800781 148.230469 C 60.445312 147.140625 63.402344 147.453125 66.207031 147.453125 C 73.679688 147.296875 79.90625 145.429688 82.707031 137.644531 C 82.863281 137.023438 83.484375 136.554688 83.640625 136.089844 C 84.574219 133.132812 86.753906 130.796875 87.066406 127.527344 Z M 87.066406 127.527344 " fill-opacity="1" fill-rule="nonzero"/><g clip-path="url(#4894cd4562)"><path fill="#6482ad" d="M 314.667969 119.121094 C 285.867188 119.277344 256.910156 119.585938 228.109375 119.585938 C 209.585938 119.585938 191.214844 120.832031 172.6875 120.367188 C 130.035156 119.277344 87.222656 118.808594 44.566406 119.277344 C 43.476562 119.277344 42.386719 118.964844 41.140625 120.519531 C 135.792969 123.789062 230.132812 123.945312 324.476562 120.210938 C 321.363281 118.964844 318.09375 119.121094 314.667969 119.121094 Z M 314.667969 119.121094 " fill-opacity="1" fill-rule="nonzero"/></g><path fill="#6482ad" d="M 221.105469 152.746094 C 216.902344 145.898438 208.804688 143.5625 202.269531 147.453125 C 206.316406 147.765625 210.050781 147.921875 213.164062 150.410156 C 216.125 152.746094 218.925781 155.238281 220.480469 158.972656 C 220.171875 158.972656 220.015625 158.972656 219.859375 158.972656 C 219.703125 158.816406 219.546875 158.664062 219.546875 158.507812 C 218.148438 155.546875 215.8125 153.679688 213.007812 152.28125 C 209.429688 150.566406 205.847656 149.789062 201.800781 150.253906 C 200.867188 150.410156 200.554688 150.722656 201.179688 151.65625 C 202.734375 154.304688 204.757812 156.484375 207.714844 157.882812 C 213.632812 160.839844 220.015625 162.867188 224.996094 167.378906 C 225.308594 167.535156 225.621094 167.691406 225.773438 167.535156 C 226.085938 167.222656 226.085938 166.757812 225.929688 166.289062 C 224.53125 161.621094 223.75 156.949219 221.105469 152.746094 Z M 221.105469 152.746094 " fill-opacity="1" fill-rule="nonzero"/><path fill="#6482ad" d="M 150.894531 165.199219 C 151.359375 164.890625 151.984375 164.578125 152.605469 164.421875 C 155.875 163.488281 159.300781 162.867188 162.570312 161.777344 C 167.394531 160.0625 169.265625 156.484375 169.886719 151.8125 C 170.355469 148.542969 169.109375 145.585938 169.574219 142.003906 C 166.929688 143.5625 165.371094 145.429688 164.28125 147.765625 C 163.816406 148.855469 163.503906 150.101562 162.882812 151.191406 C 161.636719 153.523438 160.859375 156.015625 158.367188 157.574219 C 159.613281 154.769531 160.390625 151.96875 161.167969 149.164062 C 162.257812 145.117188 164.125 141.691406 168.175781 139.359375 C 163.660156 139.515625 159.300781 141.226562 158.210938 145.742188 C 157.898438 147.453125 157.121094 149.011719 156.65625 150.722656 C 155.253906 155.546875 154.164062 160.53125 149.960938 163.957031 C 149.648438 164.109375 149.335938 164.421875 149.648438 164.890625 C 149.960938 165.355469 150.425781 165.511719 150.894531 165.199219 Z M 150.894531 165.199219 " fill-opacity="1" fill-rule="nonzero"/><path fill="#6482ad" d="M 74.613281 163.800781 C 75.078125 163.488281 75.703125 163.175781 76.324219 163.019531 C 79.59375 162.085938 83.019531 161.464844 86.289062 160.375 C 91.113281 158.664062 92.980469 155.082031 93.605469 150.410156 C 94.070312 147.140625 92.828125 144.183594 93.292969 140.601562 C 90.648438 142.160156 89.089844 144.027344 88 146.363281 C 87.535156 147.453125 87.222656 148.699219 86.597656 149.789062 C 85.355469 152.125 84.574219 154.613281 82.085938 156.171875 C 83.328125 153.367188 84.109375 150.566406 84.886719 147.765625 C 85.976562 143.71875 87.84375 140.292969 91.890625 137.957031 C 87.378906 138.113281 83.019531 139.824219 81.929688 144.339844 C 81.617188 146.050781 80.839844 147.609375 80.371094 149.320312 C 78.972656 154.148438 77.882812 159.128906 73.679688 162.554688 C 73.367188 162.710938 73.054688 163.019531 73.367188 163.488281 C 73.679688 163.957031 74.144531 164.109375 74.613281 163.800781 Z M 74.613281 163.800781 " fill-opacity="1" fill-rule="nonzero"/><path fill="#6482ad" d="M 204.449219 171.582031 C 204.292969 168.9375 204.292969 166.445312 203.511719 163.800781 C 202.269531 159.597656 197.285156 154.148438 191.058594 154.769531 C 196.976562 159.597656 198.6875 166.601562 201.488281 172.828125 C 197.753906 167.378906 195.105469 161.152344 189.96875 156.792969 C 189.96875 159.90625 190.125 162.867188 191.527344 165.824219 C 193.394531 169.714844 196.195312 172.363281 199.777344 174.542969 C 201.488281 175.632812 203.667969 176.097656 204.757812 177.964844 C 205.070312 178.433594 205.382812 178.589844 205.847656 178.121094 C 206.316406 177.808594 206.160156 177.34375 205.847656 177.03125 C 204.757812 175.632812 204.601562 173.605469 204.449219 171.582031 Z M 204.449219 171.582031 " fill-opacity="1" fill-rule="nonzero"/><path fill="#6482ad" d="M 208.496094 163.175781 C 211.140625 167.535156 214.097656 171.738281 215.96875 176.410156 C 213.007812 173.453125 210.675781 169.714844 208.027344 166.289062 C 208.339844 168.78125 208.339844 171.117188 208.804688 173.296875 C 209.273438 175.476562 209.742188 177.964844 211.453125 179.523438 C 214.097656 181.859375 216.589844 184.347656 219.703125 186.0625 C 221.105469 186.839844 221.570312 186.683594 221.882812 184.972656 C 222.816406 179.523438 221.105469 174.695312 218.304688 170.183594 C 215.96875 166.757812 212.074219 165.199219 208.496094 163.175781 Z M 208.496094 163.175781 " fill-opacity="1" fill-rule="nonzero"/><path fill="#6482ad" d="M 255.199219 144.339844 C 259.246094 147.609375 263.449219 150.410156 266.875 154.148438 C 262.980469 152.433594 259.558594 149.789062 255.820312 147.453125 C 256.910156 149.789062 257.84375 151.8125 258.933594 153.835938 C 260.023438 155.859375 261.425781 157.882812 263.605469 158.660156 C 266.875 159.90625 270.144531 161.308594 273.570312 161.929688 C 275.28125 162.242188 275.59375 161.777344 275.28125 160.21875 C 274.191406 154.769531 270.921875 150.878906 266.71875 147.609375 C 263.449219 144.960938 259.246094 144.808594 255.199219 144.339844 Z M 255.199219 144.339844 " fill-opacity="1" fill-rule="nonzero"/><path fill="#6482ad" d="M 156.65625 173.453125 C 158.523438 171.582031 160.078125 169.558594 161.949219 167.535156 C 163.660156 165.667969 165.371094 163.644531 166.929688 160.996094 C 163.816406 162.867188 160.546875 163.644531 157.898438 165.511719 C 156.1875 166.601562 154.164062 167.535156 153.386719 169.402344 C 152.140625 172.207031 151.207031 175.320312 150.117188 178.277344 C 157.898438 177.964844 171.132812 169.402344 171.445312 159.285156 C 166.773438 164.734375 161.636719 169.09375 156.65625 173.453125 Z M 156.65625 173.453125 " fill-opacity="1" fill-rule="nonzero"/><path fill="#6482ad" d="M 108.707031 160.996094 C 110.574219 159.128906 112.128906 157.105469 114 155.082031 C 115.710938 153.214844 117.421875 151.191406 118.980469 148.542969 C 115.867188 150.410156 112.597656 151.191406 109.949219 153.058594 C 108.238281 154.148438 106.214844 155.082031 105.4375 156.949219 C 104.191406 159.75 103.257812 162.867188 102.167969 165.824219 C 109.949219 165.511719 123.183594 156.949219 123.496094 146.832031 C 118.824219 152.28125 113.6875 156.636719 108.707031 160.996094 Z M 108.707031 160.996094 " fill-opacity="1" fill-rule="nonzero"/><path fill="#6482ad" d="M 196.507812 147.296875 C 196.820312 146.675781 197.128906 145.898438 196.507812 145.429688 C 196.039062 144.808594 195.261719 145.117188 194.640625 145.273438 C 193.707031 145.585938 192.773438 146.050781 191.992188 146.519531 C 188.414062 148.230469 184.832031 148.074219 181.5625 145.742188 C 180.007812 144.496094 178.449219 143.40625 177.046875 142.003906 C 176.582031 141.539062 176.113281 140.757812 175.335938 141.226562 C 174.558594 141.691406 175.023438 142.316406 175.023438 143.09375 C 175.023438 145.117188 176.890625 146.050781 177.828125 147.453125 C 180.472656 151.5 184.519531 152.125 188.257812 152.589844 C 192.460938 152.433594 194.796875 150.253906 196.507812 147.296875 Z M 196.507812 147.296875 " fill-opacity="1" fill-rule="nonzero"/><path fill="#6482ad" d="M 186.078125 129.082031 C 185.609375 127.683594 184.832031 127.371094 183.585938 128.148438 C 181.40625 129.394531 181.097656 131.417969 182.964844 133.441406 C 183.429688 133.910156 184.054688 134.21875 183.898438 135 C 183.121094 135.15625 182.808594 133.753906 182.03125 134.53125 C 181.40625 135.15625 181.875 135.933594 182.03125 136.710938 C 182.03125 136.710938 182.03125 136.867188 182.183594 136.867188 C 183.273438 139.203125 185.300781 140.601562 187.480469 141.691406 C 189.8125 142.78125 192.148438 140.914062 192.148438 138.269531 C 192.148438 137.335938 192.148438 136.398438 192.148438 135.464844 C 192.148438 134.6875 192.148438 134.066406 192.148438 133.285156 C 193.550781 136.246094 193.863281 139.203125 192.773438 142.160156 C 192.617188 142.472656 192.148438 142.9375 192.460938 143.25 C 192.773438 143.71875 193.394531 143.5625 193.863281 143.40625 C 197.285156 142.628906 199.933594 139.203125 197.753906 135.308594 C 196.976562 134.066406 196.039062 132.976562 194.949219 131.886719 C 192.773438 129.394531 192.773438 129.394531 191.371094 132.042969 C 190.746094 130.796875 189.8125 130.015625 188.257812 129.394531 C 188.878906 131.105469 189.191406 132.507812 187.945312 134.066406 C 186.855469 132.351562 186.542969 130.640625 186.078125 129.082031 Z M 186.078125 129.082031 " fill-opacity="1" fill-rule="nonzero"/><path fill="#6482ad" d="M 177.515625 135 C 176.738281 136.398438 176.113281 138.113281 177.203125 139.515625 C 179.851562 143.25 183.121094 146.207031 188.257812 146.363281 C 188.722656 146.519531 189.191406 146.207031 189.8125 146.050781 C 190.4375 145.898438 191.058594 145.585938 191.058594 144.808594 C 191.058594 144.027344 190.4375 143.871094 189.8125 143.71875 C 189.035156 143.5625 188.414062 143.25 187.789062 142.78125 C 184.519531 140.914062 181.71875 138.734375 180.007812 135.308594 C 179.382812 134.21875 177.980469 134.066406 177.515625 135 Z M 177.515625 135 " fill-opacity="1" fill-rule="nonzero"/><path fill="#6482ad" d="M 180.785156 126.125 C 177.046875 125.96875 173.933594 128.925781 173.777344 133.441406 C 173.933594 134.6875 174.246094 136.398438 174.714844 137.957031 C 174.714844 138.269531 175.023438 138.578125 175.335938 138.578125 C 175.648438 138.578125 175.800781 138.269531 175.800781 137.957031 C 175.957031 137.488281 175.957031 136.867188 175.957031 136.246094 C 175.800781 135 176.269531 133.441406 177.046875 133.285156 C 180.941406 132.820312 180.941406 129.863281 181.25 127.214844 C 181.25 127.058594 181.40625 127.058594 181.40625 126.902344 C 181.5625 126.4375 181.40625 126.125 180.785156 126.125 Z M 180.785156 126.125 " fill-opacity="1" fill-rule="nonzero"/><path fill="#6482ad" d="M 191.058594 126.28125 C 190.28125 126.4375 189.503906 126.75 189.503906 127.683594 C 189.503906 128.617188 190.4375 128.617188 191.214844 128.773438 C 194.015625 128.925781 196.195312 130.328125 198.066406 132.351562 C 198.6875 132.976562 199.308594 133.597656 200.089844 134.375 C 200.398438 134.6875 200.710938 134.84375 201.023438 134.6875 C 201.488281 134.53125 201.488281 134.066406 201.488281 133.597656 C 200.554688 128.773438 197.285156 124.722656 191.058594 126.28125 Z M 191.058594 126.28125 " fill-opacity="1" fill-rule="nonzero"/><path fill="#6482ad" d="M 197.441406 143.71875 C 196.820312 144.027344 196.976562 144.808594 197.753906 144.960938 C 198.21875 145.117188 198.84375 145.117188 198.84375 145.117188 C 201.179688 145.273438 202.421875 144.496094 203.203125 142.9375 C 204.449219 140.601562 203.511719 138.734375 202.269531 136.867188 C 201.800781 136.089844 201.023438 135.308594 199.933594 135.621094 C 199 135.933594 199.308594 137.023438 199.15625 137.957031 C 199.15625 138.269531 199.15625 138.734375 199.15625 139.046875 C 199.15625 140.757812 199.15625 142.472656 197.441406 143.71875 Z M 197.441406 143.71875 " fill-opacity="1" fill-rule="nonzero"/><path fill="#6482ad" d="M 224.839844 131.574219 C 218.304688 130.328125 212.074219 132.042969 206.003906 134.066406 C 205.539062 134.21875 204.757812 134.21875 205.226562 135.15625 C 206.625 137.488281 208.496094 139.359375 211.296875 140.292969 C 215.34375 141.539062 219.238281 140.757812 223.128906 139.824219 C 229.042969 138.425781 234.804688 136.398438 241.03125 137.335938 C 241.65625 137.488281 242.277344 137.335938 242.433594 136.867188 C 242.746094 136.246094 242.121094 135.933594 241.808594 135.464844 C 239.785156 133.285156 236.984375 132.195312 234.335938 130.796875 C 226.710938 126.59375 218.457031 125.660156 209.894531 127.214844 C 207.40625 127.683594 205.070312 129.707031 204.601562 131.730469 C 208.496094 130.328125 212.386719 130.171875 216.277344 129.863281 C 220.015625 129.707031 223.75 130.015625 227.332031 131.261719 C 229.199219 131.574219 230.757812 132.664062 232.15625 133.910156 C 230.132812 133.132812 228.109375 132.351562 226.242188 131.730469 C 225.773438 131.730469 225.308594 131.730469 224.839844 131.574219 Z M 224.839844 131.574219 " fill-opacity="1" fill-rule="nonzero"/><path fill="#6482ad" d="M 175.023438 149.789062 C 177.671875 154.613281 179.382812 159.285156 177.980469 164.421875 C 177.828125 165.824219 176.890625 166.601562 175.800781 167.222656 C 177.359375 165.042969 177.515625 162.710938 177.359375 160.21875 C 176.890625 156.484375 175.023438 153.367188 173.777344 151.65625 C 175.179688 158.195312 173.777344 164.265625 170.355469 170.027344 C 169.886719 170.960938 168.332031 171.582031 168.640625 172.363281 C 169.109375 173.296875 170.664062 172.828125 171.597656 173.140625 C 179.382812 174.695312 184.988281 168.003906 184.210938 161.929688 C 183.429688 156.328125 180.160156 152.589844 175.023438 149.789062 Z M 175.023438 149.789062 " fill-opacity="1" fill-rule="nonzero"/><path fill="#6482ad" d="M 234.183594 46.710938 C 230.289062 46.242188 226.554688 45.152344 222.660156 43.441406 C 229.824219 40.792969 237.296875 40.949219 244.300781 38.148438 C 243.523438 37.523438 242.898438 37.992188 242.433594 37.992188 C 240.410156 38.457031 238.230469 38.769531 236.207031 38.769531 C 230.914062 38.457031 225.621094 38.613281 220.328125 41.417969 C 222.660156 36.589844 226.398438 33.789062 230.914062 32.386719 C 236.363281 30.519531 241.964844 31.140625 247.570312 32.386719 C 249.75 32.855469 251.929688 33.789062 253.796875 31.609375 C 255.355469 33.164062 253.796875 34.253906 253.484375 35.34375 C 250.996094 42.972656 241.1875 47.488281 234.183594 46.710938 Z M 234.183594 46.710938 " fill-opacity="1" fill-rule="nonzero"/><path fill="#6482ad" d="M 262.203125 61.03125 C 258.3125 60.566406 254.574219 59.476562 250.683594 57.761719 C 257.84375 55.117188 265.316406 55.273438 272.324219 52.46875 C 271.542969 51.847656 270.921875 52.3125 270.453125 52.3125 C 268.429688 52.78125 266.25 53.09375 264.226562 53.09375 C 258.933594 52.78125 253.640625 52.9375 248.347656 55.738281 C 250.683594 50.914062 254.421875 48.109375 258.933594 46.710938 C 264.382812 44.839844 269.988281 45.464844 275.59375 46.710938 C 277.773438 47.175781 279.953125 48.109375 281.820312 45.929688 C 283.375 47.488281 281.820312 48.578125 281.507812 49.667969 C 279.015625 57.296875 269.210938 61.808594 262.203125 61.03125 Z M 262.203125 61.03125 " fill-opacity="1" fill-rule="nonzero"/><path fill="#6482ad" d="M 297.230469 61.5 C 293.496094 62.589844 289.601562 63.054688 285.246094 63.054688 C 290.691406 57.917969 297.855469 55.117188 303.148438 49.667969 C 302.058594 49.511719 301.902344 49.976562 301.433594 50.289062 C 299.722656 51.535156 297.855469 52.78125 295.984375 53.402344 C 291.003906 55.269531 286.179688 57.449219 282.441406 61.964844 C 282.753906 56.515625 285.089844 52.625 288.511719 49.511719 C 292.871094 45.773438 298.164062 43.90625 303.769531 42.972656 C 305.949219 42.660156 308.285156 42.660156 309.21875 39.703125 C 311.242188 40.480469 310.308594 42.195312 310.308594 43.285156 C 311.242188 51.535156 304.082031 59.476562 297.230469 61.5 Z M 297.230469 61.5 " fill-opacity="1" fill-rule="nonzero"/><path fill="#6482ad" d="M 166.152344 52.9375 C 165.527344 53.402344 165.214844 53.714844 164.90625 53.871094 C 160.859375 56.515625 156.34375 57.917969 151.828125 59.476562 C 149.335938 60.410156 146.847656 61.652344 144.199219 61.1875 C 139.996094 60.410156 136.105469 58.851562 132.367188 56.671875 C 131.125 55.894531 131.433594 55.269531 132.210938 54.492188 C 135.171875 51.691406 138.128906 49.199219 141.554688 47.019531 C 148.246094 43.128906 159.144531 44.839844 165.371094 49.355469 C 155.875 47.488281 147.625 51.378906 139.0625 54.492188 C 147.9375 53.246094 156.65625 51.222656 166.152344 52.9375 Z M 166.152344 52.9375 " fill-opacity="1" fill-rule="nonzero"/><path fill="#6482ad" d="M 154.476562 40.636719 C 149.960938 40.328125 146.222656 38.457031 142.644531 36.125 C 140.308594 34.566406 138.285156 32.855469 135.792969 31.765625 C 134.238281 30.984375 132.523438 30.519531 130.8125 30.363281 C 132.992188 31.609375 135.480469 32.074219 137.351562 33.789062 C 140.929688 37.058594 144.976562 39.703125 149.335938 42.195312 C 147.15625 42.039062 144.976562 41.882812 142.953125 41.570312 C 135.636719 40.480469 127.699219 35.96875 125.675781 27.25 C 125.519531 26.316406 125.832031 25.847656 126.765625 26.160156 C 129.253906 26.78125 131.746094 26.160156 134.082031 25.847656 C 140.464844 25.070312 146.222656 26.003906 149.648438 32.542969 C 149.960938 33.007812 150.425781 33.320312 150.738281 33.789062 C 151.671875 36.125 153.851562 37.835938 154.476562 40.636719 Z M 154.476562 40.636719 " fill-opacity="1" fill-rule="nonzero"/><path fill="#6482ad" d="M 125.519531 58.230469 C 121.003906 57.917969 117.269531 56.050781 113.6875 53.714844 C 111.351562 52.15625 109.328125 50.445312 106.835938 49.355469 C 105.28125 48.578125 103.566406 48.109375 101.855469 47.953125 C 104.035156 49.199219 106.527344 49.667969 108.394531 51.378906 C 111.976562 54.648438 116.023438 57.296875 120.382812 59.785156 C 118.203125 59.628906 116.023438 59.476562 114 59.164062 C 106.683594 58.074219 98.742188 53.558594 96.71875 44.839844 C 96.5625 43.90625 96.875 43.441406 97.808594 43.75 C 100.300781 44.375 102.789062 43.75 105.125 43.441406 C 111.507812 42.660156 117.269531 43.59375 120.691406 50.132812 C 121.003906 50.601562 121.472656 50.914062 121.78125 51.378906 C 122.5625 53.558594 124.742188 55.425781 125.519531 58.230469 Z M 125.519531 58.230469 " fill-opacity="1" fill-rule="nonzero"/><path fill="#6482ad" d="M 87.066406 59.476562 C 82.085938 58.539062 78.035156 55.738281 74.300781 52.625 C 71.964844 50.601562 69.785156 48.421875 67.140625 46.710938 C 65.425781 45.621094 63.714844 44.683594 61.691406 44.375 C 63.871094 46.085938 66.671875 47.019531 68.539062 49.199219 C 72.121094 53.402344 76.324219 57.140625 80.839844 60.410156 C 78.347656 59.941406 76.011719 59.320312 73.679688 58.695312 C 65.582031 56.359375 57.332031 49.976562 56.398438 39.859375 C 56.242188 38.769531 56.710938 38.300781 57.800781 38.769531 C 60.445312 39.859375 63.402344 39.546875 66.207031 39.546875 C 73.679688 39.703125 79.90625 41.570312 82.707031 49.355469 C 82.863281 49.976562 83.484375 50.445312 83.640625 50.914062 C 84.574219 53.871094 86.753906 56.207031 87.066406 59.476562 Z M 87.066406 59.476562 " fill-opacity="1" fill-rule="nonzero"/><g clip-path="url(#dd4e8fe6b2)"><path fill="#6482ad" d="M 314.667969 67.882812 C 285.867188 67.726562 256.910156 67.414062 228.109375 67.414062 C 209.585938 67.414062 191.214844 66.167969 172.6875 66.636719 C 130.035156 67.726562 87.222656 68.191406 44.566406 67.726562 C 43.476562 67.726562 42.386719 68.035156 41.140625 66.480469 C 135.792969 63.210938 230.132812 63.054688 324.476562 66.792969 C 321.363281 68.035156 318.09375 67.882812 314.667969 67.882812 Z M 314.667969 67.882812 " fill-opacity="1" fill-rule="nonzero"/></g><path fill="#6482ad" d="M 221.105469 34.253906 C 216.902344 41.105469 208.804688 43.441406 202.269531 39.546875 C 206.316406 39.238281 210.050781 39.082031 213.164062 36.589844 C 216.125 34.253906 218.925781 31.765625 220.480469 28.027344 C 220.171875 28.027344 220.015625 28.027344 219.859375 28.027344 C 219.703125 28.183594 219.546875 28.339844 219.546875 28.496094 C 218.148438 31.453125 215.8125 33.320312 213.007812 34.722656 C 209.429688 36.433594 205.847656 37.210938 201.800781 36.746094 C 200.867188 36.589844 200.554688 36.277344 201.179688 35.34375 C 202.734375 32.699219 204.757812 30.519531 207.714844 29.117188 C 213.632812 26.160156 220.015625 24.136719 224.996094 19.621094 C 225.308594 19.464844 225.621094 19.308594 225.773438 19.464844 C 226.085938 19.777344 226.085938 20.242188 225.929688 20.710938 C 224.53125 25.382812 223.75 30.050781 221.105469 34.253906 Z M 221.105469 34.253906 " fill-opacity="1" fill-rule="nonzero"/><path fill="#6482ad" d="M 150.894531 21.800781 C 151.359375 22.113281 151.984375 22.421875 152.605469 22.578125 C 155.875 23.511719 159.300781 24.136719 162.570312 25.226562 C 167.394531 26.9375 169.265625 30.519531 169.886719 35.1875 C 170.355469 38.457031 169.109375 41.417969 169.574219 44.996094 C 166.929688 43.441406 165.371094 41.570312 164.28125 39.238281 C 163.816406 38.148438 163.503906 36.902344 162.882812 35.8125 C 161.636719 33.476562 160.859375 30.984375 158.367188 29.429688 C 159.613281 32.230469 160.390625 35.035156 161.167969 37.835938 C 162.257812 41.882812 164.125 45.308594 168.175781 47.644531 C 163.660156 47.488281 159.300781 45.773438 158.210938 41.261719 C 157.898438 39.546875 157.121094 37.992188 156.65625 36.277344 C 155.253906 31.453125 154.164062 26.472656 149.960938 23.046875 C 149.648438 22.890625 149.335938 22.578125 149.648438 22.113281 C 149.960938 21.644531 150.425781 21.488281 150.894531 21.800781 Z M 150.894531 21.800781 " fill-opacity="1" fill-rule="nonzero"/><path fill="#6482ad" d="M 74.613281 23.203125 C 75.078125 23.511719 75.703125 23.824219 76.324219 23.980469 C 79.59375 24.914062 83.019531 25.535156 86.289062 26.625 C 91.113281 28.339844 92.980469 31.917969 93.605469 36.589844 C 94.070312 39.859375 92.828125 42.816406 93.292969 46.398438 C 90.648438 44.839844 89.089844 42.972656 88 40.636719 C 87.535156 39.546875 87.222656 38.300781 86.597656 37.210938 C 85.355469 34.878906 84.574219 32.386719 82.085938 30.828125 C 83.328125 33.632812 84.109375 36.433594 84.886719 39.238281 C 85.976562 43.285156 87.84375 46.710938 91.890625 49.042969 C 87.378906 48.890625 83.019531 47.175781 81.929688 42.660156 C 81.617188 40.949219 80.839844 39.390625 80.371094 37.679688 C 78.972656 32.855469 77.882812 27.871094 73.679688 24.449219 C 73.367188 24.292969 73.054688 23.980469 73.367188 23.511719 C 73.679688 23.046875 74.144531 22.890625 74.613281 23.203125 Z M 74.613281 23.203125 " fill-opacity="1" fill-rule="nonzero"/><path fill="#6482ad" d="M 204.449219 15.417969 C 204.292969 18.066406 204.292969 20.554688 203.511719 23.203125 C 202.269531 27.40625 197.285156 32.855469 191.058594 32.230469 C 196.976562 27.40625 198.6875 20.398438 201.488281 14.171875 C 197.753906 19.621094 195.105469 25.847656 189.96875 30.207031 C 189.96875 27.09375 190.125 24.136719 191.527344 21.179688 C 193.394531 17.285156 196.195312 14.640625 199.777344 12.460938 C 201.488281 11.371094 203.667969 10.902344 204.757812 9.035156 C 205.070312 8.566406 205.382812 8.414062 205.847656 8.878906 C 206.316406 9.191406 206.160156 9.65625 205.847656 9.96875 C 204.757812 11.371094 204.601562 13.394531 204.449219 15.417969 Z M 204.449219 15.417969 " fill-opacity="1" fill-rule="nonzero"/><path fill="#6482ad" d="M 208.496094 23.824219 C 211.140625 19.464844 214.097656 15.261719 215.96875 10.59375 C 213.007812 13.550781 210.675781 17.285156 208.027344 20.710938 C 208.339844 18.21875 208.339844 15.886719 208.804688 13.707031 C 209.273438 11.527344 209.742188 9.035156 211.453125 7.476562 C 214.097656 5.144531 216.589844 2.652344 219.703125 0.941406 C 221.105469 0.160156 221.570312 0.316406 221.882812 2.03125 C 222.816406 7.476562 221.105469 12.304688 218.304688 16.820312 C 215.96875 20.242188 212.074219 21.800781 208.496094 23.824219 Z M 208.496094 23.824219 " fill-opacity="1" fill-rule="nonzero"/><path fill="#6482ad" d="M 255.199219 42.660156 C 259.246094 39.390625 263.449219 36.589844 266.875 32.855469 C 262.980469 34.566406 259.558594 37.210938 255.820312 39.546875 C 256.910156 37.210938 257.84375 35.1875 258.933594 33.164062 C 260.023438 31.140625 261.425781 29.117188 263.605469 28.339844 C 266.875 27.09375 270.144531 25.691406 273.570312 25.070312 C 275.28125 24.757812 275.59375 25.226562 275.28125 26.78125 C 274.191406 32.230469 270.921875 36.125 266.71875 39.390625 C 263.449219 42.039062 259.246094 42.195312 255.199219 42.660156 Z M 255.199219 42.660156 " fill-opacity="1" fill-rule="nonzero"/><path fill="#6482ad" d="M 156.65625 13.550781 C 158.523438 15.417969 160.078125 17.441406 161.949219 19.464844 C 163.660156 21.332031 165.371094 23.359375 166.929688 26.003906 C 163.816406 24.136719 160.546875 23.359375 157.898438 21.488281 C 156.1875 20.398438 154.164062 19.464844 153.386719 17.597656 C 152.140625 14.796875 151.207031 11.683594 150.117188 8.722656 C 157.898438 9.035156 171.132812 17.597656 171.445312 27.714844 C 166.773438 22.269531 161.636719 17.910156 156.65625 13.550781 Z M 156.65625 13.550781 " fill-opacity="1" fill-rule="nonzero"/><path fill="#6482ad" d="M 108.707031 26.003906 C 110.574219 27.871094 112.128906 29.894531 114 31.917969 C 115.710938 33.789062 117.421875 35.8125 118.980469 38.457031 C 115.867188 36.589844 112.597656 35.8125 109.949219 33.945312 C 108.238281 32.855469 106.214844 31.917969 105.4375 30.050781 C 104.191406 27.25 103.257812 24.136719 102.167969 21.179688 C 109.949219 21.488281 123.183594 30.050781 123.496094 40.171875 C 118.824219 34.722656 113.6875 30.363281 108.707031 26.003906 Z M 108.707031 26.003906 " fill-opacity="1" fill-rule="nonzero"/><path fill="#6482ad" d="M 196.507812 39.703125 C 196.820312 40.328125 197.128906 41.105469 196.507812 41.570312 C 196.039062 42.195312 195.261719 41.882812 194.640625 41.726562 C 193.707031 41.417969 192.773438 40.949219 191.992188 40.480469 C 188.414062 38.769531 184.832031 38.925781 181.5625 41.261719 C 180.007812 42.507812 178.449219 43.59375 177.046875 44.996094 C 176.582031 45.464844 176.113281 46.242188 175.335938 45.773438 C 174.558594 45.308594 175.023438 44.683594 175.023438 43.90625 C 175.023438 41.882812 176.890625 40.949219 177.828125 39.546875 C 180.472656 35.5 184.519531 34.878906 188.257812 34.410156 C 192.460938 34.566406 194.796875 36.746094 196.507812 39.703125 Z M 196.507812 39.703125 " fill-opacity="1" fill-rule="nonzero"/><path fill="#6482ad" d="M 186.078125 57.917969 C 185.609375 59.320312 184.832031 59.628906 183.585938 58.851562 C 181.40625 57.605469 181.097656 55.582031 182.964844 53.558594 C 183.429688 53.09375 184.054688 52.78125 183.898438 52.003906 C 183.121094 51.847656 182.808594 53.246094 182.03125 52.46875 C 181.40625 51.847656 181.875 51.066406 182.03125 50.289062 C 182.03125 50.289062 182.03125 50.132812 182.183594 50.132812 C 183.273438 47.800781 185.300781 46.398438 187.480469 45.308594 C 189.8125 44.21875 192.148438 46.085938 192.148438 48.734375 C 192.148438 49.667969 192.148438 50.601562 192.148438 51.535156 C 192.148438 52.3125 192.148438 52.9375 192.148438 53.714844 C 193.550781 50.757812 193.863281 47.800781 192.773438 44.839844 C 192.617188 44.53125 192.148438 44.0625 192.460938 43.75 C 192.773438 43.285156 193.394531 43.441406 193.863281 43.59375 C 197.285156 44.375 199.933594 47.800781 197.753906 51.691406 C 196.976562 52.9375 196.039062 54.027344 194.949219 55.117188 C 192.773438 57.605469 192.773438 57.605469 191.371094 54.960938 C 190.746094 56.207031 189.8125 56.984375 188.257812 57.605469 C 188.878906 55.894531 189.191406 54.492188 187.945312 52.9375 C 186.855469 54.648438 186.542969 56.359375 186.078125 57.917969 Z M 186.078125 57.917969 " fill-opacity="1" fill-rule="nonzero"/><path fill="#6482ad" d="M 177.515625 52.003906 C 176.738281 50.601562 176.113281 48.890625 177.203125 47.488281 C 179.851562 43.75 183.121094 40.792969 188.257812 40.636719 C 188.722656 40.480469 189.191406 40.792969 189.8125 40.949219 C 190.4375 41.105469 191.058594 41.417969 191.058594 42.195312 C 191.058594 42.972656 190.4375 43.128906 189.8125 43.285156 C 189.035156 43.441406 188.414062 43.75 187.789062 44.21875 C 184.519531 46.085938 181.71875 48.265625 180.007812 51.691406 C 179.382812 52.78125 177.980469 52.9375 177.515625 52.003906 Z M 177.515625 52.003906 " fill-opacity="1" fill-rule="nonzero"/><path fill="#6482ad" d="M 180.785156 60.875 C 177.046875 61.03125 173.933594 58.074219 173.777344 53.558594 C 173.933594 52.3125 174.246094 50.601562 174.714844 49.042969 C 174.714844 48.734375 175.023438 48.421875 175.335938 48.421875 C 175.648438 48.421875 175.800781 48.734375 175.800781 49.042969 C 175.957031 49.511719 175.957031 50.132812 175.957031 50.757812 C 175.800781 52.003906 176.269531 53.558594 177.046875 53.714844 C 180.941406 54.183594 180.941406 57.140625 181.25 59.785156 C 181.25 59.941406 181.40625 59.941406 181.40625 60.097656 C 181.5625 60.566406 181.40625 60.875 180.785156 60.875 Z M 180.785156 60.875 " fill-opacity="1" fill-rule="nonzero"/><path fill="#6482ad" d="M 191.058594 60.71875 C 190.28125 60.566406 189.503906 60.253906 189.503906 59.320312 C 189.503906 58.386719 190.4375 58.386719 191.214844 58.230469 C 194.015625 58.074219 196.195312 56.671875 198.066406 54.648438 C 198.6875 54.027344 199.308594 53.402344 200.089844 52.625 C 200.398438 52.3125 200.710938 52.15625 201.023438 52.3125 C 201.488281 52.46875 201.488281 52.9375 201.488281 53.402344 C 200.554688 58.230469 197.285156 62.277344 191.058594 60.71875 Z M 191.058594 60.71875 " fill-opacity="1" fill-rule="nonzero"/><path fill="#6482ad" d="M 197.441406 43.285156 C 196.820312 42.972656 196.976562 42.195312 197.753906 42.039062 C 198.21875 41.882812 198.84375 41.882812 198.84375 41.882812 C 201.179688 41.726562 202.421875 42.507812 203.203125 44.0625 C 204.449219 46.398438 203.511719 48.265625 202.269531 50.132812 C 201.800781 50.914062 201.023438 51.691406 199.933594 51.378906 C 199 51.066406 199.308594 49.976562 199.15625 49.042969 C 199.15625 48.734375 199.15625 48.265625 199.15625 47.953125 C 199.15625 46.242188 199.15625 44.53125 197.441406 43.285156 Z M 197.441406 43.285156 " fill-opacity="1" fill-rule="nonzero"/><path fill="#6482ad" d="M 224.839844 55.425781 C 218.304688 56.671875 212.074219 54.960938 206.003906 52.9375 C 205.539062 52.78125 204.757812 52.78125 205.226562 51.847656 C 206.625 49.511719 208.496094 47.644531 211.296875 46.710938 C 215.34375 45.464844 219.238281 46.242188 223.128906 47.175781 C 229.042969 48.578125 234.804688 50.601562 241.03125 49.667969 C 241.65625 49.511719 242.277344 49.667969 242.433594 50.132812 C 242.746094 50.757812 242.121094 51.066406 241.808594 51.535156 C 239.785156 53.714844 236.984375 54.804688 234.335938 56.207031 C 226.710938 60.410156 218.457031 61.34375 209.894531 59.785156 C 207.40625 59.320312 205.070312 57.296875 204.601562 55.273438 C 208.496094 56.671875 212.386719 56.828125 216.277344 57.140625 C 220.015625 57.296875 223.75 56.984375 227.332031 55.738281 C 229.199219 55.425781 230.757812 54.335938 232.15625 53.09375 C 230.132812 53.871094 228.109375 54.648438 226.242188 55.273438 C 225.773438 55.269531 225.308594 55.269531 224.839844 55.425781 Z M 224.839844 55.425781 " fill-opacity="1" fill-rule="nonzero"/><path fill="#6482ad" d="M 175.023438 37.210938 C 177.671875 32.386719 179.382812 27.714844 177.980469 22.578125 C 177.828125 21.179688 176.890625 20.398438 175.800781 19.777344 C 177.359375 21.957031 177.515625 24.292969 177.359375 26.78125 C 176.890625 30.519531 175.023438 33.632812 173.777344 35.34375 C 175.179688 28.804688 173.777344 22.734375 170.355469 16.976562 C 169.886719 16.039062 168.332031 15.417969 168.640625 14.640625 C 169.109375 13.707031 170.664062 14.171875 171.597656 13.859375 C 179.382812 12.304688 184.988281 19 184.210938 25.070312 C 183.429688 30.675781 180.160156 34.410156 175.023438 37.210938 Z M 175.023438 37.210938 " fill-opacity="1" fill-rule="nonzero"/><path fill="#eaeff5" d="M 75.574219 70.570312 L 290.015625 70.570312 C 296.148438 70.570312 301.121094 75.542969 301.121094 81.675781 L 301.121094 103.886719 C 301.121094 110.019531 296.148438 114.992188 290.015625 114.992188 L 75.574219 114.992188 C 69.441406 114.992188 64.46875 110.019531 64.46875 103.886719 L 64.46875 81.675781 C 64.46875 75.542969 69.441406 70.570312 75.574219 70.570312 Z M 75.574219 70.570312 " fill-opacity="1" fill-rule="nonzero"/><g fill="#6482ad" fill-opacity="1"><g transform="translate(78.936411, 99.27917)"><g><path d="M 14.203125 -13.6875 L 13.75 -13.6875 C 13.707031 -13.925781 13.585938 -14.070312 13.390625 -14.125 C 13.203125 -14.175781 12.957031 -14.203125 12.65625 -14.203125 L 5.71875 -14.203125 L 5.71875 -10.03125 L 9.875 -10.03125 C 10.144531 -10.03125 10.375 -10.054688 10.5625 -10.109375 C 10.757812 -10.160156 10.878906 -10.328125 10.921875 -10.609375 L 11.375 -10.609375 L 11.375 -6.8125 L 10.921875 -6.8125 C 10.878906 -7.050781 10.765625 -7.195312 10.578125 -7.25 C 10.398438 -7.300781 10.164062 -7.328125 9.875 -7.328125 L 5.71875 -7.328125 L 5.71875 -2.703125 L 13.140625 -2.703125 C 13.421875 -2.703125 13.65625 -2.726562 13.84375 -2.78125 C 14.039062 -2.832031 14.160156 -3 14.203125 -3.28125 L 14.65625 -3.28125 L 14.65625 0.578125 L 14.203125 0.578125 C 14.160156 0.296875 14.039062 0.128906 13.84375 0.078125 C 13.65625 0.0234375 13.421875 0 13.140625 0 L 1.484375 0 L 1.484375 -0.453125 C 1.929688 -0.492188 2.210938 -0.578125 2.328125 -0.703125 C 2.441406 -0.835938 2.5 -1.039062 2.5 -1.3125 L 2.5 -15.59375 C 2.5 -15.863281 2.441406 -16.0625 2.328125 -16.1875 C 2.210938 -16.320312 1.910156 -16.410156 1.421875 -16.453125 L 1.421875 -16.90625 L 12.703125 -16.90625 C 12.972656 -16.90625 13.203125 -16.929688 13.390625 -16.984375 C 13.585938 -17.035156 13.707031 -17.203125 13.75 -17.484375 L 14.203125 -17.484375 Z M 14.203125 -13.6875 "/></g></g></g><g fill="#6482ad" fill-opacity="1"><g transform="translate(98.222039, 99.27917)"><g><path d="M 6.453125 -16.90625 L 6.453125 -16.453125 C 5.984375 -16.410156 5.6875 -16.328125 5.5625 -16.203125 C 5.4375 -16.085938 5.375 -15.882812 5.375 -15.59375 L 5.375 -2.703125 L 12.46875 -2.703125 C 12.8125 -2.703125 13.0625 -2.742188 13.21875 -2.828125 C 13.382812 -2.910156 13.488281 -3.125 13.53125 -3.46875 L 13.984375 -3.46875 L 13.984375 0.578125 L 13.53125 0.578125 C 13.488281 0.296875 13.367188 0.128906 13.171875 0.078125 C 12.984375 0.0234375 12.75 0 12.46875 0 L 1.25 0 L 1.25 -0.453125 C 1.632812 -0.492188 1.878906 -0.578125 1.984375 -0.703125 C 2.097656 -0.835938 2.15625 -1.03125 2.15625 -1.28125 L 2.15625 -15.59375 C 2.15625 -15.882812 2.09375 -16.085938 1.96875 -16.203125 C 1.851562 -16.328125 1.59375 -16.410156 1.1875 -16.453125 L 1.1875 -16.90625 Z M 6.453125 -16.90625 "/></g></g></g><g fill="#6482ad" fill-opacity="1"><g transform="translate(115.707767, 99.27917)"><g><path d="M 7.171875 -16.90625 L 7.171875 -16.453125 C 6.691406 -16.410156 6.390625 -16.328125 6.265625 -16.203125 C 6.140625 -16.085938 6.078125 -15.894531 6.078125 -15.625 L 6.078125 -1.28125 C 6.078125 -1.007812 6.140625 -0.8125 6.265625 -0.6875 C 6.390625 -0.570312 6.691406 -0.492188 7.171875 -0.453125 L 7.171875 0 L 1.765625 0 L 1.765625 -0.453125 C 2.234375 -0.492188 2.53125 -0.570312 2.65625 -0.6875 C 2.789062 -0.8125 2.859375 -1.007812 2.859375 -1.28125 L 2.859375 -15.625 C 2.859375 -15.894531 2.789062 -16.085938 2.65625 -16.203125 C 2.53125 -16.328125 2.234375 -16.410156 1.765625 -16.453125 L 1.765625 -16.90625 Z M 7.171875 -16.90625 "/></g></g></g><g fill="#6482ad" fill-opacity="1"><g transform="translate(127.858101, 99.27917)"><g><path d="M 1.03125 -17.484375 L 1.484375 -17.484375 C 1.523438 -17.203125 1.640625 -17.035156 1.828125 -16.984375 C 2.023438 -16.929688 2.273438 -16.90625 2.578125 -16.90625 L 13.5 -16.90625 C 13.800781 -16.90625 14.046875 -16.929688 14.234375 -16.984375 C 14.429688 -17.035156 14.550781 -17.203125 14.59375 -17.484375 L 15.046875 -17.484375 L 15.046875 -13.46875 L 14.59375 -13.46875 C 14.550781 -13.769531 14.453125 -13.96875 14.296875 -14.0625 C 14.148438 -14.15625 13.882812 -14.203125 13.5 -14.203125 L 9.640625 -14.203125 L 9.640625 -1.28125 C 9.640625 -1.007812 9.691406 -0.8125 9.796875 -0.6875 C 9.910156 -0.570312 10.113281 -0.492188 10.40625 -0.453125 L 10.40625 0 L 5.78125 0 L 5.78125 -0.453125 C 6.039062 -0.492188 6.210938 -0.578125 6.296875 -0.703125 C 6.378906 -0.835938 6.421875 -1.03125 6.421875 -1.28125 L 6.421875 -14.203125 L 2.578125 -14.203125 C 2.234375 -14.203125 1.972656 -14.164062 1.796875 -14.09375 C 1.628906 -14.019531 1.523438 -13.8125 1.484375 -13.46875 L 1.03125 -13.46875 Z M 1.03125 -17.484375 "/></g></g></g><g fill="#6482ad" fill-opacity="1"><g transform="translate(147.143727, 99.27917)"><g><path d="M 14.203125 -13.6875 L 13.75 -13.6875 C 13.707031 -13.925781 13.585938 -14.070312 13.390625 -14.125 C 13.203125 -14.175781 12.957031 -14.203125 12.65625 -14.203125 L 5.71875 -14.203125 L 5.71875 -10.03125 L 9.875 -10.03125 C 10.144531 -10.03125 10.375 -10.054688 10.5625 -10.109375 C 10.757812 -10.160156 10.878906 -10.328125 10.921875 -10.609375 L 11.375 -10.609375 L 11.375 -6.8125 L 10.921875 -6.8125 C 10.878906 -7.050781 10.765625 -7.195312 10.578125 -7.25 C 10.398438 -7.300781 10.164062 -7.328125 9.875 -7.328125 L 5.71875 -7.328125 L 5.71875 -2.703125 L 13.140625 -2.703125 C 13.421875 -2.703125 13.65625 -2.726562 13.84375 -2.78125 C 14.039062 -2.832031 14.160156 -3 14.203125 -3.28125 L 14.65625 -3.28125 L 14.65625 0.578125 L 14.203125 0.578125 C 14.160156 0.296875 14.039062 0.128906 13.84375 0.078125 C 13.65625 0.0234375 13.421875 0 13.140625 0 L 1.484375 0 L 1.484375 -0.453125 C 1.929688 -0.492188 2.210938 -0.578125 2.328125 -0.703125 C 2.441406 -0.835938 2.5 -1.039062 2.5 -1.3125 L 2.5 -15.59375 C 2.5 -15.863281 2.441406 -16.0625 2.328125 -16.1875 C 2.210938 -16.320312 1.910156 -16.410156 1.421875 -16.453125 L 1.421875 -16.90625 L 12.703125 -16.90625 C 12.972656 -16.90625 13.203125 -16.929688 13.390625 -16.984375 C 13.585938 -17.035156 13.707031 -17.203125 13.75 -17.484375 L 14.203125 -17.484375 Z M 14.203125 -13.6875 "/></g></g></g><g fill="#6482ad" fill-opacity="1"><g transform="translate(166.429354, 99.27917)"><g/></g></g><g fill="#6482ad" fill-opacity="1"><g transform="translate(177.67974, 99.27917)"><g><path d="M 13.75 -13.625 L 13.3125 -13.625 C 13.257812 -13.882812 13.15625 -14.046875 13 -14.109375 C 12.84375 -14.171875 12.625 -14.203125 12.34375 -14.203125 L 5.328125 -14.203125 L 5.328125 -10.03125 L 9.671875 -10.03125 C 9.992188 -10.03125 10.25 -10.0625 10.4375 -10.125 C 10.632812 -10.1875 10.753906 -10.367188 10.796875 -10.671875 L 11.25 -10.671875 L 11.25 -6.78125 L 10.796875 -6.78125 C 10.753906 -7.0625 10.625 -7.222656 10.40625 -7.265625 C 10.195312 -7.304688 9.910156 -7.328125 9.546875 -7.328125 L 5.328125 -7.328125 L 5.328125 -1.25 C 5.328125 -0.925781 5.414062 -0.722656 5.59375 -0.640625 C 5.78125 -0.554688 6.066406 -0.492188 6.453125 -0.453125 L 6.453125 0 L 1.09375 0 L 1.09375 -0.453125 C 1.539062 -0.492188 1.820312 -0.578125 1.9375 -0.703125 C 2.0625 -0.835938 2.125 -1.039062 2.125 -1.3125 L 2.125 -15.625 C 2.125 -15.894531 2.054688 -16.085938 1.921875 -16.203125 C 1.796875 -16.328125 1.5 -16.410156 1.03125 -16.453125 L 1.03125 -16.90625 L 12.34375 -16.90625 C 12.625 -16.90625 12.84375 -16.9375 13 -17 C 13.15625 -17.0625 13.257812 -17.222656 13.3125 -17.484375 L 13.75 -17.484375 Z M 13.75 -13.625 "/></g></g></g><g fill="#6482ad" fill-opacity="1"><g transform="translate(195.165466, 99.27917)"><g><path d="M 6.265625 -16.90625 L 6.265625 -16.453125 C 5.960938 -16.410156 5.757812 -16.328125 5.65625 -16.203125 C 5.550781 -16.085938 5.5 -15.894531 5.5 -15.625 L 5.5 -6.078125 C 5.5 -5.003906 5.800781 -4.140625 6.40625 -3.484375 C 7.019531 -2.828125 7.914062 -2.5 9.09375 -2.5 C 10.269531 -2.5 11.164062 -2.820312 11.78125 -3.46875 C 12.394531 -4.113281 12.703125 -4.984375 12.703125 -6.078125 L 12.703125 -15.625 C 12.703125 -15.894531 12.644531 -16.085938 12.53125 -16.203125 C 12.425781 -16.328125 12.222656 -16.410156 11.921875 -16.453125 L 11.921875 -16.90625 L 16.484375 -16.90625 L 16.484375 -16.453125 C 16.140625 -16.410156 15.914062 -16.328125 15.8125 -16.203125 C 15.707031 -16.085938 15.65625 -15.894531 15.65625 -15.625 L 15.65625 -6.203125 C 15.65625 -4.117188 15.109375 -2.53125 14.015625 -1.4375 C 12.921875 -0.351562 11.238281 0.1875 8.96875 0.1875 C 4.507812 0.1875 2.28125 -1.941406 2.28125 -6.203125 L 2.28125 -15.625 C 2.28125 -15.894531 2.21875 -16.085938 2.09375 -16.203125 C 1.976562 -16.328125 1.738281 -16.410156 1.375 -16.453125 L 1.375 -16.90625 Z M 6.265625 -16.90625 "/></g></g></g><g fill="#6482ad" fill-opacity="1"><g transform="translate(216.250986, 99.27917)"><g><path d="M 7.75 -17.09375 C 8.882812 -17.09375 9.8125 -16.976562 10.53125 -16.75 C 11.25 -16.53125 11.820312 -16.328125 12.25 -16.140625 C 12.550781 -16.003906 12.773438 -15.90625 12.921875 -15.84375 C 13.066406 -15.78125 13.195312 -15.75 13.3125 -15.75 C 13.476562 -15.75 13.613281 -15.78125 13.71875 -15.84375 C 13.832031 -15.90625 13.941406 -16.003906 14.046875 -16.140625 L 14.296875 -16 L 11.921875 -12.015625 L 11.46875 -12.21875 C 11.46875 -12.257812 11.472656 -12.335938 11.484375 -12.453125 C 11.492188 -12.566406 11.5 -12.671875 11.5 -12.765625 C 11.5 -12.953125 11.394531 -13.164062 11.1875 -13.40625 C 10.988281 -13.65625 10.6875 -13.878906 10.28125 -14.078125 C 9.851562 -14.296875 9.398438 -14.445312 8.921875 -14.53125 C 8.441406 -14.613281 7.941406 -14.65625 7.421875 -14.65625 C 6.585938 -14.65625 5.953125 -14.476562 5.515625 -14.125 C 5.078125 -13.769531 4.859375 -13.28125 4.859375 -12.65625 C 4.859375 -12.082031 5.144531 -11.632812 5.71875 -11.3125 C 6.300781 -10.988281 7.296875 -10.675781 8.703125 -10.375 C 9.566406 -10.207031 10.378906 -10.003906 11.140625 -9.765625 C 11.898438 -9.535156 12.566406 -9.226562 13.140625 -8.84375 C 13.722656 -8.457031 14.179688 -7.96875 14.515625 -7.375 C 14.847656 -6.789062 15.015625 -6.046875 15.015625 -5.140625 C 15.015625 -4.453125 14.863281 -3.789062 14.5625 -3.15625 C 14.257812 -2.53125 13.800781 -1.960938 13.1875 -1.453125 C 12.582031 -0.953125 11.816406 -0.550781 10.890625 -0.25 C 9.972656 0.0390625 8.90625 0.1875 7.6875 0.1875 C 6.78125 0.1875 5.941406 0.0859375 5.171875 -0.109375 C 4.398438 -0.316406 3.660156 -0.582031 2.953125 -0.90625 C 2.484375 -1.113281 2.148438 -1.21875 1.953125 -1.21875 C 1.847656 -1.21875 1.765625 -1.1875 1.703125 -1.125 C 1.640625 -1.0625 1.53125 -0.941406 1.375 -0.765625 L 1.0625 -0.96875 L 2.984375 -4.953125 L 3.4375 -4.75 C 3.414062 -4.6875 3.398438 -4.632812 3.390625 -4.59375 C 3.378906 -4.550781 3.375 -4.5 3.375 -4.4375 C 3.375 -4.132812 3.519531 -3.875 3.8125 -3.65625 C 4.101562 -3.445312 4.441406 -3.253906 4.828125 -3.078125 C 5.316406 -2.890625 5.820312 -2.742188 6.34375 -2.640625 C 6.875 -2.546875 7.382812 -2.5 7.875 -2.5 C 9.09375 -2.5 10.050781 -2.6875 10.75 -3.0625 C 11.445312 -3.4375 11.796875 -4.085938 11.796875 -5.015625 C 11.796875 -5.609375 11.503906 -6.082031 10.921875 -6.4375 C 10.347656 -6.789062 9.332031 -7.117188 7.875 -7.421875 C 7.082031 -7.597656 6.3125 -7.785156 5.5625 -7.984375 C 4.8125 -8.191406 4.144531 -8.472656 3.5625 -8.828125 C 2.988281 -9.179688 2.523438 -9.625 2.171875 -10.15625 C 1.816406 -10.6875 1.640625 -11.375 1.640625 -12.21875 C 1.640625 -12.875 1.757812 -13.5 2 -14.09375 C 2.25 -14.6875 2.625 -15.207031 3.125 -15.65625 C 3.632812 -16.101562 4.273438 -16.453125 5.046875 -16.703125 C 5.816406 -16.960938 6.71875 -17.09375 7.75 -17.09375 Z M 7.75 -17.09375 "/></g></g></g><g fill="#6482ad" fill-opacity="1"><g transform="translate(235.536613, 99.27917)"><g><path d="M 7.171875 -16.90625 L 7.171875 -16.453125 C 6.691406 -16.410156 6.390625 -16.328125 6.265625 -16.203125 C 6.140625 -16.085938 6.078125 -15.894531 6.078125 -15.625 L 6.078125 -1.28125 C 6.078125 -1.007812 6.140625 -0.8125 6.265625 -0.6875 C 6.390625 -0.570312 6.691406 -0.492188 7.171875 -0.453125 L 7.171875 0 L 1.765625 0 L 1.765625 -0.453125 C 2.234375 -0.492188 2.53125 -0.570312 2.65625 -0.6875 C 2.789062 -0.8125 2.859375 -1.007812 2.859375 -1.28125 L 2.859375 -15.625 C 2.859375 -15.894531 2.789062 -16.085938 2.65625 -16.203125 C 2.53125 -16.328125 2.234375 -16.410156 1.765625 -16.453125 L 1.765625 -16.90625 Z M 7.171875 -16.90625 "/></g></g></g><g fill="#6482ad" fill-opacity="1"><g transform="translate(247.686943, 99.27917)"><g><path d="M 4.4375 -8.453125 C 4.4375 -6.503906 4.828125 -5.023438 5.609375 -4.015625 C 6.390625 -3.003906 7.5 -2.5 8.9375 -2.5 C 10.375 -2.5 11.484375 -3.003906 12.265625 -4.015625 C 13.046875 -5.023438 13.4375 -6.503906 13.4375 -8.453125 C 13.4375 -10.378906 13.046875 -11.851562 12.265625 -12.875 C 11.484375 -13.894531 10.363281 -14.40625 8.90625 -14.40625 C 7.488281 -14.40625 6.390625 -13.898438 5.609375 -12.890625 C 4.828125 -11.878906 4.4375 -10.398438 4.4375 -8.453125 Z M 8.9375 -17.09375 C 10.15625 -17.09375 11.238281 -16.875 12.1875 -16.4375 C 13.144531 -16 13.953125 -15.390625 14.609375 -14.609375 C 15.265625 -13.828125 15.769531 -12.910156 16.125 -11.859375 C 16.476562 -10.804688 16.65625 -9.671875 16.65625 -8.453125 C 16.65625 -7.234375 16.476562 -6.097656 16.125 -5.046875 C 15.769531 -3.992188 15.265625 -3.078125 14.609375 -2.296875 C 13.953125 -1.515625 13.144531 -0.90625 12.1875 -0.46875 C 11.238281 -0.03125 10.15625 0.1875 8.9375 0.1875 C 7.71875 0.1875 6.628906 -0.03125 5.671875 -0.46875 C 4.722656 -0.90625 3.921875 -1.515625 3.265625 -2.296875 C 2.609375 -3.078125 2.101562 -3.992188 1.75 -5.046875 C 1.394531 -6.097656 1.21875 -7.234375 1.21875 -8.453125 C 1.21875 -9.671875 1.394531 -10.804688 1.75 -11.859375 C 2.101562 -12.910156 2.609375 -13.828125 3.265625 -14.609375 C 3.921875 -15.390625 4.722656 -16 5.671875 -16.4375 C 6.628906 -16.875 7.71875 -17.09375 8.9375 -17.09375 Z M 8.9375 -17.09375 "/></g></g></g><g fill="#6482ad" fill-opacity="1"><g transform="translate(268.772455, 99.27917)"><g><path d="M 7.140625 -16.90625 L 7.140625 -16.453125 C 6.878906 -16.429688 6.71875 -16.398438 6.65625 -16.359375 C 6.59375 -16.316406 6.5625 -16.253906 6.5625 -16.171875 C 6.5625 -15.992188 7.515625 -14.3125 9.421875 -11.125 C 11.347656 -7.90625 12.351562 -6.039062 12.4375 -5.53125 L 12.5 -5.53125 L 12.5 -15.625 C 12.5 -15.851562 12.457031 -16.035156 12.375 -16.171875 C 12.289062 -16.316406 12.097656 -16.410156 11.796875 -16.453125 L 11.796875 -16.90625 L 16.171875 -16.90625 L 16.171875 -16.453125 C 15.867188 -16.410156 15.671875 -16.320312 15.578125 -16.1875 C 15.492188 -16.0625 15.453125 -15.875 15.453125 -15.625 L 15.453125 -1.3125 C 15.453125 -1.019531 15.488281 -0.8125 15.5625 -0.6875 C 15.644531 -0.570312 15.800781 -0.492188 16.03125 -0.453125 L 16.03125 0 L 11.34375 0 L 11.34375 -0.453125 C 11.75 -0.515625 11.953125 -0.65625 11.953125 -0.875 C 11.953125 -0.976562 11.828125 -1.242188 11.578125 -1.671875 C 11.335938 -2.097656 11.015625 -2.644531 10.609375 -3.3125 C 10.179688 -4 9.71875 -4.738281 9.21875 -5.53125 C 8.726562 -6.320312 8.207031 -7.195312 7.65625 -8.15625 C 7.09375 -9.101562 6.625 -9.941406 6.25 -10.671875 C 5.875 -11.398438 5.613281 -11.976562 5.46875 -12.40625 L 5.40625 -12.40625 L 5.40625 -1.28125 C 5.40625 -1.03125 5.445312 -0.835938 5.53125 -0.703125 C 5.613281 -0.578125 5.796875 -0.492188 6.078125 -0.453125 L 6.078125 0 L 1.703125 0 L 1.703125 -0.453125 C 2.003906 -0.492188 2.203125 -0.578125 2.296875 -0.703125 C 2.390625 -0.835938 2.4375 -1.03125 2.4375 -1.28125 L 2.4375 -15.625 C 2.4375 -15.851562 2.394531 -16.035156 2.3125 -16.171875 C 2.226562 -16.316406 2.066406 -16.410156 1.828125 -16.453125 L 1.828125 -16.90625 Z M 7.140625 -16.90625 "/></g></g></g></svg>