<svg xmlns="http://www.w3.org/2000/svg" xmlns:xlink="http://www.w3.org/1999/xlink" width="100" zoomAndPan="magnify" viewBox="0 0 75 112.499997" height="150" preserveAspectRatio="xMidYMid meet" version="1.0"><defs><clipPath id="4cab0500eb"><path d="M 0.164062 0 L 74.832031 0 L 74.832031 112.003906 L 0.164062 112.003906 Z M 0.164062 0 " clip-rule="nonzero"/></clipPath><clipPath id="b5725b0ca1"><path d="M 27 39.167969 L 48 39.167969 L 48 60 L 27 60 Z M 27 39.167969 " clip-rule="nonzero"/></clipPath><clipPath id="58ae74113b"><path d="M 30.449219 39.144531 L 43.933594 39.144531 C 44.363281 39.144531 44.773438 39.226562 45.167969 39.390625 C 45.5625 39.550781 45.910156 39.785156 46.210938 40.085938 C 46.511719 40.386719 46.746094 40.738281 46.910156 41.128906 C 47.070312 41.523438 47.152344 41.9375 47.152344 42.363281 L 47.152344 55.929688 C 47.152344 56.359375 47.070312 56.769531 46.910156 57.164062 C 46.746094 57.558594 46.511719 57.90625 46.210938 58.207031 C 45.910156 58.507812 45.5625 58.742188 45.167969 58.90625 C 44.773438 59.066406 44.363281 59.148438 43.933594 59.148438 L 30.449219 59.148438 C 30.023438 59.148438 29.609375 59.066406 29.21875 58.90625 C 28.824219 58.742188 28.472656 58.507812 28.171875 58.207031 C 27.871094 57.90625 27.636719 57.558594 27.476562 57.164062 C 27.3125 56.769531 27.230469 56.359375 27.230469 55.929688 L 27.230469 42.363281 C 27.230469 41.9375 27.3125 41.523438 27.476562 41.128906 C 27.636719 40.738281 27.871094 40.386719 28.171875 40.085938 C 28.472656 39.785156 28.824219 39.550781 29.21875 39.390625 C 29.609375 39.226562 30.023438 39.144531 30.449219 39.144531 Z M 30.449219 39.144531 " clip-rule="nonzero"/></clipPath><clipPath id="fa7c4fc726"><path d="M 7.632812 61 L 15 61 L 15 71 L 7.632812 71 Z M 7.632812 61 " clip-rule="nonzero"/></clipPath><clipPath id="6ea29e9aee"><path d="M 30 61 L 67.367188 61 L 67.367188 72.765625 L 30 72.765625 Z M 30 61 " clip-rule="nonzero"/></clipPath></defs><g clip-path="url(#4cab0500eb)"><path fill="#ffffff" d="M 0.164062 0 L 74.835938 0 L 74.835938 112.003906 L 0.164062 112.003906 Z M 0.164062 0 " fill-opacity="1" fill-rule="nonzero"/><path fill="#ffffff" d="M 0.164062 0 L 74.835938 0 L 74.835938 112.003906 L 0.164062 112.003906 Z M 0.164062 0 " fill-opacity="1" fill-rule="nonzero"/></g><g clip-path="url(#b5725b0ca1)"><g clip-path="url(#58ae74113b)"><path fill="#fe8282" d="M 27.230469 39.167969 L 27.230469 59.148438 L 47.152344 59.148438 L 47.152344 39.167969 Z M 27.230469 39.167969 " fill-opacity="1" fill-rule="nonzero"/></g></g><path fill="#ffffff" d="M 37.339844 47.753906 C 37.851562 47.753906 38.234375 47.644531 38.5 47.421875 C 38.761719 47.199219 38.894531 46.875 38.894531 46.445312 C 38.894531 46.015625 38.761719 45.695312 38.5 45.472656 C 38.234375 45.246094 37.851562 45.132812 37.339844 45.132812 L 35.554688 45.132812 L 35.554688 47.753906 L 37.339844 47.753906 M 37.449219 53.175781 C 38.097656 53.175781 38.585938 53.039062 38.910156 52.769531 C 39.238281 52.496094 39.402344 52.085938 39.402344 51.539062 C 39.402344 51.003906 39.242188 50.601562 38.917969 50.335938 C 38.59375 50.066406 38.105469 49.929688 37.449219 49.929688 L 35.554688 49.929688 L 35.554688 53.175781 L 37.449219 53.175781 M 40.453125 48.71875 C 41.144531 48.917969 41.683594 49.285156 42.0625 49.820312 C 42.441406 50.359375 42.632812 51.015625 42.632812 51.796875 C 42.632812 52.992188 42.226562 53.882812 41.410156 54.46875 C 40.59375 55.058594 39.351562 55.351562 37.683594 55.351562 L 32.324219 55.351562 L 32.324219 42.960938 L 37.171875 42.960938 C 38.914062 42.960938 40.171875 43.21875 40.949219 43.742188 C 41.730469 44.261719 42.121094 45.09375 42.121094 46.238281 C 42.121094 46.84375 41.980469 47.355469 41.695312 47.78125 C 41.410156 48.203125 40.992188 48.515625 40.453125 48.722656 " fill-opacity="1" fill-rule="nonzero"/><g clip-path="url(#fa7c4fc726)"><path fill="#fe8282" d="M 9.246094 65.804688 L 9.246094 69.171875 L 11.242188 69.171875 C 11.910156 69.171875 12.40625 69.03125 12.726562 68.757812 C 13.050781 68.480469 13.210938 68.054688 13.210938 67.484375 C 13.210938 66.917969 13.046875 66.488281 12.726562 66.214844 C 12.40625 65.941406 11.910156 65.804688 11.242188 65.804688 L 9.246094 65.804688 M 9.246094 62.023438 L 9.246094 64.796875 L 11.085938 64.796875 C 11.695312 64.796875 12.148438 64.679688 12.441406 64.457031 C 12.742188 64.226562 12.890625 63.878906 12.890625 63.410156 C 12.890625 62.945312 12.742188 62.597656 12.441406 62.371094 C 12.140625 62.140625 11.695312 62.023438 11.085938 62.023438 L 9.246094 62.023438 M 8.003906 61.003906 L 11.179688 61.003906 C 12.128906 61.003906 12.859375 61.203125 13.371094 61.59375 C 13.886719 61.988281 14.140625 62.550781 14.140625 63.277344 C 14.140625 63.839844 14.011719 64.285156 13.746094 64.617188 C 13.484375 64.953125 13.097656 65.15625 12.589844 65.238281 C 13.203125 65.371094 13.675781 65.648438 14.011719 66.058594 C 14.351562 66.472656 14.515625 66.992188 14.515625 67.617188 C 14.515625 68.4375 14.238281 69.070312 13.679688 69.519531 C 13.121094 69.964844 12.328125 70.1875 11.296875 70.1875 L 7.996094 70.1875 L 7.996094 61 " fill-opacity="1" fill-rule="nonzero"/></g><path fill="#fe8282" d="M 19.203125 64.09375 C 18.597656 64.070312 18.117188 64.308594 17.765625 64.804688 C 17.410156 65.277344 17.234375 65.925781 17.234375 66.75 C 17.234375 67.578125 17.410156 68.226562 17.757812 68.703125 C 18.113281 69.175781 18.59375 69.410156 19.203125 69.410156 C 19.8125 69.429688 20.289062 69.191406 20.640625 68.695312 C 20.992188 68.222656 21.167969 67.570312 21.167969 66.75 C 21.167969 65.933594 20.992188 65.289062 20.640625 64.8125 C 20.285156 64.332031 19.808594 64.09375 19.203125 64.09375 M 19.203125 63.132812 C 20.191406 63.132812 20.96875 63.453125 21.527344 64.09375 C 22.082031 64.730469 22.371094 65.617188 22.371094 66.753906 C 22.371094 67.886719 22.089844 68.765625 21.527344 69.410156 C 20.964844 70.050781 20.191406 70.371094 19.203125 70.371094 C 18.214844 70.371094 17.441406 70.050781 16.871094 69.410156 C 16.316406 68.769531 16.035156 67.882812 16.035156 66.753906 C 16.035156 65.621094 16.316406 64.734375 16.871094 64.09375 C 17.433594 63.453125 18.210938 63.132812 19.203125 63.132812 " fill-opacity="1" fill-rule="nonzero"/><path fill="#fe8282" d="M 26.847656 64.09375 C 26.242188 64.070312 25.761719 64.308594 25.410156 64.804688 C 25.054688 65.277344 24.878906 65.925781 24.878906 66.75 C 24.878906 67.578125 25.054688 68.226562 25.402344 68.703125 C 25.753906 69.175781 26.238281 69.410156 26.847656 69.410156 C 27.453125 69.429688 27.933594 69.191406 28.28125 68.695312 C 28.636719 68.222656 28.8125 67.570312 28.8125 66.75 C 28.8125 65.933594 28.636719 65.289062 28.28125 64.8125 C 27.929688 64.332031 27.453125 64.09375 26.847656 64.09375 M 26.847656 63.132812 C 27.832031 63.132812 28.613281 63.453125 29.167969 64.09375 C 29.726562 64.730469 30.011719 65.617188 30.011719 66.753906 C 30.011719 67.886719 29.730469 68.765625 29.167969 69.410156 C 28.609375 70.050781 27.832031 70.371094 26.847656 70.371094 C 25.859375 70.371094 25.085938 70.050781 24.515625 69.410156 C 23.957031 68.769531 23.679688 67.882812 23.679688 66.753906 C 23.679688 65.621094 23.957031 64.734375 24.515625 64.09375 C 25.078125 63.453125 25.855469 63.132812 26.847656 63.132812 " fill-opacity="1" fill-rule="nonzero"/><g clip-path="url(#6ea29e9aee)"><path fill="#fe8282" d="M 32.941406 61.339844 L 32.941406 63.296875 L 35.273438 63.296875 L 35.273438 64.175781 L 32.941406 64.175781 L 32.941406 67.921875 C 32.941406 68.480469 33.015625 68.84375 33.167969 69.003906 C 33.324219 69.164062 33.636719 69.242188 34.109375 69.242188 L 35.273438 69.242188 L 35.273438 70.191406 L 34.109375 70.191406 C 33.234375 70.191406 32.632812 70.03125 32.300781 69.707031 C 31.96875 69.378906 31.796875 68.78125 31.796875 67.921875 L 31.796875 64.175781 L 30.964844 64.175781 L 30.964844 63.296875 L 31.796875 63.296875 L 31.796875 61.339844 L 32.933594 61.339844 M 41.09375 63.5 L 41.09375 64.574219 C 40.777344 64.410156 40.445312 64.285156 40.097656 64.203125 C 39.753906 64.121094 39.394531 64.082031 39.027344 64.082031 C 38.464844 64.082031 38.039062 64.167969 37.757812 64.332031 C 37.480469 64.503906 37.339844 64.765625 37.339844 65.109375 C 37.339844 65.371094 37.441406 65.578125 37.640625 65.730469 C 37.84375 65.878906 38.246094 66.019531 38.855469 66.15625 L 39.242188 66.242188 C 40.046875 66.414062 40.617188 66.65625 40.953125 66.972656 C 41.292969 67.285156 41.457031 67.722656 41.457031 68.285156 C 41.476562 68.925781 41.226562 69.433594 40.703125 69.804688 C 40.195312 70.179688 39.5 70.371094 38.621094 70.371094 C 38.253906 70.371094 37.867188 70.335938 37.464844 70.261719 C 37.066406 70.199219 36.644531 70.085938 36.203125 69.941406 L 36.203125 68.773438 C 36.621094 68.988281 37.03125 69.152344 37.441406 69.261719 C 37.835938 69.367188 38.238281 69.421875 38.644531 69.421875 C 39.179688 69.421875 39.589844 69.332031 39.875 69.152344 C 40.164062 68.96875 40.308594 68.710938 40.308594 68.378906 C 40.308594 68.070312 40.203125 67.832031 39.996094 67.667969 C 39.789062 67.503906 39.335938 67.355469 38.632812 67.195312 L 38.238281 67.101562 C 37.539062 66.957031 37.03125 66.730469 36.71875 66.425781 C 36.40625 66.117188 36.253906 65.699219 36.253906 65.164062 C 36.253906 64.515625 36.480469 64.015625 36.941406 63.664062 C 37.402344 63.308594 38.054688 63.132812 38.898438 63.132812 C 39.296875 63.132812 39.6875 63.160156 40.082031 63.226562 C 40.429688 63.28125 40.769531 63.375 41.101562 63.5 M 44.335938 61.339844 L 44.335938 63.296875 L 46.667969 63.296875 L 46.667969 64.175781 L 44.335938 64.175781 L 44.335938 67.917969 C 44.335938 68.480469 44.414062 68.84375 44.566406 69.003906 C 44.71875 69.164062 45.035156 69.242188 45.507812 69.242188 L 46.671875 69.242188 L 46.671875 70.191406 L 45.507812 70.191406 C 44.632812 70.191406 44.03125 70.027344 43.699219 69.707031 C 43.367188 69.378906 43.195312 68.78125 43.195312 67.921875 L 43.195312 64.175781 L 42.363281 64.175781 L 42.363281 63.296875 L 43.195312 63.296875 L 43.195312 61.339844 L 44.339844 61.339844 M 52.09375 64.359375 C 51.960938 64.28125 51.820312 64.230469 51.671875 64.199219 C 51.511719 64.160156 51.347656 64.140625 51.183594 64.140625 C 50.542969 64.140625 50.050781 64.351562 49.703125 64.769531 C 49.363281 65.183594 49.199219 65.78125 49.199219 66.5625 L 49.199219 70.191406 L 48.0625 70.191406 L 48.0625 63.296875 L 49.199219 63.296875 L 49.199219 64.367188 C 49.4375 63.949219 49.75 63.640625 50.128906 63.4375 C 50.511719 63.234375 50.972656 63.132812 51.519531 63.132812 C 51.605469 63.132812 51.695312 63.136719 51.777344 63.148438 L 52.09375 63.191406 L 52.097656 64.355469 M 56.371094 66.726562 C 55.453125 66.726562 54.820312 66.832031 54.46875 67.039062 C 54.113281 67.25 53.9375 67.605469 53.9375 68.113281 C 53.9375 68.515625 54.070312 68.835938 54.332031 69.070312 C 54.597656 69.304688 54.960938 69.421875 55.414062 69.421875 C 56.042969 69.421875 56.546875 69.199219 56.925781 68.757812 C 57.304688 68.316406 57.496094 67.71875 57.496094 66.980469 L 57.496094 66.726562 L 56.371094 66.726562 M 58.628906 66.257812 L 58.628906 70.191406 L 57.496094 70.191406 L 57.496094 69.144531 C 57.242188 69.566406 56.917969 69.875 56.53125 70.074219 C 56.144531 70.273438 55.671875 70.371094 55.113281 70.371094 C 54.410156 70.371094 53.847656 70.175781 53.425781 69.78125 C 53.011719 69.382812 52.804688 68.851562 52.804688 68.1875 C 52.804688 67.410156 53.058594 66.828125 53.582031 66.433594 C 54.105469 66.039062 54.878906 65.84375 55.914062 65.84375 L 57.5 65.84375 L 57.5 65.730469 C 57.5 65.210938 57.328125 64.808594 56.984375 64.523438 C 56.644531 64.238281 56.164062 64.09375 55.542969 64.09375 C 55.152344 64.09375 54.765625 64.140625 54.394531 64.234375 C 54.015625 64.332031 53.65625 64.472656 53.316406 64.660156 L 53.316406 63.613281 C 53.730469 63.453125 54.132812 63.335938 54.523438 63.257812 C 54.898438 63.175781 55.277344 63.136719 55.660156 63.132812 C 56.660156 63.132812 57.402344 63.386719 57.894531 63.910156 C 58.390625 64.433594 58.636719 65.210938 58.636719 66.261719 M 62.007812 69.15625 L 62.007812 72.8125 L 60.867188 72.8125 L 60.867188 63.296875 L 62.007812 63.296875 L 62.007812 64.34375 C 62.246094 63.933594 62.546875 63.628906 62.90625 63.433594 C 63.273438 63.230469 63.707031 63.132812 64.210938 63.132812 C 64.613281 63.121094 64.992188 63.207031 65.351562 63.382812 C 65.710938 63.558594 66.011719 63.804688 66.25 64.128906 C 66.773438 64.792969 67.035156 65.667969 67.035156 66.75 C 67.035156 67.835938 66.773438 68.707031 66.25 69.371094 C 66.011719 69.695312 65.710938 69.941406 65.351562 70.121094 C 64.992188 70.296875 64.613281 70.378906 64.210938 70.371094 C 63.707031 70.371094 63.265625 70.269531 62.90625 70.074219 C 62.546875 69.871094 62.246094 69.566406 62.007812 69.15625 M 65.859375 66.75 C 65.859375 65.917969 65.6875 65.265625 65.34375 64.792969 C 65.003906 64.316406 64.53125 64.078125 63.933594 64.078125 C 63.332031 64.058594 62.859375 64.296875 62.519531 64.792969 C 62.179688 65.265625 62.015625 65.917969 62.015625 66.75 C 62.015625 67.582031 62.183594 68.238281 62.519531 68.714844 C 62.863281 69.1875 63.335938 69.421875 63.933594 69.421875 C 64.53125 69.421875 65.003906 69.183594 65.34375 68.714844 C 65.6875 68.238281 65.859375 67.582031 65.859375 66.75 " fill-opacity="1" fill-rule="nonzero"/></g></svg>