<svg xmlns="http://www.w3.org/2000/svg" xmlns:xlink="http://www.w3.org/1999/xlink" width="150" zoomAndPan="magnify" viewBox="0 0 112.5 104.999996" height="140" preserveAspectRatio="xMidYMid meet" version="1.0"><defs><clipPath id="1e2d6a44f8"><path d="M 0 0.230469 L 112.003906 0.230469 L 112.003906 104.765625 L 0 104.765625 Z M 0 0.230469 " clip-rule="nonzero"/></clipPath><clipPath id="8e79a9985a"><path d="M 24.734375 61.253906 L 79.988281 61.253906 L 79.988281 76.933594 L 24.734375 76.933594 Z M 24.734375 61.253906 " clip-rule="nonzero"/></clipPath><clipPath id="768ac0dc83"><path d="M 24.734375 17.113281 L 79.988281 17.113281 L 79.988281 32.796875 L 24.734375 32.796875 Z M 24.734375 17.113281 " clip-rule="nonzero"/></clipPath><clipPath id="a1156b6acc"><path d="M 15.464844 41.339844 L 25.921875 41.339844 L 25.921875 53.285156 L 15.464844 53.285156 Z M 15.464844 41.339844 " clip-rule="nonzero"/></clipPath><clipPath id="db6204584e"><path d="M 27.929688 41.339844 L 36.890625 41.339844 L 36.890625 53.285156 L 27.929688 53.285156 Z M 27.929688 41.339844 " clip-rule="nonzero"/></clipPath><clipPath id="dfa7021f12"><path d="M 38.804688 41.339844 L 49 41.339844 L 49 53.285156 L 38.804688 53.285156 Z M 38.804688 41.339844 " clip-rule="nonzero"/></clipPath><clipPath id="3e3c5a06b3"><path d="M 86.300781 44.570312 L 93.617188 44.570312 L 93.617188 52.984375 L 86.300781 52.984375 Z M 86.300781 44.570312 " clip-rule="nonzero"/></clipPath><clipPath id="2f89bc070f"><path d="M 77.09375 41.339844 L 84.410156 41.339844 L 84.410156 53.046875 L 77.09375 53.046875 Z M 77.09375 41.339844 " clip-rule="nonzero"/></clipPath><clipPath id="6d3e9bafa1"><path d="M 66.847656 44.546875 L 75.265625 44.546875 L 75.265625 52.960938 L 66.847656 52.960938 Z M 66.847656 44.546875 " clip-rule="nonzero"/></clipPath></defs><g clip-path="url(#1e2d6a44f8)"><path fill="#ffffff" d="M 0 0.230469 L 112.003906 0.230469 L 112.003906 104.769531 L 0 104.769531 Z M 0 0.230469 " fill-opacity="1" fill-rule="nonzero"/><path fill="#ffffff" d="M 0 0.230469 L 112.003906 0.230469 L 112.003906 104.769531 L 0 104.769531 Z M 0 0.230469 " fill-opacity="1" fill-rule="nonzero"/></g><g clip-path="url(#8e79a9985a)"><path fill="#fe8282" d="M 25.625 61.710938 C 25.597656 61.75 25.589844 61.792969 25.609375 61.839844 C 25.5 61.964844 25.246094 61.867188 25.203125 62.101562 C 24.828125 62.472656 24.96875 62.855469 25.191406 63.230469 C 25.816406 64.28125 26.597656 65.210938 27.4375 66.09375 C 30.453125 69.246094 33.984375 71.625 37.976562 73.40625 C 44.941406 76.511719 52.132812 76.9375 59.503906 75.421875 C 62.921875 74.71875 66.152344 73.433594 69.324219 71.996094 C 71.1875 71.152344 72.996094 70.199219 74.824219 69.289062 C 74.875 69.226562 74.925781 69.164062 74.976562 69.101562 C 75.066406 69.097656 75.167969 69.066406 75.242188 69.101562 C 75.242188 69.101562 75.242188 69.101562 75.246094 69.101562 C 75.300781 69.128906 75.261719 69.210938 75.199219 69.246094 C 74.84375 69.964844 74.347656 70.585938 73.820312 71.179688 C 73.457031 71.585938 73.136719 72.007812 72.945312 72.519531 C 72.160156 73.390625 72.136719 74.320312 72.835938 75.128906 C 75.015625 74.289062 76.34375 72.5625 77.550781 70.695312 C 78.003906 70 78.496094 69.335938 78.984375 68.667969 C 80.144531 67.066406 79.886719 67.230469 79.242188 65.753906 C 79.101562 65.421875 78.882812 65.128906 78.636719 64.863281 C 78.546875 64.765625 78.453125 64.683594 78.3125 64.683594 C 78.125 64.316406 77.78125 64.3125 77.445312 64.324219 C 76.441406 64.359375 75.445312 64.410156 74.441406 64.453125 C 74.234375 64.339844 74.015625 64.375 73.796875 64.417969 C 73.59375 64.296875 73.371094 64.335938 73.15625 64.363281 C 73.023438 64.253906 72.859375 64.292969 72.707031 64.273438 C 70.675781 63.988281 68.707031 63.476562 66.828125 62.632812 C 66.683594 62.570312 66.539062 62.519531 66.394531 62.460938 C 66.226562 62.390625 66.03125 62.3125 65.894531 62.472656 C 65.792969 62.59375 65.820312 62.8125 65.914062 62.914062 C 66.3125 63.363281 66.371094 63.980469 66.71875 64.445312 C 66.871094 64.652344 67.097656 64.78125 67.332031 64.90625 C 69.117188 65.882812 71.027344 66.515625 73.003906 66.957031 C 73.179688 66.996094 73.367188 67.007812 73.53125 67.082031 C 73.71875 67.167969 73.667969 67.328125 73.570312 67.46875 C 73.367188 67.445312 73.21875 67.527344 73.125 67.707031 C 72.933594 67.71875 72.75 67.75 72.652344 67.949219 C 72.605469 67.925781 72.574219 67.941406 72.5625 67.988281 C 72.378906 67.996094 72.210938 68.035156 72.109375 68.214844 C 71.988281 68.246094 71.859375 68.261719 71.742188 68.316406 C 70.480469 68.894531 69.226562 69.496094 67.957031 70.0625 C 66.800781 70.574219 65.636719 71.050781 64.472656 71.542969 C 64.152344 71.636719 63.828125 71.714844 63.511719 71.820312 C 60.421875 72.820312 57.261719 73.433594 54.019531 73.574219 C 52.859375 73.625 51.699219 73.640625 50.539062 73.667969 C 50.320312 73.542969 50.09375 73.59375 49.867188 73.640625 C 49.660156 73.515625 49.441406 73.558594 49.226562 73.601562 C 49.035156 73.46875 48.832031 73.523438 48.628906 73.542969 C 48.511719 73.445312 48.378906 73.453125 48.246094 73.5 C 48.203125 73.464844 48.15625 73.464844 48.109375 73.496094 C 47.976562 73.386719 47.816406 73.425781 47.667969 73.402344 C 46.9375 73.273438 46.1875 73.28125 45.46875 73.066406 C 45.40625 73.125 45.191406 73.15625 45.453125 73.265625 C 45.625 73.339844 45.636719 73.390625 45.585938 73.433594 C 45.546875 73.46875 45.460938 73.5 45.402344 73.53125 C 43.101562 73.0625 40.890625 72.324219 38.722656 71.4375 C 38.53125 71.335938 38.335938 71.238281 38.140625 71.136719 C 36.988281 70.535156 35.832031 69.929688 34.675781 69.332031 C 34.652344 69.28125 34.621094 69.25 34.578125 69.230469 C 34.550781 69.21875 34.519531 69.210938 34.484375 69.210938 C 34.445312 69.132812 34.382812 69.09375 34.296875 69.097656 C 34.261719 69.015625 34.199219 68.976562 34.109375 68.980469 C 34.078125 68.898438 34.011719 68.859375 33.921875 68.863281 C 33.890625 68.78125 33.828125 68.738281 33.738281 68.746094 C 33.707031 68.660156 33.644531 68.621094 33.554688 68.625 C 33.523438 68.539062 33.460938 68.5 33.375 68.503906 L 33.371094 68.503906 C 33.316406 68.460938 33.253906 68.417969 33.195312 68.382812 L 33.1875 68.378906 C 33.160156 68.292969 33.101562 68.253906 33.011719 68.257812 L 33.003906 68.253906 C 32.976562 68.167969 32.917969 68.128906 32.828125 68.132812 L 32.820312 68.128906 C 32.820312 68.128906 32.820312 68.125 32.820312 68.125 C 32.820312 68.125 32.820312 68.128906 32.820312 68.128906 C 32.792969 68.039062 32.734375 68 32.644531 68.003906 L 32.640625 68 C 32.613281 67.914062 32.554688 67.875 32.464844 67.878906 L 32.460938 67.875 C 32.433594 67.789062 32.375 67.746094 32.28125 67.75 C 31.757812 67.324219 31.234375 66.898438 30.707031 66.472656 C 30.363281 66.335938 30.128906 66.058594 29.863281 65.824219 C 29.871094 65.78125 29.890625 65.75 29.914062 65.71875 C 29.949219 65.675781 29.992188 65.644531 30.054688 65.625 C 29.875 65.425781 29.707031 65.214844 29.445312 65.109375 C 29.363281 65.082031 29.289062 65.046875 29.230469 64.984375 C 29.300781 65.023438 29.375 65.066406 29.445312 65.109375 C 29.402344 65.03125 29.351562 64.964844 29.253906 64.980469 C 29.230469 64.847656 29.144531 64.765625 29.023438 64.71875 C 29.007812 64.632812 28.960938 64.578125 28.871094 64.574219 C 28.832031 64.492188 28.785156 64.429688 28.6875 64.417969 C 28.675781 64.375 28.652344 64.339844 28.605469 64.324219 C 28.464844 64.097656 28.285156 63.914062 28.058594 63.769531 C 27.949219 63.617188 27.84375 63.457031 27.664062 63.375 C 27.632812 63.25 27.53125 63.183594 27.4375 63.113281 C 27.011719 62.503906 26.476562 61.976562 26.148438 61.257812 C 25.96875 61.46875 25.667969 61.433594 25.625 61.710938 Z M 72.585938 68.140625 C 72.585938 68.140625 72.585938 68.140625 72.582031 68.140625 C 72.582031 68.144531 72.585938 68.144531 72.585938 68.144531 C 72.582031 68.144531 72.582031 68.140625 72.582031 68.140625 C 72.582031 68.140625 72.582031 68.136719 72.582031 68.136719 C 72.585938 68.136719 72.585938 68.140625 72.585938 68.140625 Z M 32.429688 68.378906 C 32.445312 68.390625 32.457031 68.402344 32.46875 68.414062 C 32.464844 68.414062 32.460938 68.410156 32.457031 68.410156 C 32.445312 68.402344 32.429688 68.390625 32.417969 68.382812 C 32.421875 68.382812 32.425781 68.378906 32.429688 68.378906 Z M 34.664062 69.332031 C 34.664062 69.332031 34.660156 69.332031 34.660156 69.335938 C 34.65625 69.339844 34.65625 69.347656 34.652344 69.351562 L 34.636719 69.363281 L 34.660156 69.332031 C 34.660156 69.332031 34.660156 69.332031 34.660156 69.328125 C 34.660156 69.332031 34.660156 69.332031 34.664062 69.332031 Z M 32.355469 68.40625 C 32.375 68.398438 32.394531 68.390625 32.414062 68.382812 C 32.425781 68.390625 32.4375 68.402344 32.453125 68.410156 C 32.421875 68.394531 32.390625 68.390625 32.355469 68.40625 Z M 32.53125 68.46875 C 32.546875 68.480469 32.5625 68.488281 32.574219 68.5 C 32.574219 68.5 32.574219 68.5 32.574219 68.503906 C 32.5625 68.492188 32.546875 68.480469 32.53125 68.46875 Z M 26.015625 63.0625 C 26.015625 63.0625 26.011719 63.058594 26.011719 63.058594 C 26.011719 63.058594 26.007812 63.058594 26.007812 63.058594 C 26.007812 63.054688 26.007812 63.054688 26.007812 63.050781 C 26.011719 63.054688 26.011719 63.058594 26.015625 63.0625 Z M 26.207031 63.332031 C 26.207031 63.335938 26.207031 63.339844 26.210938 63.339844 C 26.210938 63.335938 26.207031 63.332031 26.207031 63.332031 Z M 29.097656 64.96875 C 29.082031 64.972656 29.066406 64.984375 29.050781 64.996094 C 29.050781 64.984375 29.046875 64.972656 29.046875 64.964844 C 29.0625 64.964844 29.078125 64.964844 29.097656 64.96875 Z M 28.726562 64.515625 C 28.707031 64.496094 28.6875 64.472656 28.679688 64.441406 C 28.691406 64.472656 28.707031 64.496094 28.726562 64.515625 Z M 28.726562 64.515625 " fill-opacity="1" fill-rule="nonzero"/></g><path fill="#fe8282" d="M 33.179688 68.378906 C 33.242188 68.417969 33.300781 68.457031 33.359375 68.5 C 33.328125 68.414062 33.269531 68.375 33.179688 68.378906 Z M 33.179688 68.378906 " fill-opacity="1" fill-rule="nonzero"/><g clip-path="url(#768ac0dc83)"><path fill="#fe8282" d="M 25.625 32.339844 C 25.597656 32.300781 25.589844 32.257812 25.609375 32.210938 C 25.5 32.085938 25.246094 32.183594 25.203125 31.949219 C 24.828125 31.578125 24.96875 31.195312 25.191406 30.820312 C 25.816406 29.769531 26.597656 28.839844 27.4375 27.957031 C 30.453125 24.804688 33.984375 22.421875 37.976562 20.644531 C 44.941406 17.539062 52.132812 17.109375 59.503906 18.628906 C 62.921875 19.332031 66.152344 20.617188 69.324219 22.054688 C 71.1875 22.898438 72.996094 23.851562 74.824219 24.761719 C 74.875 24.824219 74.925781 24.886719 74.976562 24.945312 C 75.066406 24.949219 75.167969 24.980469 75.242188 24.949219 C 75.242188 24.949219 75.242188 24.949219 75.246094 24.945312 C 75.300781 24.921875 75.261719 24.839844 75.199219 24.804688 C 74.84375 24.085938 74.347656 23.464844 73.820312 22.871094 C 73.457031 22.464844 73.136719 22.042969 72.945312 21.53125 C 72.160156 20.660156 72.136719 19.730469 72.835938 18.917969 C 75.015625 19.761719 76.34375 21.488281 77.550781 23.355469 C 78.003906 24.050781 78.496094 24.710938 78.984375 25.382812 C 80.144531 26.984375 79.886719 26.820312 79.242188 28.296875 C 79.101562 28.628906 78.882812 28.917969 78.636719 29.1875 C 78.546875 29.285156 78.453125 29.367188 78.3125 29.367188 C 78.125 29.734375 77.78125 29.738281 77.445312 29.726562 C 76.441406 29.691406 75.445312 29.640625 74.441406 29.59375 C 74.234375 29.710938 74.015625 29.675781 73.796875 29.628906 C 73.59375 29.753906 73.371094 29.714844 73.15625 29.6875 C 73.023438 29.796875 72.859375 29.753906 72.707031 29.777344 C 70.675781 30.0625 68.707031 30.570312 66.828125 31.417969 C 66.683594 31.480469 66.539062 31.53125 66.394531 31.589844 C 66.226562 31.660156 66.03125 31.738281 65.894531 31.578125 C 65.792969 31.457031 65.820312 31.238281 65.914062 31.136719 C 66.3125 30.6875 66.371094 30.070312 66.71875 29.605469 C 66.871094 29.394531 67.097656 29.269531 67.332031 29.144531 C 69.117188 28.167969 71.027344 27.535156 73.003906 27.09375 C 73.179688 27.054688 73.367188 27.042969 73.53125 26.96875 C 73.71875 26.882812 73.667969 26.722656 73.570312 26.582031 C 73.367188 26.605469 73.21875 26.523438 73.125 26.34375 C 72.933594 26.328125 72.75 26.300781 72.652344 26.101562 C 72.605469 26.125 72.574219 26.109375 72.5625 26.0625 C 72.378906 26.050781 72.210938 26.015625 72.109375 25.835938 C 71.988281 25.804688 71.859375 25.789062 71.742188 25.734375 C 70.480469 25.15625 69.226562 24.554688 67.957031 23.988281 C 66.800781 23.476562 65.636719 23 64.472656 22.507812 C 64.152344 22.414062 63.828125 22.335938 63.511719 22.230469 C 60.421875 21.230469 57.261719 20.613281 54.019531 20.476562 C 52.859375 20.425781 51.699219 20.410156 50.539062 20.382812 C 50.320312 20.507812 50.09375 20.457031 49.867188 20.410156 C 49.660156 20.535156 49.441406 20.492188 49.226562 20.449219 C 49.035156 20.582031 48.832031 20.527344 48.628906 20.507812 C 48.511719 20.605469 48.378906 20.597656 48.246094 20.550781 C 48.203125 20.582031 48.15625 20.585938 48.109375 20.554688 C 47.976562 20.660156 47.816406 20.625 47.667969 20.648438 C 46.9375 20.773438 46.1875 20.769531 45.46875 20.984375 C 45.40625 20.925781 45.191406 20.894531 45.453125 20.785156 C 45.625 20.710938 45.636719 20.660156 45.585938 20.617188 C 45.546875 20.578125 45.460938 20.550781 45.402344 20.519531 C 43.101562 20.988281 40.890625 21.726562 38.722656 22.613281 C 38.53125 22.714844 38.335938 22.8125 38.140625 22.914062 C 36.988281 23.515625 35.832031 24.117188 34.675781 24.71875 C 34.652344 24.769531 34.621094 24.800781 34.578125 24.820312 C 34.550781 24.832031 34.519531 24.839844 34.484375 24.839844 C 34.445312 24.917969 34.382812 24.957031 34.296875 24.953125 C 34.261719 25.035156 34.199219 25.074219 34.109375 25.066406 C 34.078125 25.152344 34.011719 25.1875 33.921875 25.183594 C 33.890625 25.269531 33.828125 25.3125 33.738281 25.304688 C 33.707031 25.390625 33.644531 25.429688 33.554688 25.421875 L 33.554688 25.425781 C 33.523438 25.511719 33.460938 25.550781 33.375 25.546875 L 33.371094 25.546875 C 33.316406 25.589844 33.253906 25.632812 33.195312 25.667969 L 33.1875 25.671875 C 33.160156 25.757812 33.101562 25.796875 33.011719 25.792969 L 33.003906 25.796875 C 32.976562 25.882812 32.917969 25.921875 32.828125 25.917969 L 32.820312 25.921875 C 32.820312 25.921875 32.820312 25.925781 32.820312 25.925781 C 32.820312 25.925781 32.820312 25.921875 32.820312 25.921875 C 32.792969 26.007812 32.734375 26.050781 32.644531 26.046875 L 32.640625 26.046875 C 32.613281 26.132812 32.554688 26.175781 32.464844 26.171875 L 32.460938 26.171875 C 32.433594 26.261719 32.375 26.304688 32.28125 26.300781 C 31.757812 26.726562 31.234375 27.152344 30.707031 27.578125 C 30.363281 27.714844 30.128906 27.992188 29.863281 28.226562 C 29.871094 28.269531 29.890625 28.300781 29.914062 28.328125 C 29.949219 28.375 29.992188 28.40625 30.054688 28.425781 C 29.875 28.625 29.707031 28.835938 29.445312 28.941406 C 29.363281 28.964844 29.289062 29 29.230469 29.066406 C 29.300781 29.027344 29.375 28.984375 29.445312 28.941406 C 29.402344 29.019531 29.351562 29.082031 29.253906 29.070312 C 29.230469 29.203125 29.144531 29.28125 29.023438 29.332031 C 29.007812 29.417969 28.960938 29.472656 28.871094 29.476562 C 28.832031 29.558594 28.785156 29.621094 28.6875 29.632812 C 28.675781 29.675781 28.652344 29.707031 28.605469 29.726562 C 28.464844 29.953125 28.285156 30.136719 28.058594 30.28125 C 27.949219 30.433594 27.84375 30.59375 27.664062 30.675781 C 27.632812 30.800781 27.53125 30.867188 27.4375 30.9375 C 27.011719 31.546875 26.476562 32.070312 26.148438 32.792969 C 25.96875 32.578125 25.667969 32.617188 25.625 32.339844 Z M 72.585938 25.910156 C 72.585938 25.910156 72.585938 25.910156 72.582031 25.910156 C 72.582031 25.90625 72.585938 25.90625 72.585938 25.90625 C 72.582031 25.90625 72.582031 25.910156 72.582031 25.910156 C 72.582031 25.910156 72.582031 25.914062 72.582031 25.914062 C 72.585938 25.914062 72.585938 25.910156 72.585938 25.910156 Z M 32.429688 25.671875 C 32.445312 25.660156 32.457031 25.648438 32.46875 25.636719 C 32.464844 25.636719 32.460938 25.640625 32.457031 25.640625 C 32.445312 25.648438 32.429688 25.65625 32.417969 25.667969 C 32.421875 25.667969 32.425781 25.671875 32.429688 25.671875 Z M 34.664062 24.71875 C 34.664062 24.714844 34.660156 24.714844 34.660156 24.714844 C 34.65625 24.710938 34.65625 24.703125 34.652344 24.699219 L 34.636719 24.6875 L 34.660156 24.714844 C 34.660156 24.71875 34.660156 24.71875 34.660156 24.722656 C 34.660156 24.71875 34.660156 24.71875 34.664062 24.71875 Z M 32.355469 25.644531 C 32.375 25.652344 32.394531 25.660156 32.414062 25.667969 C 32.425781 25.65625 32.4375 25.648438 32.453125 25.640625 C 32.421875 25.65625 32.390625 25.65625 32.355469 25.644531 Z M 32.53125 25.582031 C 32.546875 25.570312 32.5625 25.5625 32.574219 25.550781 C 32.574219 25.550781 32.574219 25.550781 32.574219 25.546875 C 32.5625 25.558594 32.546875 25.570312 32.53125 25.582031 Z M 26.015625 30.988281 C 26.015625 30.988281 26.011719 30.992188 26.011719 30.992188 C 26.011719 30.992188 26.007812 30.992188 26.007812 30.992188 C 26.007812 30.996094 26.007812 30.996094 26.007812 31 C 26.011719 30.996094 26.011719 30.992188 26.015625 30.988281 Z M 26.207031 30.71875 C 26.207031 30.714844 26.207031 30.710938 26.210938 30.710938 C 26.210938 30.714844 26.207031 30.71875 26.207031 30.71875 Z M 29.097656 29.082031 C 29.082031 29.074219 29.066406 29.066406 29.050781 29.054688 C 29.050781 29.066406 29.046875 29.074219 29.046875 29.085938 C 29.0625 29.082031 29.078125 29.082031 29.097656 29.082031 Z M 28.726562 29.535156 C 28.707031 29.550781 28.6875 29.578125 28.679688 29.609375 C 28.691406 29.578125 28.707031 29.554688 28.726562 29.535156 Z M 28.726562 29.535156 " fill-opacity="1" fill-rule="nonzero"/></g><path fill="#fe8282" d="M 33.179688 25.671875 C 33.242188 25.632812 33.300781 25.59375 33.359375 25.550781 C 33.328125 25.636719 33.269531 25.675781 33.179688 25.671875 Z M 33.179688 25.671875 " fill-opacity="1" fill-rule="nonzero"/><g clip-path="url(#a1156b6acc)"><path fill="#fe8282" d="M 26.054688 52.667969 L 22.140625 41.535156 C 22.105469 41.429688 22.003906 41.359375 21.890625 41.359375 L 19.644531 41.359375 C 19.53125 41.359375 19.429688 41.429688 19.394531 41.535156 L 15.480469 52.667969 C 15.453125 52.75 15.464844 52.839844 15.515625 52.910156 C 15.566406 52.980469 15.644531 53.019531 15.730469 53.019531 L 17.421875 53.019531 C 17.535156 53.019531 17.632812 52.949219 17.671875 52.84375 L 18.632812 50.105469 L 22.902344 50.105469 L 23.863281 52.84375 C 23.902344 52.949219 24 53.019531 24.113281 53.019531 L 25.804688 53.019531 C 25.890625 53.019531 25.96875 52.980469 26.019531 52.910156 C 26.070312 52.839844 26.082031 52.75 26.054688 52.667969 Z M 20.683594 44.273438 L 20.851562 44.273438 L 22.25 48.25 L 19.285156 48.25 Z M 20.683594 44.273438 " fill-opacity="1" fill-rule="nonzero"/></g><g clip-path="url(#db6204584e)"><path fill="#fe8282" d="M 35 46.8125 C 35.839844 46.355469 36.417969 45.414062 36.417969 44.394531 C 36.417969 42.515625 35.03125 41.347656 32.800781 41.347656 L 28.195312 41.347656 C 28.050781 41.347656 27.929688 41.464844 27.929688 41.613281 L 27.929688 52.765625 C 27.929688 52.914062 28.050781 53.03125 28.195312 53.03125 L 32.910156 53.03125 C 35.410156 53.03125 36.960938 51.714844 36.960938 49.597656 C 36.960938 48.273438 36.195312 47.21875 35 46.8125 Z M 30.320312 43.207031 L 32.179688 43.207031 C 33.355469 43.207031 34.039062 43.792969 34.039062 44.800781 C 34.039062 45.828125 33.308594 46.394531 31.929688 46.394531 L 30.320312 46.394531 Z M 32.347656 51.171875 L 30.320312 51.171875 L 30.320312 47.984375 L 32.273438 47.984375 C 33.777344 47.984375 34.570312 48.53125 34.570312 49.5625 C 34.570312 50.613281 33.800781 51.171875 32.347656 51.171875 Z M 32.347656 51.171875 " fill-opacity="1" fill-rule="nonzero"/></g><g clip-path="url(#dfa7021f12)"><path fill="#fe8282" d="M 46.960938 49.222656 C 46.851562 49.222656 46.753906 49.300781 46.71875 49.40625 C 46.363281 50.433594 45.367188 51.003906 44.089844 51.003906 C 42.222656 51.003906 41.09375 49.59375 41.09375 47.1875 C 41.09375 44.785156 42.222656 43.375 44.082031 43.375 C 45.390625 43.375 46.40625 44.054688 46.742188 45.214844 C 46.773438 45.328125 46.871094 45.410156 46.988281 45.410156 C 46.988281 45.410156 48.394531 45.410156 48.851562 45.410156 C 48.925781 45.410156 48.988281 45.339844 48.976562 45.265625 C 48.679688 42.984375 46.632812 41.339844 44.082031 41.339844 C 40.824219 41.339844 38.804688 43.582031 38.804688 47.191406 C 38.804688 50.800781 40.828125 53.039062 44.089844 53.039062 C 46.648438 53.039062 48.609375 51.566406 48.976562 49.375 C 48.988281 49.296875 48.929688 49.222656 48.851562 49.222656 Z M 46.960938 49.222656 " fill-opacity="1" fill-rule="nonzero"/></g><g clip-path="url(#3e3c5a06b3)"><path fill="#fe8282" d="M 92.207031 50.277344 C 92.128906 50.277344 92.058594 50.332031 92.03125 50.410156 C 91.773438 51.15625 91.054688 51.566406 90.128906 51.566406 C 88.777344 51.566406 87.960938 50.546875 87.960938 48.800781 C 87.960938 47.0625 88.777344 46.042969 90.121094 46.042969 C 91.070312 46.042969 91.808594 46.535156 92.046875 47.375 C 92.070312 47.457031 92.144531 47.515625 92.226562 47.515625 C 92.226562 47.515625 93.246094 47.515625 93.578125 47.515625 C 93.632812 47.515625 93.675781 47.46875 93.667969 47.410156 C 93.453125 45.761719 91.96875 44.570312 90.121094 44.570312 C 87.765625 44.570312 86.300781 46.195312 86.300781 48.808594 C 86.300781 51.417969 87.769531 53.039062 90.128906 53.039062 C 91.980469 53.039062 93.402344 51.976562 93.667969 50.386719 C 93.675781 50.332031 93.632812 50.277344 93.574219 50.277344 Z M 92.207031 50.277344 " fill-opacity="1" fill-rule="nonzero"/></g><g clip-path="url(#2f89bc070f)"><path fill="#fe8282" d="M 80.773438 53.042969 C 80.109375 53.042969 79.457031 52.855469 78.898438 52.527344 L 78.898438 52.902344 C 78.898438 52.980469 78.839844 53.042969 78.765625 53.042969 L 77.230469 53.042969 C 77.15625 53.042969 77.09375 52.980469 77.09375 52.902344 L 77.09375 41.46875 C 77.09375 41.394531 77.15625 41.339844 77.230469 41.339844 L 78.765625 41.339844 C 78.839844 41.339844 78.898438 41.394531 78.898438 41.46875 L 78.898438 46.171875 C 79.472656 45.835938 80.109375 45.65625 80.773438 45.65625 C 82.8125 45.65625 84.46875 47.308594 84.46875 49.351562 C 84.46875 51.390625 82.8125 53.042969 80.773438 53.042969 Z M 80.773438 51.683594 C 79.484375 51.683594 78.429688 50.636719 78.429688 49.339844 C 78.429688 48.042969 79.480469 47 80.773438 47 C 82.070312 47 83.121094 48.042969 83.121094 49.339844 C 83.121094 50.636719 82.0625 51.683594 80.773438 51.683594 Z M 80.773438 51.683594 " fill-opacity="1" fill-rule="evenodd"/></g><g clip-path="url(#6d3e9bafa1)"><path fill="#fe8282" d="M 74.410156 44.5625 C 73.941406 44.5625 73.566406 44.941406 73.566406 45.40625 L 73.566406 45.460938 C 72.859375 44.929688 71.992188 44.621094 71.042969 44.621094 C 68.730469 44.621094 66.847656 46.5 66.847656 48.808594 C 66.847656 51.125 68.730469 53.003906 71.042969 53.003906 C 71.992188 53.003906 72.867188 52.6875 73.570312 52.160156 C 73.601562 52.601562 73.964844 52.953125 74.417969 52.953125 C 74.886719 52.953125 75.265625 52.570312 75.265625 52.105469 L 75.265625 45.40625 C 75.257812 44.941406 74.882812 44.5625 74.410156 44.5625 Z M 71.042969 51.3125 C 69.664062 51.3125 68.539062 50.191406 68.539062 48.808594 C 68.539062 47.429688 69.664062 46.304688 71.042969 46.304688 C 72.425781 46.304688 73.546875 47.429688 73.546875 48.808594 C 73.546875 50.191406 72.417969 51.3125 71.042969 51.3125 Z M 71.042969 51.3125 " fill-opacity="1" fill-rule="nonzero"/></g></svg>