<svg xmlns="http://www.w3.org/2000/svg" xmlns:xlink="http://www.w3.org/1999/xlink" width="100" zoomAndPan="magnify" viewBox="0 0 75 112.499997" height="150" preserveAspectRatio="xMidYMid meet" version="1.0"><defs><clipPath id="b6a41df4f7"><path d="M 0.164062 0 L 74.832031 0 L 74.832031 112.003906 L 0.164062 112.003906 Z M 0.164062 0 " clip-rule="nonzero"/></clipPath><clipPath id="4386f3915e"><path d="M 7.632812 21.5625 L 67.367188 21.5625 L 67.367188 90.257812 L 7.632812 90.257812 Z M 7.632812 21.5625 " clip-rule="nonzero"/></clipPath></defs><g clip-path="url(#b6a41df4f7)"><path fill="#ffffff" d="M 0.164062 0 L 74.835938 0 L 74.835938 112.003906 L 0.164062 112.003906 Z M 0.164062 0 " fill-opacity="1" fill-rule="nonzero"/><path fill="#ffffff" d="M 0.164062 0 L 74.835938 0 L 74.835938 112.003906 L 0.164062 112.003906 Z M 0.164062 0 " fill-opacity="1" fill-rule="nonzero"/></g><path fill="#fe8282" d="M 50.125 67.476562 C 49.820312 67.476562 49.527344 67.417969 49.246094 67.300781 C 48.964844 67.183594 48.71875 67.019531 48.503906 66.804688 C 48.289062 66.589844 48.121094 66.339844 48.003906 66.058594 C 47.890625 65.777344 47.832031 65.484375 47.832031 65.179688 L 47.832031 62.886719 C 47.832031 62.582031 47.800781 62.285156 47.742188 61.988281 C 47.683594 61.695312 47.597656 61.40625 47.480469 61.128906 C 47.367188 60.847656 47.222656 60.585938 47.058594 60.332031 C 46.890625 60.082031 46.699219 59.851562 46.484375 59.636719 C 46.273438 59.425781 46.039062 59.234375 45.789062 59.066406 C 45.539062 58.898438 45.273438 58.757812 44.996094 58.644531 C 44.71875 58.527344 44.429688 58.441406 44.136719 58.382812 C 43.839844 58.324219 43.539062 58.292969 43.238281 58.292969 C 43.085938 58.292969 42.941406 58.324219 42.800781 58.378906 C 42.660156 58.4375 42.535156 58.523438 42.425781 58.628906 C 42.320312 58.738281 42.238281 58.863281 42.179688 59.003906 C 42.121094 59.144531 42.089844 59.289062 42.089844 59.441406 C 42.089844 59.59375 42.121094 59.738281 42.179688 59.878906 C 42.238281 60.019531 42.320312 60.144531 42.425781 60.253906 C 42.535156 60.359375 42.660156 60.445312 42.800781 60.5 C 42.941406 60.558594 43.085938 60.589844 43.238281 60.589844 C 43.542969 60.589844 43.835938 60.648438 44.117188 60.765625 C 44.398438 60.878906 44.648438 61.046875 44.863281 61.261719 C 45.078125 61.476562 45.242188 61.726562 45.359375 62.007812 C 45.476562 62.289062 45.535156 62.582031 45.535156 62.886719 L 45.535156 65.179688 C 45.535156 65.839844 45.671875 66.46875 45.941406 67.070312 C 46.214844 67.671875 46.597656 68.1875 47.09375 68.625 C 46.597656 69.058594 46.214844 69.578125 45.941406 70.175781 C 45.671875 70.777344 45.535156 71.40625 45.535156 72.066406 L 45.535156 74.363281 C 45.535156 74.667969 45.476562 74.960938 45.359375 75.242188 C 45.242188 75.523438 45.078125 75.769531 44.863281 75.984375 C 44.648438 76.203125 44.398438 76.367188 44.117188 76.484375 C 43.835938 76.601562 43.542969 76.660156 43.238281 76.660156 C 43.085938 76.660156 42.941406 76.6875 42.800781 76.746094 C 42.660156 76.804688 42.535156 76.886719 42.425781 76.996094 C 42.320312 77.101562 42.238281 77.226562 42.179688 77.367188 C 42.121094 77.507812 42.089844 77.65625 42.089844 77.804688 C 42.089844 77.957031 42.121094 78.105469 42.179688 78.246094 C 42.238281 78.386719 42.320312 78.511719 42.425781 78.617188 C 42.535156 78.726562 42.660156 78.808594 42.800781 78.867188 C 42.941406 78.925781 43.085938 78.953125 43.238281 78.953125 C 43.539062 78.953125 43.839844 78.925781 44.136719 78.867188 C 44.429688 78.808594 44.71875 78.71875 44.996094 78.605469 C 45.273438 78.488281 45.539062 78.347656 45.789062 78.179688 C 46.039062 78.011719 46.273438 77.824219 46.484375 77.609375 C 46.699219 77.394531 46.890625 77.164062 47.058594 76.914062 C 47.222656 76.664062 47.367188 76.398438 47.480469 76.121094 C 47.597656 75.839844 47.683594 75.554688 47.742188 75.257812 C 47.800781 74.964844 47.832031 74.664062 47.832031 74.363281 L 47.832031 72.066406 C 47.832031 71.761719 47.890625 71.46875 48.003906 71.1875 C 48.121094 70.90625 48.289062 70.660156 48.503906 70.445312 C 48.71875 70.230469 48.964844 70.0625 49.246094 69.945312 C 49.527344 69.828125 49.820312 69.773438 50.125 69.773438 C 50.277344 69.773438 50.425781 69.742188 50.566406 69.683594 C 50.707031 69.625 50.832031 69.542969 50.9375 69.4375 C 51.046875 69.328125 51.128906 69.203125 51.1875 69.0625 C 51.246094 68.921875 51.273438 68.777344 51.273438 68.625 C 51.273438 68.472656 51.246094 68.324219 51.1875 68.183594 C 51.128906 68.042969 51.046875 67.917969 50.9375 67.8125 C 50.832031 67.703125 50.707031 67.621094 50.566406 67.5625 C 50.425781 67.503906 50.277344 67.476562 50.125 67.476562 Z M 50.125 67.476562 " fill-opacity="1" fill-rule="nonzero"/><path fill="#fe8282" d="M 24.875 62.886719 C 24.875 62.582031 24.933594 62.289062 25.046875 62.007812 C 25.164062 61.726562 25.332031 61.476562 25.546875 61.261719 C 25.761719 61.046875 26.011719 60.878906 26.292969 60.765625 C 26.574219 60.648438 26.863281 60.589844 27.167969 60.589844 C 27.320312 60.589844 27.46875 60.558594 27.609375 60.5 C 27.75 60.445312 27.875 60.359375 27.980469 60.253906 C 28.089844 60.144531 28.171875 60.019531 28.230469 59.878906 C 28.289062 59.738281 28.316406 59.59375 28.316406 59.441406 C 28.316406 59.289062 28.289062 59.144531 28.230469 59.003906 C 28.171875 58.863281 28.089844 58.738281 27.980469 58.628906 C 27.875 58.523438 27.75 58.4375 27.609375 58.378906 C 27.46875 58.324219 27.320312 58.292969 27.167969 58.292969 C 26.867188 58.292969 26.570312 58.324219 26.273438 58.382812 C 25.976562 58.441406 25.691406 58.527344 25.414062 58.644531 C 25.132812 58.757812 24.871094 58.898438 24.617188 59.066406 C 24.367188 59.234375 24.136719 59.425781 23.921875 59.636719 C 23.710938 59.851562 23.519531 60.082031 23.351562 60.332031 C 23.183594 60.585938 23.042969 60.847656 22.925781 61.128906 C 22.8125 61.40625 22.726562 61.695312 22.667969 61.988281 C 22.609375 62.285156 22.578125 62.582031 22.578125 62.886719 L 22.578125 65.179688 C 22.578125 65.484375 22.519531 65.777344 22.402344 66.058594 C 22.285156 66.339844 22.121094 66.589844 21.90625 66.804688 C 21.691406 67.019531 21.441406 67.183594 21.160156 67.300781 C 20.878906 67.417969 20.585938 67.476562 20.28125 67.476562 C 20.128906 67.476562 19.984375 67.503906 19.84375 67.5625 C 19.703125 67.621094 19.578125 67.703125 19.472656 67.8125 C 19.363281 67.917969 19.28125 68.042969 19.222656 68.183594 C 19.164062 68.324219 19.132812 68.472656 19.132812 68.625 C 19.132812 68.777344 19.164062 68.921875 19.222656 69.0625 C 19.28125 69.203125 19.363281 69.328125 19.472656 69.4375 C 19.578125 69.542969 19.703125 69.625 19.84375 69.683594 C 19.984375 69.742188 20.128906 69.773438 20.28125 69.773438 C 20.585938 69.773438 20.878906 69.828125 21.160156 69.945312 C 21.441406 70.0625 21.691406 70.230469 21.90625 70.445312 C 22.121094 70.660156 22.285156 70.90625 22.402344 71.1875 C 22.519531 71.46875 22.578125 71.761719 22.578125 72.066406 L 22.578125 74.363281 C 22.578125 74.664062 22.609375 74.964844 22.667969 75.257812 C 22.726562 75.554688 22.8125 75.839844 22.925781 76.121094 C 23.042969 76.398438 23.183594 76.664062 23.351562 76.914062 C 23.519531 77.164062 23.710938 77.394531 23.921875 77.609375 C 24.136719 77.824219 24.367188 78.011719 24.617188 78.179688 C 24.871094 78.347656 25.132812 78.488281 25.414062 78.605469 C 25.691406 78.71875 25.976562 78.808594 26.273438 78.867188 C 26.570312 78.925781 26.867188 78.953125 27.167969 78.953125 C 27.320312 78.953125 27.46875 78.925781 27.609375 78.867188 C 27.75 78.808594 27.875 78.726562 27.980469 78.617188 C 28.089844 78.511719 28.171875 78.386719 28.230469 78.246094 C 28.289062 78.105469 28.316406 77.957031 28.316406 77.804688 C 28.316406 77.65625 28.289062 77.507812 28.230469 77.367188 C 28.171875 77.226562 28.089844 77.101562 27.980469 76.996094 C 27.875 76.886719 27.75 76.804688 27.609375 76.746094 C 27.46875 76.6875 27.320312 76.660156 27.167969 76.660156 C 26.863281 76.660156 26.574219 76.601562 26.292969 76.484375 C 26.011719 76.367188 25.761719 76.203125 25.546875 75.984375 C 25.332031 75.769531 25.164062 75.523438 25.046875 75.242188 C 24.933594 74.960938 24.875 74.667969 24.875 74.363281 L 24.875 72.066406 C 24.875 71.40625 24.738281 70.777344 24.464844 70.175781 C 24.195312 69.578125 23.8125 69.058594 23.316406 68.625 C 23.8125 68.1875 24.195312 67.671875 24.464844 67.070312 C 24.738281 66.46875 24.875 65.839844 24.875 65.179688 Z M 24.875 62.886719 " fill-opacity="1" fill-rule="nonzero"/><g clip-path="url(#4386f3915e)"><path fill="#fe8282" d="M 66.195312 21.5625 L 13.394531 21.5625 C 13.242188 21.5625 13.097656 21.59375 12.957031 21.648438 C 12.816406 21.707031 12.691406 21.792969 12.582031 21.898438 C 12.476562 22.007812 12.394531 22.132812 12.335938 22.273438 C 12.277344 22.414062 12.246094 22.558594 12.246094 22.710938 L 12.246094 26.152344 L 8.804688 26.152344 C 8.652344 26.152344 8.503906 26.183594 8.363281 26.242188 C 8.222656 26.300781 8.101562 26.382812 7.992188 26.492188 C 7.886719 26.597656 7.800781 26.722656 7.742188 26.863281 C 7.6875 27.003906 7.65625 27.148438 7.65625 27.300781 L 7.65625 89.285156 C 7.65625 89.4375 7.6875 89.582031 7.742188 89.722656 C 7.800781 89.863281 7.886719 89.988281 7.992188 90.097656 C 8.101562 90.203125 8.222656 90.285156 8.363281 90.34375 C 8.503906 90.402344 8.652344 90.433594 8.804688 90.433594 L 61.605469 90.433594 C 61.757812 90.433594 61.902344 90.402344 62.042969 90.34375 C 62.183594 90.285156 62.308594 90.203125 62.417969 90.097656 C 62.523438 89.988281 62.605469 89.863281 62.664062 89.722656 C 62.722656 89.582031 62.753906 89.4375 62.753906 89.285156 L 62.753906 85.839844 L 66.195312 85.839844 C 66.347656 85.839844 66.496094 85.8125 66.636719 85.753906 C 66.777344 85.695312 66.898438 85.613281 67.007812 85.503906 C 67.113281 85.398438 67.199219 85.273438 67.257812 85.132812 C 67.3125 84.992188 67.34375 84.847656 67.34375 84.695312 L 67.34375 22.710938 C 67.34375 22.558594 67.3125 22.414062 67.257812 22.273438 C 67.199219 22.132812 67.113281 22.007812 67.007812 21.898438 C 66.898438 21.792969 66.777344 21.707031 66.636719 21.648438 C 66.496094 21.59375 66.347656 21.5625 66.195312 21.5625 Z M 13.394531 36.484375 C 13.394531 36.109375 13.433594 35.734375 13.507812 35.363281 C 13.578125 34.996094 13.6875 34.636719 13.832031 34.289062 C 13.976562 33.941406 14.152344 33.609375 14.363281 33.296875 C 14.570312 32.984375 14.808594 32.691406 15.078125 32.425781 C 15.34375 32.160156 15.632812 31.921875 15.945312 31.710938 C 16.257812 31.503906 16.589844 31.328125 16.9375 31.183594 C 17.285156 31.039062 17.644531 30.929688 18.015625 30.855469 C 18.382812 30.78125 18.757812 30.746094 19.132812 30.746094 L 21.429688 30.746094 C 21.582031 30.746094 21.730469 30.773438 21.871094 30.832031 C 22.011719 30.890625 22.132812 30.972656 22.242188 31.082031 C 22.351562 31.1875 22.433594 31.3125 22.492188 31.453125 C 22.550781 31.59375 22.578125 31.742188 22.578125 31.894531 C 22.578125 32.046875 22.550781 32.191406 22.492188 32.332031 C 22.433594 32.472656 22.351562 32.597656 22.242188 32.703125 C 22.132812 32.8125 22.011719 32.894531 21.871094 32.953125 C 21.730469 33.011719 21.582031 33.042969 21.429688 33.042969 L 19.132812 33.042969 C 18.679688 33.042969 18.238281 33.128906 17.820312 33.304688 C 17.398438 33.480469 17.023438 33.730469 16.703125 34.054688 C 16.378906 34.375 16.132812 34.746094 15.957031 35.167969 C 15.78125 35.589844 15.691406 36.027344 15.691406 36.484375 L 15.691406 38.78125 C 15.691406 39.238281 15.78125 39.675781 15.957031 40.097656 C 16.132812 40.519531 16.378906 40.890625 16.703125 41.210938 C 17.023438 41.535156 17.398438 41.785156 17.820312 41.960938 C 18.238281 42.132812 18.679688 42.222656 19.132812 42.222656 L 21.429688 42.222656 C 21.582031 42.222656 21.730469 42.253906 21.871094 42.3125 C 22.011719 42.371094 22.132812 42.453125 22.242188 42.558594 C 22.351562 42.667969 22.433594 42.792969 22.492188 42.933594 C 22.550781 43.074219 22.578125 43.21875 22.578125 43.371094 C 22.578125 43.523438 22.550781 43.671875 22.492188 43.8125 C 22.433594 43.953125 22.351562 44.074219 22.242188 44.183594 C 22.132812 44.289062 22.011719 44.375 21.871094 44.433594 C 21.730469 44.492188 21.582031 44.519531 21.429688 44.519531 L 19.132812 44.519531 C 18.757812 44.519531 18.382812 44.484375 18.015625 44.410156 C 17.644531 44.335938 17.285156 44.226562 16.9375 44.082031 C 16.589844 43.9375 16.257812 43.761719 15.945312 43.550781 C 15.632812 43.34375 15.34375 43.105469 15.078125 42.839844 C 14.808594 42.570312 14.570312 42.28125 14.363281 41.96875 C 14.152344 41.65625 13.976562 41.324219 13.832031 40.976562 C 13.6875 40.628906 13.578125 40.269531 13.507812 39.898438 C 13.433594 39.53125 13.394531 39.15625 13.394531 38.78125 Z M 60.457031 88.136719 L 9.953125 88.136719 L 9.953125 49.109375 L 60.457031 49.109375 Z M 30.039062 38.78125 L 28.890625 38.78125 C 28.628906 38.78125 28.367188 38.753906 28.109375 38.703125 C 27.847656 38.652344 27.597656 38.574219 27.355469 38.472656 C 27.109375 38.375 26.878906 38.25 26.660156 38.101562 C 26.441406 37.957031 26.238281 37.789062 26.050781 37.605469 C 25.863281 37.417969 25.699219 37.214844 25.550781 36.996094 C 25.40625 36.777344 25.28125 36.542969 25.179688 36.300781 C 25.078125 36.058594 25.003906 35.804688 24.949219 35.546875 C 24.898438 35.289062 24.875 35.027344 24.875 34.761719 C 24.875 34.5 24.898438 34.238281 24.949219 33.980469 C 25.003906 33.71875 25.078125 33.46875 25.179688 33.226562 C 25.28125 32.980469 25.40625 32.75 25.550781 32.53125 C 25.699219 32.3125 25.863281 32.109375 26.050781 31.921875 C 26.238281 31.734375 26.441406 31.570312 26.660156 31.421875 C 26.878906 31.277344 27.109375 31.152344 27.355469 31.050781 C 27.597656 30.949219 27.847656 30.875 28.109375 30.824219 C 28.367188 30.769531 28.628906 30.746094 28.890625 30.746094 L 30.613281 30.746094 C 31.070312 30.746094 31.507812 30.835938 31.929688 31.011719 C 32.351562 31.1875 32.722656 31.433594 33.046875 31.757812 C 33.367188 32.078125 33.617188 32.453125 33.792969 32.871094 C 33.96875 33.292969 34.054688 33.734375 34.054688 34.1875 C 34.054688 34.339844 34.027344 34.488281 33.96875 34.628906 C 33.910156 34.769531 33.828125 34.894531 33.71875 35 C 33.613281 35.109375 33.488281 35.191406 33.347656 35.25 C 33.207031 35.308594 33.0625 35.335938 32.910156 35.335938 C 32.757812 35.335938 32.609375 35.308594 32.46875 35.25 C 32.328125 35.191406 32.203125 35.109375 32.097656 35 C 31.988281 34.894531 31.90625 34.769531 31.847656 34.628906 C 31.789062 34.488281 31.761719 34.339844 31.761719 34.1875 C 31.761719 34.035156 31.730469 33.890625 31.671875 33.75 C 31.613281 33.609375 31.53125 33.484375 31.425781 33.378906 C 31.316406 33.269531 31.191406 33.1875 31.050781 33.128906 C 30.910156 33.070312 30.765625 33.042969 30.613281 33.042969 L 28.890625 33.042969 C 28.664062 33.042969 28.441406 33.085938 28.230469 33.171875 C 28.019531 33.257812 27.835938 33.382812 27.675781 33.546875 C 27.511719 33.707031 27.386719 33.894531 27.300781 34.105469 C 27.214844 34.316406 27.167969 34.535156 27.167969 34.761719 C 27.167969 34.992188 27.214844 35.210938 27.300781 35.421875 C 27.386719 35.632812 27.511719 35.820312 27.675781 35.980469 C 27.835938 36.140625 28.019531 36.265625 28.230469 36.355469 C 28.441406 36.441406 28.664062 36.484375 28.890625 36.484375 L 30.039062 36.484375 C 30.304688 36.484375 30.5625 36.511719 30.824219 36.5625 C 31.082031 36.613281 31.332031 36.691406 31.578125 36.789062 C 31.820312 36.890625 32.050781 37.015625 32.269531 37.160156 C 32.492188 37.308594 32.691406 37.476562 32.878906 37.660156 C 33.066406 37.847656 33.234375 38.050781 33.378906 38.269531 C 33.527344 38.488281 33.648438 38.722656 33.75 38.964844 C 33.851562 39.207031 33.929688 39.460938 33.980469 39.71875 C 34.03125 39.976562 34.054688 40.238281 34.054688 40.503906 C 34.054688 40.765625 34.03125 41.027344 33.980469 41.285156 C 33.929688 41.542969 33.851562 41.796875 33.75 42.039062 C 33.648438 42.285156 33.527344 42.515625 33.378906 42.734375 C 33.234375 42.953125 33.066406 43.15625 32.878906 43.34375 C 32.691406 43.53125 32.492188 43.695312 32.269531 43.84375 C 32.050781 43.988281 31.820312 44.113281 31.578125 44.214844 C 31.332031 44.316406 31.082031 44.390625 30.824219 44.441406 C 30.5625 44.492188 30.304688 44.519531 30.039062 44.519531 L 28.316406 44.519531 C 27.859375 44.519531 27.421875 44.429688 27 44.253906 C 26.578125 44.078125 26.207031 43.832031 25.886719 43.507812 C 25.5625 43.183594 25.3125 42.8125 25.140625 42.390625 C 24.964844 41.972656 24.875 41.53125 24.875 41.074219 C 24.875 40.921875 24.902344 40.777344 24.960938 40.636719 C 25.019531 40.496094 25.101562 40.371094 25.210938 40.265625 C 25.316406 40.15625 25.441406 40.074219 25.582031 40.015625 C 25.722656 39.957031 25.871094 39.929688 26.023438 39.929688 C 26.175781 39.929688 26.320312 39.957031 26.460938 40.015625 C 26.601562 40.074219 26.726562 40.15625 26.832031 40.265625 C 26.941406 40.371094 27.023438 40.496094 27.082031 40.636719 C 27.140625 40.777344 27.167969 40.921875 27.167969 41.074219 C 27.167969 41.226562 27.199219 41.375 27.257812 41.515625 C 27.316406 41.65625 27.398438 41.78125 27.503906 41.886719 C 27.613281 41.996094 27.738281 42.078125 27.878906 42.136719 C 28.019531 42.195312 28.164062 42.222656 28.316406 42.222656 L 30.039062 42.222656 C 30.265625 42.222656 30.488281 42.179688 30.699219 42.09375 C 30.910156 42.003906 31.09375 41.882812 31.257812 41.71875 C 31.417969 41.558594 31.542969 41.371094 31.628906 41.160156 C 31.71875 40.949219 31.761719 40.730469 31.761719 40.503906 C 31.761719 40.273438 31.71875 40.054688 31.628906 39.84375 C 31.542969 39.632812 31.417969 39.445312 31.257812 39.285156 C 31.09375 39.125 30.910156 39 30.699219 38.910156 C 30.488281 38.824219 30.265625 38.78125 30.039062 38.78125 Z M 41.515625 38.78125 L 40.371094 38.78125 C 40.105469 38.78125 39.84375 38.753906 39.585938 38.703125 C 39.328125 38.652344 39.074219 38.574219 38.832031 38.472656 C 38.589844 38.375 38.355469 38.25 38.136719 38.101562 C 37.917969 37.957031 37.714844 37.789062 37.527344 37.605469 C 37.34375 37.417969 37.175781 37.214844 37.027344 36.996094 C 36.882812 36.777344 36.757812 36.542969 36.65625 36.300781 C 36.558594 36.058594 36.480469 35.804688 36.429688 35.546875 C 36.378906 35.289062 36.351562 35.027344 36.351562 34.761719 C 36.351562 34.5 36.378906 34.238281 36.429688 33.980469 C 36.480469 33.71875 36.558594 33.46875 36.65625 33.226562 C 36.757812 32.980469 36.882812 32.75 37.027344 32.53125 C 37.175781 32.3125 37.34375 32.109375 37.527344 31.921875 C 37.714844 31.734375 37.917969 31.570312 38.136719 31.421875 C 38.355469 31.277344 38.589844 31.152344 38.832031 31.050781 C 39.074219 30.949219 39.328125 30.875 39.585938 30.824219 C 39.84375 30.769531 40.105469 30.746094 40.371094 30.746094 L 42.089844 30.746094 C 42.546875 30.746094 42.984375 30.835938 43.40625 31.011719 C 43.828125 31.1875 44.199219 31.433594 44.523438 31.757812 C 44.847656 32.078125 45.09375 32.453125 45.269531 32.871094 C 45.445312 33.292969 45.535156 33.734375 45.535156 34.1875 C 45.535156 34.339844 45.503906 34.488281 45.449219 34.628906 C 45.390625 34.769531 45.304688 34.894531 45.199219 35 C 45.089844 35.109375 44.96875 35.191406 44.828125 35.25 C 44.6875 35.308594 44.539062 35.335938 44.386719 35.335938 C 44.234375 35.335938 44.089844 35.308594 43.949219 35.25 C 43.808594 35.191406 43.683594 35.109375 43.574219 35 C 43.46875 34.894531 43.382812 34.769531 43.328125 34.628906 C 43.269531 34.488281 43.238281 34.339844 43.238281 34.1875 C 43.238281 34.035156 43.210938 33.890625 43.152344 33.75 C 43.09375 33.609375 43.011719 33.484375 42.902344 33.378906 C 42.796875 33.269531 42.671875 33.1875 42.53125 33.128906 C 42.390625 33.070312 42.242188 33.042969 42.089844 33.042969 L 40.371094 33.042969 C 40.140625 33.042969 39.921875 33.085938 39.710938 33.171875 C 39.5 33.257812 39.3125 33.382812 39.152344 33.546875 C 38.992188 33.707031 38.867188 33.894531 38.777344 34.105469 C 38.691406 34.316406 38.648438 34.535156 38.648438 34.761719 C 38.648438 34.992188 38.691406 35.210938 38.777344 35.421875 C 38.867188 35.632812 38.992188 35.820312 39.152344 35.980469 C 39.3125 36.140625 39.5 36.265625 39.710938 36.355469 C 39.921875 36.441406 40.140625 36.484375 40.371094 36.484375 L 41.515625 36.484375 C 41.78125 36.484375 42.042969 36.511719 42.300781 36.5625 C 42.558594 36.613281 42.8125 36.691406 43.054688 36.789062 C 43.296875 36.890625 43.53125 37.015625 43.75 37.160156 C 43.96875 37.308594 44.171875 37.476562 44.359375 37.660156 C 44.542969 37.847656 44.710938 38.050781 44.859375 38.269531 C 45.003906 38.488281 45.128906 38.722656 45.230469 38.964844 C 45.328125 39.207031 45.40625 39.460938 45.457031 39.71875 C 45.507812 39.976562 45.535156 40.238281 45.535156 40.503906 C 45.535156 40.765625 45.507812 41.027344 45.457031 41.285156 C 45.40625 41.542969 45.328125 41.796875 45.230469 42.039062 C 45.128906 42.285156 45.003906 42.515625 44.859375 42.734375 C 44.710938 42.953125 44.542969 43.15625 44.359375 43.34375 C 44.171875 43.53125 43.96875 43.695312 43.75 43.84375 C 43.53125 43.988281 43.296875 44.113281 43.054688 44.214844 C 42.8125 44.316406 42.558594 44.390625 42.300781 44.441406 C 42.042969 44.492188 41.78125 44.519531 41.515625 44.519531 L 39.796875 44.519531 C 39.339844 44.519531 38.902344 44.429688 38.480469 44.253906 C 38.058594 44.078125 37.6875 43.832031 37.363281 43.507812 C 37.042969 43.183594 36.792969 42.8125 36.617188 42.390625 C 36.441406 41.972656 36.351562 41.53125 36.351562 41.074219 C 36.351562 40.921875 36.382812 40.777344 36.441406 40.636719 C 36.496094 40.496094 36.582031 40.371094 36.6875 40.265625 C 36.796875 40.15625 36.921875 40.074219 37.0625 40.015625 C 37.203125 39.957031 37.347656 39.929688 37.5 39.929688 C 37.652344 39.929688 37.796875 39.957031 37.9375 40.015625 C 38.078125 40.074219 38.203125 40.15625 38.3125 40.265625 C 38.417969 40.371094 38.503906 40.496094 38.558594 40.636719 C 38.617188 40.777344 38.648438 40.921875 38.648438 41.074219 C 38.648438 41.226562 38.675781 41.375 38.734375 41.515625 C 38.792969 41.65625 38.875 41.78125 38.984375 41.886719 C 39.089844 41.996094 39.214844 42.078125 39.355469 42.136719 C 39.496094 42.195312 39.644531 42.222656 39.796875 42.222656 L 41.515625 42.222656 C 41.746094 42.222656 41.964844 42.179688 42.175781 42.09375 C 42.386719 42.003906 42.574219 41.882812 42.734375 41.71875 C 42.894531 41.558594 43.019531 41.371094 43.109375 41.160156 C 43.195312 40.949219 43.238281 40.730469 43.238281 40.503906 C 43.238281 40.273438 43.195312 40.054688 43.109375 39.84375 C 43.019531 39.632812 42.894531 39.445312 42.734375 39.285156 C 42.574219 39.125 42.386719 39 42.175781 38.910156 C 41.964844 38.824219 41.746094 38.78125 41.515625 38.78125 Z M 51.273438 36.484375 L 51.273438 30.070312 L 58.839844 37.632812 L 52.421875 37.632812 C 52.269531 37.632812 52.125 37.601562 51.984375 37.546875 C 51.84375 37.488281 51.71875 37.402344 51.609375 37.296875 C 51.503906 37.1875 51.417969 37.066406 51.359375 36.925781 C 51.304688 36.785156 51.273438 36.636719 51.273438 36.484375 Z M 65.046875 83.546875 L 62.753906 83.546875 L 62.753906 38.78125 C 62.75 38.464844 62.640625 38.191406 62.417969 37.964844 L 50.941406 26.488281 C 50.714844 26.265625 50.441406 26.15625 50.125 26.152344 L 14.542969 26.152344 L 14.542969 23.859375 L 65.046875 23.859375 Z M 65.046875 83.546875 " fill-opacity="1" fill-rule="nonzero"/></g></svg>