<svg xmlns="http://www.w3.org/2000/svg" xmlns:xlink="http://www.w3.org/1999/xlink" width="100" zoomAndPan="magnify" viewBox="0 0 75 74.999997" height="100" preserveAspectRatio="xMidYMid meet" version="1.0"><defs><clipPath id="cbf49781a3"><path d="M 4.902344 13.011719 L 70.152344 13.011719 L 70.152344 61.761719 L 4.902344 61.761719 Z M 4.902344 13.011719 " clip-rule="nonzero"/></clipPath><clipPath id="7e5b7040be"><path d="M 15.496094 71.25 L 21.867188 71.25 L 21.867188 75 L 15.496094 75 Z M 15.496094 71.25 " clip-rule="nonzero"/></clipPath></defs><g clip-path="url(#cbf49781a3)"><path fill="#fe8282" d="M 66.449219 13.015625 L 14.09375 13.015625 C 12.101562 13.015625 10.480469 14.636719 10.480469 16.628906 L 10.480469 39.808594 C 7.144531 41.949219 4.929688 45.691406 4.929688 49.941406 C 4.929688 56.578125 10.332031 61.980469 16.96875 61.980469 C 18.449219 61.980469 19.867188 61.710938 21.179688 61.222656 L 66.453125 61.222656 C 68.445312 61.222656 70.066406 59.601562 70.066406 57.605469 L 70.066406 16.628906 C 70.066406 14.632812 68.445312 13.015625 66.449219 13.015625 Z M 6.550781 49.941406 C 6.550781 44.46875 10.792969 39.96875 16.160156 39.554688 L 16.160156 49.941406 C 16.160156 50.390625 16.523438 50.753906 16.96875 50.753906 L 27.355469 50.753906 C 26.941406 56.117188 22.441406 60.359375 16.96875 60.359375 C 11.226562 60.359375 6.550781 55.6875 6.550781 49.941406 Z M 68.445312 57.605469 C 68.445312 58.707031 67.550781 59.601562 66.449219 59.601562 L 24.152344 59.601562 C 27.097656 57.402344 29.011719 53.890625 29.011719 49.941406 C 29.011719 49.496094 28.648438 49.132812 28.199219 49.132812 L 17.78125 49.132812 L 17.78125 38.714844 C 17.78125 38.265625 17.417969 37.902344 16.972656 37.902344 C 15.238281 37.902344 13.59375 38.269531 12.105469 38.933594 L 12.105469 16.628906 C 12.105469 15.527344 13 14.632812 14.097656 14.632812 L 66.453125 14.632812 C 67.550781 14.632812 68.445312 15.527344 68.445312 16.628906 Z M 42.457031 41.421875 L 35.761719 41.421875 C 35.316406 41.421875 34.953125 41.785156 34.953125 42.230469 L 34.953125 56.050781 C 34.953125 56.496094 35.316406 56.859375 35.761719 56.859375 L 42.457031 56.859375 C 42.90625 56.859375 43.269531 56.496094 43.269531 56.050781 L 43.269531 42.230469 C 43.269531 41.785156 42.90625 41.421875 42.457031 41.421875 Z M 41.648438 55.238281 L 36.574219 55.238281 L 36.574219 43.042969 L 41.648438 43.042969 Z M 53.53125 33.886719 L 46.835938 33.886719 C 46.390625 33.886719 46.027344 34.25 46.027344 34.695312 L 46.027344 56.050781 C 46.027344 56.496094 46.390625 56.859375 46.835938 56.859375 L 53.53125 56.859375 C 53.980469 56.859375 54.34375 56.496094 54.34375 56.050781 L 54.34375 34.695312 C 54.34375 34.25 53.980469 33.886719 53.53125 33.886719 Z M 52.722656 55.238281 L 47.648438 55.238281 L 47.648438 35.507812 L 52.722656 35.507812 Z M 64.605469 37.132812 L 57.910156 37.132812 C 57.464844 37.132812 57.101562 37.496094 57.101562 37.945312 L 57.101562 56.050781 C 57.101562 56.496094 57.464844 56.859375 57.910156 56.859375 L 64.605469 56.859375 C 65.054688 56.859375 65.417969 56.496094 65.417969 56.050781 L 65.417969 37.945312 C 65.417969 37.496094 65.054688 37.132812 64.605469 37.132812 Z M 63.796875 55.238281 L 58.722656 55.238281 L 58.722656 38.753906 L 63.796875 38.753906 Z M 16.363281 23.789062 L 21.179688 23.789062 C 21.628906 23.789062 21.992188 23.425781 21.992188 22.976562 L 21.992188 18.160156 C 21.992188 17.710938 21.628906 17.347656 21.179688 17.347656 L 16.363281 17.347656 C 15.914062 17.347656 15.550781 17.710938 15.550781 18.160156 L 15.550781 22.976562 C 15.550781 23.425781 15.914062 23.789062 16.363281 23.789062 Z M 17.175781 18.96875 L 20.371094 18.96875 L 20.371094 22.167969 L 17.175781 22.167969 Z M 23.871094 18.917969 C 23.871094 18.46875 24.234375 18.105469 24.679688 18.105469 L 36.695312 18.105469 C 37.144531 18.105469 37.507812 18.46875 37.507812 18.917969 C 37.507812 19.363281 37.144531 19.730469 36.695312 19.730469 L 24.679688 19.730469 C 24.234375 19.730469 23.871094 19.363281 23.871094 18.917969 Z M 23.871094 22.21875 C 23.871094 21.773438 24.234375 21.410156 24.679688 21.410156 L 34.179688 21.410156 C 34.625 21.410156 34.988281 21.773438 34.988281 22.21875 C 34.988281 22.667969 34.625 23.03125 34.179688 23.03125 L 24.679688 23.03125 C 24.234375 23.03125 23.871094 22.667969 23.871094 22.21875 Z M 21.992188 30.734375 L 21.992188 25.917969 C 21.992188 25.46875 21.628906 25.105469 21.179688 25.105469 L 16.363281 25.105469 C 15.914062 25.105469 15.550781 25.46875 15.550781 25.917969 L 15.550781 30.734375 C 15.550781 31.179688 15.914062 31.542969 16.363281 31.542969 L 21.179688 31.542969 C 21.628906 31.542969 21.992188 31.179688 21.992188 30.734375 Z M 20.371094 29.921875 L 17.175781 29.921875 L 17.175781 26.726562 L 20.371094 26.726562 Z M 23.871094 26.671875 C 23.871094 26.226562 24.234375 25.863281 24.679688 25.863281 L 36.695312 25.863281 C 37.144531 25.863281 37.507812 26.226562 37.507812 26.671875 C 37.507812 27.121094 37.144531 27.484375 36.695312 27.484375 L 24.679688 27.484375 C 24.234375 27.484375 23.871094 27.121094 23.871094 26.671875 Z M 34.988281 29.976562 C 34.988281 30.421875 34.625 30.785156 34.179688 30.785156 L 24.679688 30.785156 C 24.234375 30.785156 23.871094 30.421875 23.871094 29.976562 C 23.871094 29.527344 24.234375 29.164062 24.679688 29.164062 L 34.179688 29.164062 C 34.628906 29.164062 34.988281 29.527344 34.988281 29.976562 Z M 20.214844 34.660156 C 19.765625 34.660156 19.402344 35.023438 19.402344 35.46875 L 19.402344 46.699219 C 19.402344 47.144531 19.765625 47.507812 20.214844 47.507812 L 31.441406 47.507812 C 31.890625 47.507812 32.253906 47.144531 32.253906 46.699219 C 32.253906 40.0625 26.851562 34.660156 20.214844 34.660156 Z M 21.023438 45.886719 L 21.023438 36.3125 C 26.125 36.707031 30.203125 40.789062 30.597656 45.886719 Z M 21.023438 45.886719 " fill-opacity="1" fill-rule="nonzero"/></g><g clip-path="url(#7e5b7040be)"><path fill="#fffff9" d="M 15.496094 71.25 L 21.871094 71.25 L 21.871094 75 L 15.496094 75 Z M 15.496094 71.25 " fill-opacity="1" fill-rule="nonzero"/></g></svg>