<svg xmlns="http://www.w3.org/2000/svg" xmlns:xlink="http://www.w3.org/1999/xlink" width="100" zoomAndPan="magnify" viewBox="0 0 75 112.499997" height="150" preserveAspectRatio="xMidYMid meet" version="1.0"><defs><clipPath id="f7e2a7e76e"><path d="M 0.164062 0 L 74.832031 0 L 74.832031 112.003906 L 0.164062 112.003906 Z M 0.164062 0 " clip-rule="nonzero"/></clipPath><clipPath id="92e3d2b051"><path d="M 8.519531 27 L 66.761719 27 L 66.761719 93.082031 L 8.519531 93.082031 Z M 8.519531 27 " clip-rule="nonzero"/></clipPath><clipPath id="8d715c9358"><path d="M 8.519531 14 L 66.761719 14 L 66.761719 80 L 8.519531 80 Z M 8.519531 14 " clip-rule="nonzero"/></clipPath></defs><g clip-path="url(#f7e2a7e76e)"><path fill="#ffffff" d="M 0.164062 0 L 74.835938 0 L 74.835938 112.003906 L 0.164062 112.003906 Z M 0.164062 0 " fill-opacity="1" fill-rule="nonzero"/><path fill="#ffffff" d="M 0.164062 0 L 74.835938 0 L 74.835938 112.003906 L 0.164062 112.003906 Z M 0.164062 0 " fill-opacity="1" fill-rule="nonzero"/></g><g clip-path="url(#92e3d2b051)"><path fill="#fe8282" d="M 65.332031 82.078125 C 65.179688 82.078125 65.03125 82.105469 64.890625 82.164062 C 64.746094 82.222656 64.621094 82.304688 64.511719 82.414062 C 64.402344 82.523438 64.320312 82.648438 64.261719 82.789062 C 64.203125 82.933594 64.175781 83.082031 64.175781 83.234375 L 64.175781 88.925781 C 64.175781 89.183594 64.125 89.429688 64.027344 89.667969 C 63.929688 89.902344 63.789062 90.113281 63.609375 90.292969 C 63.425781 90.476562 63.21875 90.613281 62.980469 90.714844 C 62.742188 90.8125 62.496094 90.859375 62.238281 90.863281 L 12.765625 90.863281 C 12.511719 90.859375 12.265625 90.808594 12.027344 90.710938 C 11.792969 90.613281 11.585938 90.472656 11.40625 90.289062 C 11.222656 90.109375 11.085938 89.902344 10.988281 89.664062 C 10.890625 89.429688 10.839844 89.183594 10.839844 88.925781 L 10.839844 28.816406 C 10.839844 28.660156 10.8125 28.511719 10.753906 28.371094 C 10.691406 28.230469 10.609375 28.101562 10.5 27.996094 C 10.390625 27.886719 10.265625 27.800781 10.125 27.742188 C 9.980469 27.683594 9.832031 27.65625 9.679688 27.65625 C 9.527344 27.65625 9.378906 27.683594 9.234375 27.742188 C 9.09375 27.800781 8.96875 27.886719 8.859375 27.996094 C 8.75 28.101562 8.667969 28.230469 8.609375 28.371094 C 8.550781 28.511719 8.519531 28.660156 8.519531 28.816406 L 8.519531 88.917969 C 8.519531 89.195312 8.546875 89.472656 8.601562 89.746094 C 8.65625 90.019531 8.738281 90.285156 8.84375 90.539062 C 8.953125 90.796875 9.082031 91.042969 9.238281 91.273438 C 9.390625 91.507812 9.566406 91.71875 9.765625 91.917969 C 9.960938 92.113281 10.175781 92.289062 10.410156 92.445312 C 10.640625 92.601562 10.882812 92.730469 11.140625 92.839844 C 11.398438 92.945312 11.664062 93.027344 11.9375 93.082031 C 12.210938 93.136719 12.488281 93.164062 12.765625 93.164062 L 62.246094 93.164062 C 62.523438 93.164062 62.800781 93.136719 63.074219 93.082031 C 63.347656 93.027344 63.613281 92.945312 63.871094 92.839844 C 64.128906 92.734375 64.375 92.601562 64.605469 92.449219 C 64.835938 92.292969 65.050781 92.117188 65.25 91.917969 C 65.445312 91.722656 65.621094 91.507812 65.777344 91.277344 C 65.933594 91.042969 66.0625 90.800781 66.171875 90.542969 C 66.277344 90.285156 66.355469 90.019531 66.410156 89.746094 C 66.464844 89.472656 66.492188 89.195312 66.492188 88.917969 L 66.492188 83.226562 C 66.492188 83.070312 66.460938 82.925781 66.402344 82.785156 C 66.34375 82.644531 66.257812 82.519531 66.148438 82.410156 C 66.042969 82.304688 65.914062 82.222656 65.773438 82.164062 C 65.632812 82.105469 65.484375 82.078125 65.332031 82.078125 Z M 65.332031 82.078125 " fill-opacity="1" fill-rule="nonzero"/></g><g clip-path="url(#8d715c9358)"><path fill="#fe8282" d="M 66.15625 35.996094 L 44.515625 14.347656 C 44.285156 14.125 44.011719 14.011719 43.691406 14.011719 L 12.765625 14.011719 C 12.488281 14.011719 12.210938 14.039062 11.9375 14.09375 C 11.664062 14.148438 11.398438 14.230469 11.140625 14.335938 C 10.886719 14.441406 10.640625 14.574219 10.410156 14.730469 C 10.175781 14.882812 9.964844 15.058594 9.765625 15.257812 C 9.570312 15.453125 9.394531 15.667969 9.238281 15.898438 C 9.082031 16.132812 8.953125 16.375 8.84375 16.632812 C 8.738281 16.890625 8.65625 17.15625 8.601562 17.429688 C 8.546875 17.703125 8.519531 17.976562 8.519531 18.257812 L 8.519531 23.804688 C 8.519531 23.960938 8.550781 24.109375 8.609375 24.25 C 8.667969 24.390625 8.75 24.519531 8.859375 24.625 C 8.96875 24.734375 9.09375 24.820312 9.234375 24.878906 C 9.378906 24.9375 9.527344 24.964844 9.679688 24.964844 C 9.832031 24.964844 9.980469 24.9375 10.125 24.878906 C 10.265625 24.820312 10.390625 24.734375 10.5 24.625 C 10.609375 24.519531 10.691406 24.390625 10.753906 24.25 C 10.8125 24.109375 10.839844 23.960938 10.839844 23.804688 L 10.839844 18.257812 C 10.839844 18 10.890625 17.757812 10.988281 17.519531 C 11.085938 17.285156 11.226562 17.078125 11.40625 16.898438 C 11.585938 16.71875 11.796875 16.578125 12.03125 16.480469 C 12.265625 16.382812 12.511719 16.332031 12.765625 16.332031 L 42.535156 16.332031 L 42.535156 33.722656 C 42.535156 34 42.5625 34.277344 42.617188 34.550781 C 42.671875 34.824219 42.75 35.089844 42.859375 35.347656 C 42.964844 35.605469 43.097656 35.851562 43.25 36.085938 C 43.40625 36.316406 43.582031 36.53125 43.78125 36.730469 C 43.976562 36.925781 44.191406 37.101562 44.421875 37.257812 C 44.65625 37.414062 44.898438 37.542969 45.15625 37.652344 C 45.414062 37.757812 45.679688 37.839844 45.953125 37.894531 C 46.226562 37.949219 46.503906 37.976562 46.785156 37.980469 L 64.175781 37.980469 L 64.175781 78.296875 C 64.183594 78.441406 64.21875 78.585938 64.28125 78.71875 C 64.34375 78.855469 64.425781 78.972656 64.535156 79.074219 C 64.640625 79.175781 64.765625 79.253906 64.902344 79.308594 C 65.039062 79.363281 65.183594 79.390625 65.332031 79.390625 C 65.480469 79.390625 65.621094 79.363281 65.761719 79.308594 C 65.898438 79.253906 66.019531 79.175781 66.128906 79.074219 C 66.234375 78.972656 66.320312 78.855469 66.382812 78.71875 C 66.445312 78.585938 66.480469 78.441406 66.488281 78.296875 L 66.488281 36.828125 C 66.488281 36.507812 66.375 36.234375 66.148438 36.011719 Z M 44.855469 33.71875 L 44.855469 17.972656 L 62.539062 35.65625 L 46.785156 35.65625 C 46.527344 35.652344 46.28125 35.605469 46.046875 35.503906 C 45.808594 35.40625 45.601562 35.265625 45.417969 35.085938 C 45.238281 34.902344 45.097656 34.695312 45 34.457031 C 44.902344 34.222656 44.855469 33.976562 44.855469 33.71875 Z M 44.855469 33.71875 " fill-opacity="1" fill-rule="nonzero"/></g><path fill="#fe8282" d="M 23.003906 62.042969 L 52.015625 62.042969 C 52.1875 62.042969 52.351562 62.078125 52.511719 62.144531 C 52.667969 62.210938 52.808594 62.304688 52.929688 62.425781 C 53.046875 62.546875 53.140625 62.683594 53.207031 62.84375 C 53.273438 63 53.304688 63.164062 53.308594 63.335938 C 53.304688 63.507812 53.273438 63.671875 53.207031 63.828125 C 53.140625 63.984375 53.046875 64.125 52.925781 64.246094 C 52.808594 64.367188 52.667969 64.460938 52.511719 64.527344 C 52.351562 64.589844 52.1875 64.625 52.015625 64.625 L 23.003906 64.625 C 22.832031 64.625 22.667969 64.59375 22.511719 64.527344 C 22.351562 64.460938 22.210938 64.367188 22.089844 64.25 C 21.96875 64.128906 21.875 63.988281 21.808594 63.828125 C 21.742188 63.671875 21.707031 63.507812 21.707031 63.335938 C 21.707031 63.164062 21.738281 63 21.804688 62.839844 C 21.871094 62.679688 21.964844 62.542969 22.089844 62.421875 C 22.210938 62.300781 22.351562 62.207031 22.507812 62.140625 C 22.667969 62.074219 22.832031 62.042969 23.003906 62.042969 Z M 23.003906 62.042969 " fill-opacity="1" fill-rule="evenodd"/><path fill="#fe8282" d="M 36.777344 68.925781 L 52.015625 68.925781 C 52.1875 68.925781 52.355469 68.960938 52.511719 69.027344 C 52.671875 69.09375 52.808594 69.1875 52.929688 69.3125 C 53.050781 69.433594 53.144531 69.574219 53.210938 69.734375 C 53.273438 69.890625 53.308594 70.058594 53.308594 70.230469 C 53.308594 70.398438 53.273438 70.566406 53.210938 70.722656 C 53.144531 70.882812 53.050781 71.023438 52.929688 71.144531 C 52.808594 71.265625 52.667969 71.359375 52.511719 71.425781 C 52.351562 71.492188 52.1875 71.527344 52.015625 71.527344 L 36.777344 71.527344 C 36.605469 71.527344 36.441406 71.496094 36.28125 71.429688 C 36.125 71.363281 35.984375 71.269531 35.859375 71.148438 C 35.738281 71.023438 35.644531 70.882812 35.578125 70.726562 C 35.511719 70.566406 35.480469 70.402344 35.480469 70.230469 C 35.480469 70.054688 35.511719 69.890625 35.578125 69.730469 C 35.644531 69.570312 35.738281 69.429688 35.859375 69.308594 C 35.980469 69.1875 36.121094 69.09375 36.28125 69.027344 C 36.441406 68.960938 36.605469 68.925781 36.777344 68.925781 Z M 36.777344 68.925781 " fill-opacity="1" fill-rule="evenodd"/><path fill="#fe8282" d="M 36.777344 75.820312 L 52.015625 75.820312 C 52.1875 75.820312 52.351562 75.855469 52.511719 75.921875 C 52.667969 75.988281 52.808594 76.082031 52.929688 76.203125 C 53.050781 76.324219 53.144531 76.464844 53.210938 76.625 C 53.273438 76.78125 53.308594 76.949219 53.308594 77.117188 C 53.304688 77.289062 53.273438 77.453125 53.207031 77.613281 C 53.140625 77.769531 53.046875 77.910156 52.929688 78.03125 C 52.808594 78.152344 52.667969 78.246094 52.511719 78.3125 C 52.351562 78.378906 52.1875 78.410156 52.015625 78.414062 L 36.777344 78.414062 C 36.605469 78.410156 36.441406 78.378906 36.285156 78.3125 C 36.125 78.246094 35.984375 78.152344 35.863281 78.03125 C 35.742188 77.910156 35.648438 77.773438 35.582031 77.613281 C 35.515625 77.457031 35.480469 77.289062 35.480469 77.117188 C 35.480469 76.945312 35.511719 76.78125 35.578125 76.621094 C 35.644531 76.464844 35.738281 76.324219 35.859375 76.199219 C 35.984375 76.078125 36.125 75.984375 36.28125 75.917969 C 36.441406 75.851562 36.605469 75.820312 36.777344 75.820312 Z M 36.777344 75.820312 " fill-opacity="1" fill-rule="evenodd"/><path fill="#fe8282" d="M 22.277344 69.199219 L 30.730469 69.199219 C 30.875 69.199219 31 69.25 31.101562 69.351562 C 31.207031 69.457031 31.257812 69.582031 31.257812 69.726562 L 31.257812 77.632812 C 31.257812 77.777344 31.207031 77.898438 31.101562 78.003906 C 31 78.105469 30.875 78.15625 30.730469 78.152344 L 22.277344 78.152344 C 22.132812 78.152344 22.007812 78.101562 21.90625 77.996094 C 21.804688 77.890625 21.753906 77.765625 21.757812 77.617188 L 21.757812 69.714844 C 21.757812 69.570312 21.808594 69.445312 21.910156 69.34375 C 22.011719 69.238281 22.132812 69.1875 22.277344 69.183594 Z M 27.511719 75.003906 L 26.507812 75.273438 L 25.503906 75.003906 L 25.441406 74.261719 L 24.542969 74.261719 L 24.675781 75.703125 L 26.523438 76.234375 L 28.363281 75.710938 L 28.613281 72.941406 L 25.335938 72.941406 L 25.253906 72.011719 L 28.679688 72.011719 L 28.75 71.105469 L 24.265625 71.105469 L 24.5 73.839844 L 27.613281 73.839844 Z M 27.511719 75.003906 " fill-opacity="1" fill-rule="evenodd"/><path fill="#fe8282" d="M 28.488281 53.1875 L 26.347656 53.1875 L 26.347656 48.84375 L 22.328125 48.84375 L 22.328125 53.199219 L 20.195312 53.199219 L 20.195312 43.082031 L 22.328125 43.082031 L 22.328125 47.054688 L 26.335938 47.054688 L 26.335938 43.074219 L 28.476562 43.074219 Z M 34.933594 53.1875 L 32.792969 53.1875 L 32.792969 44.859375 L 30.050781 44.859375 L 30.050781 43.074219 L 37.675781 43.074219 L 37.675781 44.859375 L 34.933594 44.859375 Z M 43.511719 53.1875 L 41.074219 45.265625 L 41.019531 45.265625 C 41.019531 45.453125 41.046875 45.730469 41.0625 46.105469 C 41.078125 46.480469 41.101562 46.886719 41.117188 47.316406 C 41.132812 47.746094 41.144531 48.140625 41.144531 48.492188 L 41.144531 53.1875 L 39.25 53.1875 L 39.25 43.070312 L 42.160156 43.070312 L 44.554688 50.808594 L 44.597656 50.808594 L 47.128906 43.070312 L 50.039062 43.070312 L 50.039062 53.1875 L 48.042969 53.1875 L 48.042969 48.402344 C 48.042969 48.085938 48.042969 47.710938 48.066406 47.296875 C 48.09375 46.882812 48.097656 46.492188 48.113281 46.113281 C 48.128906 45.738281 48.132812 45.460938 48.148438 45.273438 L 48.085938 45.273438 L 45.488281 53.179688 Z M 52.59375 53.1875 L 52.59375 43.070312 L 54.722656 43.070312 L 54.722656 51.414062 L 58.835938 51.414062 L 58.835938 53.183594 Z M 52.59375 53.1875 " fill-opacity="1" fill-rule="nonzero"/></svg>