<svg xmlns="http://www.w3.org/2000/svg" xmlns:xlink="http://www.w3.org/1999/xlink" width="150" zoomAndPan="magnify" viewBox="0 0 112.5 104.999996" height="140" preserveAspectRatio="xMidYMid meet" version="1.0"><defs><clipPath id="e0581ea7eb"><path d="M 0 0.230469 L 112.003906 0.230469 L 112.003906 104.765625 L 0 104.765625 Z M 0 0.230469 " clip-rule="nonzero"/></clipPath><clipPath id="96a7752385"><path d="M 8.398438 38.710938 L 40.507812 38.710938 L 40.507812 66.339844 L 8.398438 66.339844 Z M 8.398438 38.710938 " clip-rule="nonzero"/></clipPath><clipPath id="61da67b2b0"><path d="M 70.710938 47.683594 L 103.5625 47.683594 L 103.5625 48.476562 L 70.710938 48.476562 Z M 70.710938 47.683594 " clip-rule="nonzero"/></clipPath><clipPath id="7aa1fd1c2e"><path d="M 79.621094 38.773438 L 103.5625 38.773438 L 103.5625 39.367188 L 79.621094 39.367188 Z M 79.621094 38.773438 " clip-rule="nonzero"/></clipPath><clipPath id="8b24c41221"><path d="M 79.621094 42.335938 L 103.5625 42.335938 L 103.5625 42.929688 L 79.621094 42.929688 Z M 79.621094 42.335938 " clip-rule="nonzero"/></clipPath><clipPath id="7c7418e53e"><path d="M 70.710938 49 L 84 49 L 84 51 L 70.710938 51 Z M 70.710938 49 " clip-rule="nonzero"/></clipPath><clipPath id="3969f94208"><path d="M 70.710938 51 L 77 51 L 77 53 L 70.710938 53 Z M 70.710938 51 " clip-rule="nonzero"/></clipPath><clipPath id="8b993e2317"><path d="M 78.234375 51.644531 L 103.5625 51.644531 L 103.5625 52.433594 L 78.234375 52.433594 Z M 78.234375 51.644531 " clip-rule="nonzero"/></clipPath><clipPath id="3c1a0bb52f"><path d="M 70.710938 53.621094 L 103.5625 53.621094 L 103.5625 54.414062 L 70.710938 54.414062 Z M 70.710938 53.621094 " clip-rule="nonzero"/></clipPath><clipPath id="a62bc66cce"><path d="M 70.710938 55 L 84 55 L 84 57 L 70.710938 57 Z M 70.710938 55 " clip-rule="nonzero"/></clipPath><clipPath id="a5db8c53c5"><path d="M 70.710938 57 L 77 57 L 77 59 L 70.710938 59 Z M 70.710938 57 " clip-rule="nonzero"/></clipPath><clipPath id="947190df10"><path d="M 78.234375 57.582031 L 103.5625 57.582031 L 103.5625 58.375 L 78.234375 58.375 Z M 78.234375 57.582031 " clip-rule="nonzero"/></clipPath><clipPath id="cc2b2de052"><path d="M 70.710938 59 L 77 59 L 77 61 L 70.710938 61 Z M 70.710938 59 " clip-rule="nonzero"/></clipPath><clipPath id="4ac5892156"><path d="M 78.234375 59.5625 L 103.5625 59.5625 L 103.5625 60.355469 L 78.234375 60.355469 Z M 78.234375 59.5625 " clip-rule="nonzero"/></clipPath><clipPath id="080211ddf5"><path d="M 70.710938 61.542969 L 103.5625 61.542969 L 103.5625 62.335938 L 70.710938 62.335938 Z M 70.710938 61.542969 " clip-rule="nonzero"/></clipPath><clipPath id="4e81757231"><path d="M 70.710938 63 L 84 63 L 84 65 L 70.710938 65 Z M 70.710938 63 " clip-rule="nonzero"/></clipPath><clipPath id="ab17417b5f"><path d="M 70.710938 65.503906 L 76.253906 65.503906 L 76.253906 66.195312 L 70.710938 66.195312 Z M 70.710938 65.503906 " clip-rule="nonzero"/></clipPath><clipPath id="2b64a2f333"><path d="M 78.234375 65.503906 L 103.5625 65.503906 L 103.5625 66.195312 L 78.234375 66.195312 Z M 78.234375 65.503906 " clip-rule="nonzero"/></clipPath><clipPath id="2de0235911"><path d="M 28.007812 69.023438 L 84 69.023438 L 84 84.703125 L 28.007812 84.703125 Z M 28.007812 69.023438 " clip-rule="nonzero"/></clipPath><clipPath id="dee6c9cb06"><path d="M 28.007812 20.289062 L 84 20.289062 L 84 35.84375 L 28.007812 35.84375 Z M 28.007812 20.289062 " clip-rule="nonzero"/></clipPath></defs><g clip-path="url(#e0581ea7eb)"><path fill="#ffffff" d="M 0 0.230469 L 112.003906 0.230469 L 112.003906 104.769531 L 0 104.769531 Z M 0 0.230469 " fill-opacity="1" fill-rule="nonzero"/><path fill="#ffffff" d="M 0 0.230469 L 112.003906 0.230469 L 112.003906 104.769531 L 0 104.769531 Z M 0 0.230469 " fill-opacity="1" fill-rule="nonzero"/></g><g clip-path="url(#96a7752385)"><path fill="#fe8282" d="M 38.253906 43.300781 L 35.960938 43.300781 L 35.960938 41.007812 C 35.960938 39.738281 34.933594 38.710938 33.664062 38.710938 L 10.710938 38.710938 C 9.441406 38.710938 8.414062 39.738281 8.414062 41.007812 L 8.414062 59.371094 C 8.414062 60.636719 9.441406 61.667969 10.710938 61.667969 L 13.003906 61.667969 L 13.003906 63.960938 C 13.003906 65.230469 14.035156 66.257812 15.300781 66.257812 L 38.253906 66.257812 C 39.523438 66.257812 40.550781 65.230469 40.550781 63.960938 L 40.550781 45.597656 C 40.550781 44.332031 39.523438 43.300781 38.253906 43.300781 Z M 13.003906 45.597656 L 13.003906 59.371094 L 10.710938 59.371094 L 10.710938 41.007812 L 33.664062 41.007812 L 33.664062 43.300781 L 15.300781 43.300781 C 14.035156 43.300781 13.003906 44.332031 13.003906 45.597656 Z M 38.253906 63.960938 L 15.300781 63.960938 L 15.300781 45.597656 L 38.253906 45.597656 Z M 38.253906 63.960938 " fill-opacity="1" fill-rule="nonzero"/></g><path fill="#fe8282" d="M 22.1875 50.1875 C 22.1875 50.492188 22.128906 50.785156 22.011719 51.066406 C 21.894531 51.347656 21.730469 51.597656 21.515625 51.8125 C 21.300781 52.027344 21.050781 52.191406 20.769531 52.308594 C 20.488281 52.425781 20.195312 52.484375 19.890625 52.484375 C 19.585938 52.484375 19.292969 52.425781 19.011719 52.308594 C 18.730469 52.191406 18.484375 52.027344 18.269531 51.8125 C 18.054688 51.597656 17.886719 51.347656 17.769531 51.066406 C 17.65625 50.785156 17.597656 50.492188 17.597656 50.1875 C 17.597656 49.882812 17.65625 49.589844 17.769531 49.308594 C 17.886719 49.027344 18.054688 48.78125 18.269531 48.566406 C 18.484375 48.351562 18.730469 48.183594 19.011719 48.066406 C 19.292969 47.953125 19.585938 47.894531 19.890625 47.894531 C 20.195312 47.894531 20.488281 47.953125 20.769531 48.066406 C 21.050781 48.183594 21.300781 48.351562 21.515625 48.566406 C 21.730469 48.78125 21.894531 49.027344 22.011719 49.308594 C 22.128906 49.589844 22.1875 49.882812 22.1875 50.1875 Z M 22.1875 50.1875 " fill-opacity="1" fill-rule="nonzero"/><path fill="#fe8282" d="M 29.53125 52.484375 L 25.375 58.425781 L 23.105469 56.15625 L 17.597656 61.667969 L 35.960938 61.667969 Z M 29.53125 52.484375 " fill-opacity="1" fill-rule="nonzero"/><g clip-path="url(#61da67b2b0)"><path fill="#fe8282" d="M 103.605469 48.316406 L 70.710938 48.316406 L 70.710938 47.742188 L 103.605469 47.742188 L 103.605469 48.316406 " fill-opacity="1" fill-rule="nonzero"/></g><g clip-path="url(#7aa1fd1c2e)"><path fill="#fe8282" d="M 103.605469 39.347656 L 79.804688 39.347656 L 79.804688 38.773438 L 103.605469 38.773438 L 103.605469 39.347656 " fill-opacity="1" fill-rule="nonzero"/></g><path fill="#fe8282" d="M 95.171875 41.121094 L 79.804688 41.121094 L 79.804688 40.546875 L 95.171875 40.546875 L 95.171875 41.121094 " fill-opacity="1" fill-rule="nonzero"/><path fill="#fe8282" d="M 100.847656 41.117188 L 96.40625 41.121094 L 96.40625 40.546875 L 100.847656 40.546875 L 100.847656 41.117188 " fill-opacity="1" fill-rule="nonzero"/><g clip-path="url(#8b24c41221)"><path fill="#fe8282" d="M 103.605469 42.929688 L 79.804688 42.929688 L 79.804688 42.355469 L 103.605469 42.355469 L 103.605469 42.929688 " fill-opacity="1" fill-rule="nonzero"/></g><path fill="#fe8282" d="M 93.648438 44.71875 L 79.804688 44.71875 L 79.804688 44.140625 L 93.648438 44.140625 L 93.648438 44.71875 " fill-opacity="1" fill-rule="nonzero"/><path fill="#fe8282" d="M 91.824219 46.3125 L 79.804688 46.3125 L 79.804688 45.738281 L 91.824219 45.738281 L 91.824219 46.3125 " fill-opacity="1" fill-rule="nonzero"/><path fill="#fe8282" d="M 99.9375 46.3125 L 93.648438 46.3125 L 93.648438 45.738281 L 99.9375 45.738281 L 99.9375 46.3125 " fill-opacity="1" fill-rule="nonzero"/><g clip-path="url(#7c7418e53e)"><path fill="#fe8282" d="M 83.007812 50.300781 L 70.710938 50.300781 L 70.710938 49.726562 L 83.007812 49.726562 L 83.007812 50.300781 " fill-opacity="1" fill-rule="nonzero"/></g><path fill="#fe8282" d="M 101.070312 50.300781 L 84.796875 50.300781 L 84.796875 49.726562 L 101.070312 49.726562 L 101.070312 50.300781 " fill-opacity="1" fill-rule="nonzero"/><g clip-path="url(#3969f94208)"><path fill="#fe8282" d="M 76.101562 52.289062 L 70.710938 52.289062 L 70.710938 51.714844 L 76.101562 51.714844 L 76.101562 52.289062 " fill-opacity="1" fill-rule="nonzero"/></g><g clip-path="url(#8b993e2317)"><path fill="#fe8282" d="M 103.605469 52.289062 L 78.394531 52.289062 L 78.394531 51.714844 L 103.605469 51.714844 L 103.605469 52.289062 " fill-opacity="1" fill-rule="nonzero"/></g><g clip-path="url(#3c1a0bb52f)"><path fill="#fe8282" d="M 103.605469 54.277344 L 70.710938 54.277344 L 70.710938 53.699219 L 103.605469 53.699219 L 103.605469 54.277344 " fill-opacity="1" fill-rule="nonzero"/></g><g clip-path="url(#a62bc66cce)"><path fill="#fe8282" d="M 83.007812 56.261719 L 70.710938 56.261719 L 70.710938 55.6875 L 83.007812 55.6875 L 83.007812 56.261719 " fill-opacity="1" fill-rule="nonzero"/></g><path fill="#fe8282" d="M 101.070312 56.261719 L 84.796875 56.261719 L 84.796875 55.6875 L 101.070312 55.6875 L 101.070312 56.261719 " fill-opacity="1" fill-rule="nonzero"/><g clip-path="url(#a5db8c53c5)"><path fill="#fe8282" d="M 76.101562 58.25 L 70.710938 58.25 L 70.710938 57.675781 L 76.101562 57.675781 L 76.101562 58.25 " fill-opacity="1" fill-rule="nonzero"/></g><g clip-path="url(#947190df10)"><path fill="#fe8282" d="M 103.605469 58.25 L 78.394531 58.25 L 78.394531 57.675781 L 103.605469 57.675781 L 103.605469 58.25 " fill-opacity="1" fill-rule="nonzero"/></g><g clip-path="url(#cc2b2de052)"><path fill="#fe8282" d="M 76.101562 60.234375 L 70.710938 60.234375 L 70.710938 59.660156 L 76.101562 59.660156 L 76.101562 60.234375 " fill-opacity="1" fill-rule="nonzero"/></g><g clip-path="url(#4ac5892156)"><path fill="#fe8282" d="M 103.605469 60.234375 L 78.394531 60.234375 L 78.394531 59.660156 L 103.605469 59.660156 L 103.605469 60.234375 " fill-opacity="1" fill-rule="nonzero"/></g><g clip-path="url(#080211ddf5)"><path fill="#fe8282" d="M 103.605469 62.222656 L 70.710938 62.222656 L 70.710938 61.648438 L 103.605469 61.648438 L 103.605469 62.222656 " fill-opacity="1" fill-rule="nonzero"/></g><g clip-path="url(#4e81757231)"><path fill="#fe8282" d="M 83.007812 64.210938 L 70.710938 64.210938 L 70.710938 63.632812 L 83.007812 63.632812 L 83.007812 64.210938 " fill-opacity="1" fill-rule="nonzero"/></g><path fill="#fe8282" d="M 101.070312 64.210938 L 84.796875 64.210938 L 84.796875 63.632812 L 101.070312 63.632812 L 101.070312 64.210938 " fill-opacity="1" fill-rule="nonzero"/><g clip-path="url(#ab17417b5f)"><path fill="#fe8282" d="M 76.101562 66.195312 L 70.710938 66.195312 L 70.710938 65.621094 L 76.101562 65.621094 L 76.101562 66.195312 " fill-opacity="1" fill-rule="nonzero"/></g><g clip-path="url(#2b64a2f333)"><path fill="#fe8282" d="M 103.605469 66.195312 L 78.394531 66.195312 L 78.394531 65.621094 L 103.605469 65.621094 L 103.605469 66.195312 " fill-opacity="1" fill-rule="nonzero"/></g><g clip-path="url(#2de0235911)"><path fill="#fe8282" d="M 28.90625 69.484375 C 28.875 69.523438 28.871094 69.566406 28.890625 69.609375 C 28.78125 69.738281 28.523438 69.640625 28.480469 69.875 C 28.101562 70.25 28.246094 70.636719 28.46875 71.015625 C 29.097656 72.074219 29.886719 73.011719 30.734375 73.898438 C 33.773438 77.082031 37.335938 79.480469 41.359375 81.273438 C 48.382812 84.402344 55.632812 84.835938 63.0625 83.304688 C 66.507812 82.597656 69.765625 81.300781 72.960938 79.851562 C 74.84375 79 76.664062 78.039062 78.507812 77.121094 C 78.5625 77.058594 78.609375 76.996094 78.664062 76.933594 C 78.753906 76.929688 78.855469 76.898438 78.929688 76.933594 C 78.929688 76.933594 78.929688 76.933594 78.933594 76.933594 C 78.988281 76.960938 78.949219 77.046875 78.882812 77.078125 C 78.527344 77.804688 78.027344 78.429688 77.492188 79.027344 C 77.128906 79.4375 76.804688 79.863281 76.617188 80.382812 C 75.824219 81.257812 75.796875 82.195312 76.5 83.011719 C 78.699219 82.164062 80.039062 80.421875 81.257812 78.539062 C 81.710938 77.839844 82.210938 77.171875 82.699219 76.496094 C 83.875 74.878906 83.613281 75.046875 82.964844 73.558594 C 82.820312 73.226562 82.597656 72.929688 82.351562 72.660156 C 82.257812 72.5625 82.167969 72.480469 82.023438 72.480469 C 81.835938 72.109375 81.488281 72.105469 81.148438 72.117188 C 80.140625 72.152344 79.132812 72.203125 78.125 72.25 C 77.914062 72.132812 77.691406 72.167969 77.472656 72.214844 C 77.265625 72.089844 77.042969 72.128906 76.824219 72.15625 C 76.691406 72.046875 76.527344 72.085938 76.375 72.066406 C 74.324219 71.777344 72.339844 71.265625 70.445312 70.414062 C 70.300781 70.347656 70.15625 70.296875 70.011719 70.238281 C 69.839844 70.167969 69.644531 70.085938 69.507812 70.25 C 69.402344 70.371094 69.433594 70.59375 69.523438 70.695312 C 69.925781 71.148438 69.984375 71.769531 70.335938 72.242188 C 70.492188 72.449219 70.71875 72.578125 70.953125 72.703125 C 72.753906 73.6875 74.679688 74.328125 76.671875 74.769531 C 76.851562 74.808594 77.039062 74.820312 77.203125 74.898438 C 77.394531 74.984375 77.339844 75.144531 77.246094 75.289062 C 77.039062 75.261719 76.890625 75.347656 76.796875 75.527344 C 76.601562 75.542969 76.417969 75.570312 76.320312 75.769531 C 76.273438 75.75 76.242188 75.761719 76.226562 75.8125 C 76.042969 75.820312 75.871094 75.859375 75.773438 76.039062 C 75.648438 76.070312 75.515625 76.089844 75.402344 76.140625 C 74.128906 76.726562 72.863281 77.332031 71.582031 77.902344 C 70.421875 78.417969 69.242188 78.898438 68.074219 79.394531 C 67.746094 79.488281 67.421875 79.570312 67.101562 79.675781 C 63.988281 80.683594 60.800781 81.304688 57.53125 81.445312 C 56.363281 81.492188 55.195312 81.507812 54.027344 81.539062 C 53.804688 81.414062 53.574219 81.460938 53.347656 81.507812 C 53.136719 81.382812 52.917969 81.425781 52.699219 81.46875 C 52.507812 81.335938 52.300781 81.390625 52.097656 81.414062 C 51.976562 81.3125 51.847656 81.320312 51.714844 81.367188 C 51.667969 81.335938 51.621094 81.332031 51.574219 81.363281 C 51.441406 81.253906 51.277344 81.292969 51.128906 81.269531 C 50.390625 81.140625 49.636719 81.148438 48.910156 80.929688 C 48.847656 80.988281 48.632812 81.019531 48.894531 81.132812 C 49.070312 81.207031 49.078125 81.257812 49.03125 81.300781 C 48.992188 81.339844 48.90625 81.371094 48.84375 81.402344 C 46.527344 80.929688 44.296875 80.183594 42.113281 79.289062 C 41.917969 79.1875 41.71875 79.085938 41.527344 78.984375 C 40.359375 78.378906 39.195312 77.769531 38.03125 77.164062 C 38.007812 77.117188 37.972656 77.082031 37.933594 77.0625 C 37.902344 77.050781 37.871094 77.046875 37.835938 77.046875 C 37.800781 76.964844 37.734375 76.925781 37.648438 76.929688 C 37.613281 76.847656 37.550781 76.808594 37.460938 76.8125 C 37.425781 76.726562 37.363281 76.691406 37.273438 76.695312 C 37.238281 76.609375 37.175781 76.570312 37.085938 76.574219 C 37.054688 76.488281 36.992188 76.449219 36.902344 76.453125 L 36.898438 76.453125 C 36.871094 76.367188 36.808594 76.328125 36.71875 76.332031 L 36.714844 76.332031 C 36.660156 76.285156 36.597656 76.246094 36.535156 76.207031 L 36.53125 76.203125 C 36.5 76.117188 36.441406 76.078125 36.351562 76.082031 L 36.347656 76.078125 C 36.316406 75.992188 36.257812 75.953125 36.167969 75.957031 L 36.160156 75.953125 C 36.160156 75.953125 36.160156 75.949219 36.160156 75.949219 C 36.160156 75.949219 36.160156 75.953125 36.160156 75.953125 C 36.132812 75.863281 36.074219 75.824219 35.984375 75.828125 L 35.980469 75.824219 C 35.953125 75.738281 35.890625 75.695312 35.800781 75.699219 C 35.769531 75.613281 35.710938 75.566406 35.617188 75.570312 C 35.089844 75.140625 34.558594 74.710938 34.03125 74.285156 C 33.683594 74.148438 33.445312 73.867188 33.179688 73.628906 C 33.1875 73.585938 33.207031 73.554688 33.230469 73.523438 C 33.265625 73.480469 33.3125 73.449219 33.371094 73.429688 C 33.191406 73.230469 33.023438 73.011719 32.757812 72.90625 C 32.675781 72.882812 32.601562 72.847656 32.539062 72.78125 C 32.613281 72.824219 32.683594 72.867188 32.757812 72.90625 C 32.714844 72.832031 32.660156 72.765625 32.566406 72.777344 C 32.539062 72.644531 32.453125 72.5625 32.332031 72.515625 C 32.316406 72.425781 32.269531 72.375 32.175781 72.367188 C 32.140625 72.285156 32.089844 72.222656 31.992188 72.210938 C 31.980469 72.167969 31.957031 72.136719 31.910156 72.117188 C 31.769531 71.886719 31.585938 71.703125 31.359375 71.558594 C 31.25 71.402344 31.144531 71.242188 30.964844 71.160156 C 30.929688 71.035156 30.828125 70.96875 30.734375 70.894531 C 30.304688 70.28125 29.761719 69.753906 29.433594 69.023438 C 29.253906 69.242188 28.953125 69.203125 28.90625 69.484375 Z M 76.253906 75.964844 C 76.25 75.964844 76.25 75.964844 76.25 75.964844 C 76.25 75.96875 76.25 75.96875 76.25 75.96875 C 76.25 75.96875 76.246094 75.964844 76.246094 75.964844 C 76.246094 75.964844 76.25 75.964844 76.25 75.964844 C 76.25 75.964844 76.25 75.960938 76.246094 75.960938 C 76.25 75.960938 76.25 75.964844 76.253906 75.964844 Z M 35.769531 76.203125 C 35.78125 76.214844 35.792969 76.230469 35.804688 76.242188 C 35.800781 76.238281 35.796875 76.238281 35.792969 76.234375 C 35.78125 76.226562 35.769531 76.21875 35.753906 76.207031 C 35.757812 76.207031 35.761719 76.207031 35.769531 76.203125 Z M 38.019531 77.164062 C 38.019531 77.167969 38.015625 77.167969 38.015625 77.167969 C 38.011719 77.171875 38.007812 77.179688 38.003906 77.183594 L 37.992188 77.199219 L 38.015625 77.167969 C 38.015625 77.164062 38.015625 77.164062 38.015625 77.164062 C 38.015625 77.164062 38.015625 77.164062 38.019531 77.164062 Z M 35.691406 76.234375 C 35.710938 76.226562 35.734375 76.214844 35.75 76.210938 C 35.765625 76.21875 35.777344 76.226562 35.789062 76.234375 C 35.757812 76.21875 35.726562 76.21875 35.691406 76.234375 Z M 35.871094 76.296875 C 35.882812 76.304688 35.898438 76.316406 35.910156 76.328125 C 35.910156 76.328125 35.914062 76.328125 35.914062 76.332031 C 35.898438 76.316406 35.882812 76.304688 35.871094 76.296875 Z M 29.300781 70.84375 C 29.300781 70.84375 29.296875 70.84375 29.296875 70.84375 C 29.296875 70.84375 29.292969 70.839844 29.292969 70.839844 C 29.292969 70.835938 29.292969 70.835938 29.292969 70.832031 C 29.296875 70.835938 29.296875 70.839844 29.300781 70.84375 Z M 29.496094 71.117188 C 29.496094 71.121094 29.496094 71.125 29.5 71.125 C 29.5 71.121094 29.496094 71.117188 29.496094 71.117188 Z M 32.40625 72.765625 C 32.390625 72.773438 32.375 72.78125 32.363281 72.792969 C 32.359375 72.785156 32.359375 72.773438 32.355469 72.761719 C 32.371094 72.765625 32.386719 72.765625 32.40625 72.765625 Z M 32.035156 72.308594 C 32.011719 72.292969 31.996094 72.265625 31.984375 72.238281 C 31.984375 72.238281 31.984375 72.238281 31.988281 72.238281 C 32 72.265625 32.011719 72.289062 32.035156 72.308594 Z M 32.035156 72.308594 " fill-opacity="1" fill-rule="nonzero"/></g><path fill="#fe8282" d="M 36.523438 76.203125 C 36.585938 76.246094 36.644531 76.285156 36.703125 76.328125 C 36.671875 76.238281 36.613281 76.199219 36.523438 76.203125 Z M 36.523438 76.203125 " fill-opacity="1" fill-rule="nonzero"/><g clip-path="url(#dee6c9cb06)"><path fill="#fe8282" d="M 28.90625 35.511719 C 28.875 35.472656 28.871094 35.425781 28.890625 35.382812 C 28.78125 35.253906 28.523438 35.351562 28.480469 35.117188 C 28.101562 34.742188 28.246094 34.359375 28.46875 33.980469 C 29.097656 32.917969 29.886719 31.980469 30.734375 31.09375 C 33.773438 27.914062 37.335938 25.511719 41.359375 23.722656 C 48.382812 20.589844 55.632812 20.15625 63.0625 21.6875 C 66.507812 22.394531 69.765625 23.691406 72.960938 25.140625 C 74.84375 25.992188 76.664062 26.953125 78.507812 27.871094 C 78.5625 27.933594 78.609375 27.996094 78.664062 28.058594 C 78.753906 28.0625 78.855469 28.09375 78.929688 28.058594 C 78.929688 28.058594 78.929688 28.058594 78.933594 28.058594 C 78.988281 28.03125 78.949219 27.949219 78.882812 27.914062 C 78.527344 27.191406 78.027344 26.5625 77.492188 25.964844 C 77.128906 25.554688 76.804688 25.128906 76.617188 24.613281 C 75.824219 23.734375 75.796875 22.796875 76.5 21.980469 C 78.699219 22.828125 80.039062 24.570312 81.257812 26.453125 C 81.710938 27.15625 82.210938 27.820312 82.699219 28.496094 C 83.875 30.113281 83.613281 29.945312 82.964844 31.433594 C 82.820312 31.769531 82.597656 32.0625 82.351562 32.332031 C 82.257812 32.429688 82.167969 32.515625 82.023438 32.515625 C 81.835938 32.886719 81.488281 32.890625 81.148438 32.878906 C 80.140625 32.839844 79.132812 32.789062 78.125 32.746094 C 77.914062 32.859375 77.691406 32.824219 77.472656 32.78125 C 77.265625 32.902344 77.042969 32.863281 76.824219 32.835938 C 76.691406 32.949219 76.527344 32.90625 76.375 32.925781 C 74.324219 33.214844 72.339844 33.730469 70.445312 34.578125 C 70.300781 34.644531 70.15625 34.695312 70.011719 34.753906 C 69.839844 34.824219 69.644531 34.90625 69.507812 34.742188 C 69.402344 34.621094 69.433594 34.398438 69.523438 34.296875 C 69.925781 33.847656 69.984375 33.222656 70.335938 32.753906 C 70.492188 32.542969 70.71875 32.414062 70.953125 32.289062 C 72.753906 31.304688 74.679688 30.667969 76.671875 30.222656 C 76.851562 30.183594 77.039062 30.171875 77.203125 30.097656 C 77.394531 30.007812 77.339844 29.847656 77.246094 29.703125 C 77.039062 29.730469 76.890625 29.648438 76.796875 29.464844 C 76.601562 29.453125 76.417969 29.421875 76.320312 29.222656 C 76.273438 29.246094 76.242188 29.230469 76.226562 29.179688 C 76.042969 29.171875 75.871094 29.136719 75.773438 28.953125 C 75.648438 28.921875 75.515625 28.90625 75.402344 28.851562 C 74.128906 28.265625 72.863281 27.660156 71.582031 27.09375 C 70.421875 26.574219 69.242188 26.09375 68.074219 25.597656 C 67.746094 25.503906 67.421875 25.425781 67.101562 25.320312 C 63.988281 24.308594 60.800781 23.691406 57.53125 23.550781 C 56.363281 23.5 55.195312 23.484375 54.027344 23.457031 C 53.804688 23.582031 53.574219 23.53125 53.347656 23.484375 C 53.136719 23.609375 52.917969 23.566406 52.699219 23.523438 C 52.507812 23.65625 52.300781 23.601562 52.097656 23.582031 C 51.976562 23.679688 51.847656 23.671875 51.714844 23.625 C 51.667969 23.660156 51.621094 23.660156 51.574219 23.628906 C 51.441406 23.738281 51.277344 23.699219 51.128906 23.726562 C 50.390625 23.851562 49.636719 23.84375 48.910156 24.0625 C 48.847656 24.003906 48.632812 23.972656 48.894531 23.863281 C 49.070312 23.789062 49.078125 23.734375 49.03125 23.691406 C 48.992188 23.65625 48.90625 23.625 48.84375 23.59375 C 46.527344 24.066406 44.296875 24.8125 42.113281 25.703125 C 41.917969 25.804688 41.71875 25.90625 41.527344 26.007812 C 40.359375 26.617188 39.195312 27.222656 38.03125 27.828125 C 38.007812 27.878906 37.972656 27.910156 37.933594 27.929688 C 37.902344 27.941406 37.871094 27.949219 37.835938 27.949219 C 37.800781 28.027344 37.734375 28.066406 37.648438 28.0625 C 37.613281 28.148438 37.550781 28.183594 37.460938 28.179688 C 37.425781 28.265625 37.363281 28.300781 37.273438 28.296875 C 37.238281 28.382812 37.175781 28.425781 37.085938 28.417969 C 37.054688 28.503906 36.992188 28.542969 36.902344 28.539062 L 36.898438 28.539062 C 36.871094 28.625 36.808594 28.667969 36.71875 28.660156 L 36.714844 28.664062 C 36.660156 28.707031 36.597656 28.746094 36.535156 28.785156 L 36.53125 28.789062 C 36.5 28.875 36.441406 28.914062 36.351562 28.910156 L 36.347656 28.914062 C 36.316406 29 36.257812 29.042969 36.167969 29.039062 L 36.160156 29.042969 C 36.132812 29.128906 36.074219 29.171875 35.984375 29.167969 L 35.980469 29.167969 C 35.953125 29.253906 35.890625 29.296875 35.800781 29.292969 C 35.769531 29.382812 35.710938 29.425781 35.617188 29.421875 C 35.089844 29.851562 34.558594 30.28125 34.03125 30.710938 C 33.683594 30.847656 33.445312 31.125 33.179688 31.363281 C 33.1875 31.40625 33.207031 31.4375 33.230469 31.46875 C 33.265625 31.511719 33.3125 31.542969 33.371094 31.5625 C 33.191406 31.765625 33.023438 31.980469 32.757812 32.085938 C 32.675781 32.109375 32.601562 32.144531 32.539062 32.210938 C 32.613281 32.171875 32.683594 32.125 32.757812 32.085938 C 32.714844 32.164062 32.660156 32.226562 32.566406 32.214844 C 32.539062 32.347656 32.453125 32.429688 32.332031 32.480469 C 32.316406 32.566406 32.269531 32.621094 32.175781 32.625 C 32.140625 32.707031 32.089844 32.769531 31.992188 32.78125 C 31.980469 32.824219 31.957031 32.859375 31.910156 32.878906 C 31.769531 33.105469 31.585938 33.292969 31.359375 33.433594 C 31.25 33.589844 31.144531 33.75 30.964844 33.835938 C 30.929688 33.957031 30.828125 34.023438 30.734375 34.097656 C 30.304688 34.710938 29.761719 35.242188 29.433594 35.96875 C 29.253906 35.753906 28.953125 35.789062 28.90625 35.511719 Z M 76.253906 29.027344 C 76.25 29.027344 76.25 29.027344 76.25 29.027344 C 76.25 29.023438 76.25 29.023438 76.25 29.023438 C 76.25 29.023438 76.246094 29.027344 76.246094 29.027344 C 76.246094 29.027344 76.25 29.027344 76.25 29.027344 C 76.25 29.03125 76.25 29.03125 76.246094 29.035156 C 76.25 29.03125 76.25 29.03125 76.253906 29.027344 Z M 35.769531 28.789062 C 35.78125 28.777344 35.792969 28.765625 35.804688 28.75 C 35.800781 28.753906 35.796875 28.757812 35.792969 28.757812 C 35.78125 28.765625 35.769531 28.773438 35.753906 28.785156 C 35.757812 28.785156 35.761719 28.785156 35.769531 28.789062 Z M 38.019531 27.828125 C 38.019531 27.824219 38.015625 27.824219 38.015625 27.824219 C 38.011719 27.820312 38.007812 27.8125 38.003906 27.808594 L 37.992188 27.792969 L 38.015625 27.824219 C 38.015625 27.828125 38.015625 27.828125 38.015625 27.828125 C 38.015625 27.828125 38.015625 27.828125 38.019531 27.828125 Z M 35.691406 28.761719 C 35.710938 28.769531 35.734375 28.777344 35.75 28.78125 C 35.765625 28.773438 35.777344 28.765625 35.789062 28.757812 C 35.757812 28.773438 35.726562 28.773438 35.691406 28.761719 Z M 35.871094 28.699219 C 35.882812 28.6875 35.898438 28.675781 35.910156 28.667969 C 35.910156 28.664062 35.914062 28.664062 35.914062 28.664062 C 35.898438 28.675781 35.882812 28.6875 35.871094 28.699219 Z M 29.300781 34.148438 C 29.300781 34.148438 29.296875 34.152344 29.296875 34.152344 C 29.296875 34.152344 29.292969 34.152344 29.292969 34.152344 C 29.292969 34.15625 29.292969 34.15625 29.292969 34.160156 C 29.296875 34.15625 29.296875 34.152344 29.300781 34.148438 Z M 29.496094 33.878906 C 29.496094 33.875 29.496094 33.871094 29.5 33.867188 C 29.5 33.871094 29.496094 33.875 29.496094 33.878906 Z M 32.40625 32.226562 C 32.390625 32.21875 32.375 32.210938 32.363281 32.199219 C 32.359375 32.210938 32.359375 32.21875 32.355469 32.230469 C 32.371094 32.226562 32.386719 32.226562 32.40625 32.226562 Z M 32.035156 32.683594 C 32.011719 32.699219 31.996094 32.726562 31.984375 32.757812 C 31.984375 32.757812 31.984375 32.757812 31.988281 32.757812 C 32 32.726562 32.011719 32.703125 32.035156 32.683594 Z M 32.035156 32.683594 " fill-opacity="1" fill-rule="nonzero"/></g><path fill="#fe8282" d="M 36.523438 28.789062 C 36.585938 28.746094 36.644531 28.707031 36.703125 28.667969 C 36.671875 28.753906 36.613281 28.792969 36.523438 28.789062 Z M 36.523438 28.789062 " fill-opacity="1" fill-rule="nonzero"/></svg>