<svg xmlns="http://www.w3.org/2000/svg" xmlns:xlink="http://www.w3.org/1999/xlink" width="100" zoomAndPan="magnify" viewBox="0 0 75 112.499997" height="150" preserveAspectRatio="xMidYMid meet" version="1.0"><defs><clipPath id="033df4c8c8"><path d="M 0.164062 0 L 74.832031 0 L 74.832031 112.003906 L 0.164062 112.003906 Z M 0.164062 0 " clip-rule="nonzero"/></clipPath><clipPath id="26a3ef3ae1"><path d="M 7.632812 17.273438 L 67.367188 17.273438 L 67.367188 94.929688 L 7.632812 94.929688 Z M 7.632812 17.273438 " clip-rule="nonzero"/></clipPath><clipPath id="87fd4cea98"><path d="M 56 17.273438 L 67.367188 17.273438 L 67.367188 29 L 56 29 Z M 56 17.273438 " clip-rule="nonzero"/></clipPath></defs><g clip-path="url(#033df4c8c8)"><path fill="#ffffff" d="M 0.164062 0 L 74.835938 0 L 74.835938 112.003906 L 0.164062 112.003906 Z M 0.164062 0 " fill-opacity="1" fill-rule="nonzero"/><path fill="#ffffff" d="M 0.164062 0 L 74.835938 0 L 74.835938 112.003906 L 0.164062 112.003906 Z M 0.164062 0 " fill-opacity="1" fill-rule="nonzero"/></g><g clip-path="url(#26a3ef3ae1)"><path fill="#fe8282" d="M 66.15625 94.671875 L 8.753906 94.671875 C 8.605469 94.671875 8.460938 94.640625 8.324219 94.585938 C 8.1875 94.527344 8.066406 94.445312 7.960938 94.34375 C 7.855469 94.238281 7.773438 94.117188 7.71875 93.976562 C 7.660156 93.839844 7.632812 93.699219 7.632812 93.550781 L 7.632812 18.535156 C 7.632812 18.386719 7.660156 18.246094 7.71875 18.105469 C 7.773438 17.96875 7.855469 17.847656 7.960938 17.742188 C 8.066406 17.636719 8.1875 17.558594 8.324219 17.5 C 8.460938 17.441406 8.605469 17.414062 8.753906 17.414062 L 57.757812 17.414062 C 58.078125 17.414062 58.347656 17.53125 58.570312 17.761719 L 66.96875 26.566406 C 67.175781 26.785156 67.277344 27.042969 67.277344 27.339844 L 67.277344 93.550781 C 67.277344 93.699219 67.25 93.839844 67.191406 93.976562 C 67.136719 94.117188 67.054688 94.238281 66.949219 94.34375 C 66.84375 94.445312 66.722656 94.527344 66.585938 94.585938 C 66.449219 94.640625 66.304688 94.671875 66.15625 94.671875 Z M 9.875 92.429688 L 65.035156 92.429688 L 65.035156 27.789062 L 57.277344 19.65625 L 9.875 19.65625 Z M 9.875 92.429688 " fill-opacity="1" fill-rule="nonzero"/></g><g clip-path="url(#87fd4cea98)"><path fill="#fe8282" d="M 66.15625 28.460938 L 57.757812 28.460938 C 57.609375 28.460938 57.46875 28.433594 57.328125 28.378906 C 57.191406 28.320312 57.070312 28.238281 56.964844 28.132812 C 56.859375 28.027344 56.78125 27.90625 56.722656 27.769531 C 56.667969 27.632812 56.636719 27.488281 56.636719 27.339844 L 56.636719 18.535156 C 56.636719 18.308594 56.703125 18.097656 56.832031 17.90625 C 56.960938 17.71875 57.128906 17.582031 57.34375 17.496094 C 57.554688 17.410156 57.773438 17.390625 57.996094 17.441406 C 58.222656 17.488281 58.414062 17.597656 58.570312 17.761719 L 66.96875 26.566406 C 67.121094 26.730469 67.21875 26.921875 67.257812 27.140625 C 67.300781 27.363281 67.273438 27.578125 67.1875 27.78125 C 67.097656 27.988281 66.960938 28.152344 66.773438 28.277344 C 66.585938 28.402344 66.378906 28.460938 66.15625 28.460938 Z M 58.878906 26.21875 L 63.539062 26.21875 L 58.878906 21.335938 Z M 58.878906 26.21875 " fill-opacity="1" fill-rule="nonzero"/><path fill="#fe8282" d="M 66.15625 28.460938 C 65.835938 28.464844 65.566406 28.347656 65.34375 28.113281 L 56.949219 19.308594 C 56.847656 19.203125 56.773438 19.078125 56.722656 18.941406 C 56.671875 18.804688 56.648438 18.660156 56.652344 18.515625 C 56.65625 18.367188 56.6875 18.226562 56.75 18.09375 C 56.808594 17.957031 56.890625 17.839844 57 17.738281 C 57.105469 17.636719 57.226562 17.558594 57.363281 17.507812 C 57.5 17.453125 57.640625 17.425781 57.789062 17.429688 C 57.9375 17.429688 58.078125 17.460938 58.210938 17.519531 C 58.347656 17.578125 58.46875 17.65625 58.570312 17.761719 L 66.96875 26.566406 C 67.121094 26.730469 67.21875 26.921875 67.257812 27.140625 C 67.300781 27.363281 67.273438 27.578125 67.1875 27.78125 C 67.097656 27.988281 66.960938 28.152344 66.773438 28.277344 C 66.585938 28.402344 66.378906 28.460938 66.15625 28.460938 Z M 66.15625 28.460938 " fill-opacity="1" fill-rule="nonzero"/></g><path fill="#fe8282" d="M 29.773438 53.113281 C 29.460938 53.113281 29.199219 53.003906 28.980469 52.785156 L 20.828125 44.632812 C 20.722656 44.527344 20.640625 44.40625 20.582031 44.269531 C 20.527344 44.132812 20.5 43.988281 20.5 43.839844 C 20.5 43.691406 20.527344 43.550781 20.582031 43.410156 C 20.640625 43.273438 20.722656 43.152344 20.828125 43.046875 L 28.980469 34.894531 C 29.085938 34.792969 29.207031 34.714844 29.34375 34.660156 C 29.480469 34.605469 29.621094 34.578125 29.769531 34.582031 C 29.914062 34.582031 30.054688 34.609375 30.191406 34.667969 C 30.328125 34.726562 30.445312 34.804688 30.550781 34.910156 C 30.65625 35.011719 30.734375 35.132812 30.792969 35.269531 C 30.847656 35.402344 30.878906 35.546875 30.878906 35.691406 C 30.878906 35.839844 30.855469 35.980469 30.800781 36.117188 C 30.746094 36.253906 30.667969 36.375 30.566406 36.480469 L 23.207031 43.839844 L 30.566406 51.199219 C 30.726562 51.359375 30.828125 51.550781 30.871094 51.773438 C 30.914062 51.996094 30.894531 52.210938 30.808594 52.421875 C 30.722656 52.628906 30.582031 52.796875 30.394531 52.925781 C 30.207031 53.050781 30 53.113281 29.773438 53.113281 Z M 29.773438 53.113281 " fill-opacity="1" fill-rule="nonzero"/><path fill="#fe8282" d="M 45.140625 53.113281 C 44.910156 53.113281 44.703125 53.050781 44.515625 52.925781 C 44.328125 52.796875 44.191406 52.632812 44.101562 52.421875 C 44.015625 52.210938 43.996094 51.996094 44.039062 51.773438 C 44.082031 51.550781 44.1875 51.359375 44.347656 51.199219 L 51.707031 43.839844 L 44.347656 36.480469 C 44.242188 36.375 44.164062 36.253906 44.109375 36.117188 C 44.058594 35.980469 44.03125 35.839844 44.03125 35.691406 C 44.03125 35.546875 44.0625 35.402344 44.117188 35.269531 C 44.175781 35.132812 44.253906 35.011719 44.359375 34.910156 C 44.464844 34.804688 44.582031 34.726562 44.71875 34.667969 C 44.855469 34.613281 44.996094 34.582031 45.144531 34.582031 C 45.289062 34.578125 45.429688 34.605469 45.566406 34.660156 C 45.703125 34.714844 45.824219 34.792969 45.929688 34.894531 L 54.082031 43.046875 C 54.1875 43.152344 54.269531 43.273438 54.328125 43.410156 C 54.382812 43.550781 54.410156 43.691406 54.410156 43.839844 C 54.410156 43.988281 54.382812 44.132812 54.328125 44.269531 C 54.269531 44.40625 54.1875 44.527344 54.082031 44.632812 L 45.929688 52.785156 C 45.710938 53.003906 45.449219 53.113281 45.140625 53.113281 Z M 45.140625 53.113281 " fill-opacity="1" fill-rule="nonzero"/><path fill="#fe8282" d="M 35.222656 53.113281 C 35.046875 53.113281 34.882812 53.074219 34.726562 52.996094 C 34.566406 52.921875 34.4375 52.8125 34.332031 52.671875 C 34.222656 52.535156 34.15625 52.378906 34.121094 52.207031 C 34.085938 52.035156 34.09375 51.863281 34.140625 51.695312 L 38.609375 35.390625 C 38.648438 35.246094 38.710938 35.117188 38.804688 35 C 38.894531 34.882812 39.003906 34.785156 39.132812 34.714844 C 39.261719 34.640625 39.402344 34.59375 39.546875 34.574219 C 39.695312 34.554688 39.839844 34.566406 39.984375 34.605469 C 40.128906 34.644531 40.257812 34.710938 40.375 34.800781 C 40.492188 34.894531 40.589844 35.003906 40.664062 35.132812 C 40.738281 35.261719 40.78125 35.398438 40.800781 35.546875 C 40.820312 35.695312 40.808594 35.839844 40.769531 35.984375 L 36.304688 52.289062 C 36.238281 52.53125 36.101562 52.730469 35.902344 52.882812 C 35.703125 53.035156 35.476562 53.113281 35.222656 53.113281 Z M 35.222656 53.113281 " fill-opacity="1" fill-rule="nonzero"/><path fill="#fe8282" d="M 26.042969 86.148438 C 25.070312 86.148438 24.125 85.980469 23.210938 85.652344 L 22.367188 85.308594 L 23.113281 81.238281 L 24.378906 81.730469 C 24.859375 81.90625 25.351562 81.996094 25.863281 81.992188 C 26.890625 81.992188 27.953125 81.992188 27.953125 78.785156 L 27.953125 66.164062 L 32.449219 66.164062 L 32.449219 78.96875 C 32.449219 84.902344 28.964844 86.148438 26.042969 86.148438 Z M 30.195312 68.40625 L 30.195312 78.785156 C 30.195312 79.929688 30.089844 81.257812 29.523438 82.316406 C 30.085938 81.394531 30.207031 80.171875 30.207031 78.96875 L 30.207031 68.40625 Z M 30.195312 68.40625 " fill-opacity="1" fill-rule="nonzero"/><path fill="#fe8282" d="M 44.152344 86.125 C 42.3125 86.125 40.222656 85.589844 39.074219 84.820312 L 38.382812 84.359375 L 39.613281 80.28125 L 40.851562 81.042969 C 41.914062 81.679688 43.066406 82.003906 44.304688 82.015625 C 45.066406 82.015625 46.835938 81.835938 46.835938 80.15625 C 46.835938 79.347656 46.648438 78.652344 44.28125 77.738281 C 42.941406 77.265625 38.9375 75.828125 38.9375 71.738281 C 38.9375 68.34375 41.78125 65.878906 45.703125 65.878906 C 48.007812 65.878906 49.457031 66.503906 50.117188 66.878906 L 50.925781 67.335938 L 49.578125 71.316406 L 48.40625 70.675781 C 47.539062 70.210938 46.613281 69.980469 45.628906 69.984375 C 44.03125 69.984375 43.460938 70.757812 43.460938 71.480469 C 43.460938 72.238281 43.652344 72.808594 46.214844 73.800781 C 48.621094 74.730469 51.386719 76.273438 51.386719 79.976562 C 51.386719 83.035156 49.148438 86.125 44.152344 86.125 Z M 47.726562 77.101562 C 48.171875 77.480469 48.515625 77.9375 48.753906 78.476562 C 48.988281 79.011719 49.097656 79.574219 49.078125 80.160156 C 49.082031 80.519531 49.039062 80.875 48.949219 81.226562 C 49.082031 80.820312 49.144531 80.40625 49.144531 79.976562 C 49.144531 78.878906 48.859375 77.957031 47.726562 77.101562 Z M 41.238281 71.074219 C 41.199219 71.292969 41.179688 71.515625 41.179688 71.738281 C 41.179688 72.507812 41.367188 73.414062 42.453125 74.289062 C 42.003906 73.882812 41.671875 73.394531 41.460938 72.828125 C 41.246094 72.261719 41.171875 71.675781 41.238281 71.074219 Z M 41.238281 71.074219 " fill-opacity="1" fill-rule="nonzero"/></svg>