<svg xmlns="http://www.w3.org/2000/svg" xmlns:xlink="http://www.w3.org/1999/xlink" width="100" zoomAndPan="magnify" viewBox="0 0 75 112.499997" height="150" preserveAspectRatio="xMidYMid meet" version="1.0"><defs><clipPath id="8b3e4c1e7d"><path d="M 0.164062 0 L 74.832031 0 L 74.832031 112.003906 L 0.164062 112.003906 Z M 0.164062 0 " clip-rule="nonzero"/></clipPath><clipPath id="751cbda1d6"><path d="M 18 26.839844 L 57 26.839844 L 57 65 L 18 65 Z M 18 26.839844 " clip-rule="nonzero"/></clipPath><clipPath id="c11fe3a75c"><path d="M 7.632812 70 L 48 70 L 48 85 L 7.632812 85 Z M 7.632812 70 " clip-rule="nonzero"/></clipPath><clipPath id="235a9eedfc"><path d="M 7.632812 72 L 53 72 L 53 85 L 7.632812 85 Z M 7.632812 72 " clip-rule="nonzero"/></clipPath><clipPath id="7dc24cefea"><path d="M 15 68 L 67.367188 68 L 67.367188 82 L 15 82 Z M 15 68 " clip-rule="nonzero"/></clipPath></defs><g clip-path="url(#8b3e4c1e7d)"><path fill="#ffffff" d="M 0.164062 0 L 74.835938 0 L 74.835938 112.003906 L 0.164062 112.003906 Z M 0.164062 0 " fill-opacity="1" fill-rule="nonzero"/><path fill="#ffffff" d="M 0.164062 0 L 74.835938 0 L 74.835938 112.003906 L 0.164062 112.003906 Z M 0.164062 0 " fill-opacity="1" fill-rule="nonzero"/></g><g clip-path="url(#751cbda1d6)"><path fill="#fe8282" d="M 20.699219 35.8125 C 17.289062 40.808594 17.710938 47.304688 20.3125 52.605469 L 20.503906 52.984375 L 20.632812 53.222656 C 20.65625 53.269531 20.683594 53.316406 20.707031 53.363281 C 20.753906 53.445312 20.800781 53.527344 20.839844 53.609375 L 21.085938 54.042969 L 21.230469 54.28125 L 21.519531 54.742188 L 21.648438 54.9375 C 21.777344 55.144531 21.921875 55.347656 22.066406 55.550781 C 22.070312 55.554688 22.074219 55.5625 22.078125 55.566406 C 22.097656 55.601562 22.125 55.632812 22.140625 55.664062 C 22.265625 55.839844 22.398438 56.011719 22.527344 56.179688 L 22.671875 56.367188 L 23.023438 56.808594 L 23.160156 56.972656 C 23.320312 57.164062 23.484375 57.355469 23.648438 57.542969 L 23.660156 57.554688 C 23.667969 57.5625 23.671875 57.566406 23.679688 57.574219 C 23.839844 57.757812 24.007812 57.9375 24.179688 58.109375 L 24.339844 58.273438 L 24.898438 58.832031 C 25.078125 59 25.261719 59.171875 25.445312 59.335938 L 25.550781 59.425781 L 26.042969 59.851562 L 26.25 60.019531 L 26.664062 60.34375 L 26.882812 60.511719 L 27.515625 60.976562 C 27.53125 60.984375 27.546875 60.996094 27.5625 61.007812 C 27.710938 61.113281 27.859375 61.210938 28.011719 61.3125 L 28.207031 61.445312 L 28.914062 61.882812 L 29.109375 61.996094 L 29.636719 62.296875 C 29.734375 62.351562 29.832031 62.402344 29.929688 62.453125 L 30.308594 62.644531 L 30.550781 62.765625 L 31.152344 63.046875 L 31.277344 63.113281 C 31.511719 63.214844 31.742188 63.3125 31.980469 63.410156 L 32.148438 63.476562 L 32.808594 63.726562 L 32.894531 63.757812 C 33.136719 63.84375 33.382812 63.925781 33.628906 64 L 33.808594 64.054688 C 34.066406 64.132812 34.308594 64.226562 34.566406 64.273438 C 51.070312 67.347656 55.863281 54.183594 55.863281 54.183594 C 51.839844 59.523438 44.691406 60.933594 37.921875 59.363281 C 37.664062 59.300781 37.417969 59.222656 37.164062 59.148438 L 36.976562 59.085938 C 36.734375 59.007812 36.492188 58.925781 36.25 58.84375 L 36.148438 58.804688 C 35.933594 58.730469 35.722656 58.648438 35.507812 58.5625 L 35.328125 58.492188 C 35.09375 58.398438 34.863281 58.300781 34.636719 58.199219 L 34.496094 58.136719 L 33.914062 57.859375 L 33.746094 57.777344 C 33.59375 57.699219 33.441406 57.621094 33.292969 57.542969 L 32.992188 57.378906 C 32.808594 57.28125 32.628906 57.175781 32.449219 57.070312 L 32.265625 56.96875 C 32.03125 56.824219 31.792969 56.675781 31.5625 56.527344 C 31.496094 56.484375 31.433594 56.441406 31.371094 56.398438 L 30.871094 56.058594 L 30.707031 55.941406 L 30.234375 55.59375 L 30.023438 55.433594 L 29.59375 55.089844 L 29.402344 54.9375 L 28.871094 54.484375 C 28.851562 54.46875 28.832031 54.453125 28.804688 54.433594 C 28.617188 54.265625 28.429688 54.089844 28.246094 53.914062 L 28.085938 53.761719 L 27.683594 53.359375 L 27.527344 53.195312 C 27.359375 53.023438 27.195312 52.84375 27.03125 52.664062 C 27.023438 52.65625 27.015625 52.648438 27.007812 52.640625 C 26.835938 52.449219 26.671875 52.253906 26.507812 52.058594 L 26.375 51.898438 L 26.015625 51.445312 L 25.882812 51.277344 L 25.464844 50.710938 C 21.707031 45.488281 20.363281 38.285156 23.359375 32.371094 M 31.292969 31.605469 C 28.824219 35.222656 28.960938 40.0625 30.882812 43.886719 C 31.207031 44.53125 31.570312 45.148438 31.976562 45.742188 C 32.34375 46.28125 32.753906 46.925781 33.246094 47.359375 C 33.425781 47.550781 33.609375 47.746094 33.800781 47.941406 C 33.847656 47.992188 33.898438 48.039062 33.945312 48.089844 C 34.128906 48.273438 34.320312 48.449219 34.511719 48.625 C 34.519531 48.632812 34.527344 48.640625 34.535156 48.644531 C 34.753906 48.839844 34.972656 49.027344 35.199219 49.207031 L 35.351562 49.328125 C 35.578125 49.503906 35.808594 49.675781 36.042969 49.839844 C 36.046875 49.847656 36.054688 49.851562 36.0625 49.855469 C 36.164062 49.929688 36.269531 49.996094 36.375 50.066406 C 36.425781 50.101562 36.476562 50.136719 36.523438 50.167969 C 36.695312 50.277344 36.863281 50.386719 37.039062 50.488281 L 37.109375 50.53125 L 37.5625 50.789062 C 37.613281 50.820312 37.667969 50.847656 37.722656 50.875 L 38.046875 51.039062 C 38.0625 51.050781 38.078125 51.054688 38.09375 51.0625 C 38.3125 51.171875 38.53125 51.277344 38.753906 51.375 C 38.804688 51.398438 38.851562 51.417969 38.902344 51.4375 C 39.078125 51.515625 39.261719 51.589844 39.445312 51.664062 L 39.675781 51.75 C 39.839844 51.808594 40.007812 51.867188 40.171875 51.925781 L 40.398438 52 C 40.636719 52.074219 40.871094 52.167969 41.117188 52.210938 C 53.859375 54.359375 56.800781 44.367188 56.800781 44.367188 C 54.148438 48.257812 49.015625 50.113281 43.535156 48.664062 C 43.292969 48.601562 43.050781 48.53125 42.8125 48.453125 C 42.738281 48.429688 42.667969 48.40625 42.59375 48.386719 C 42.425781 48.332031 42.257812 48.273438 42.089844 48.210938 L 41.863281 48.125 C 41.679688 48.058594 41.5 47.976562 41.320312 47.902344 C 41.273438 47.878906 41.222656 47.859375 41.175781 47.835938 C 40.949219 47.738281 40.726562 47.632812 40.507812 47.523438 C 40.394531 47.46875 40.285156 47.40625 40.175781 47.351562 L 39.984375 47.25 C 39.839844 47.171875 39.699219 47.089844 39.5625 47.007812 L 39.460938 46.941406 C 39.289062 46.839844 39.117188 46.734375 38.949219 46.625 C 38.898438 46.589844 38.847656 46.558594 38.796875 46.519531 L 38.464844 46.296875 C 38.230469 46.132812 38.003906 45.960938 37.777344 45.785156 L 37.621094 45.660156 C 35.222656 43.730469 33.320312 41.097656 32.417969 38.105469 C 31.472656 35.007812 31.675781 31.527344 33.324219 28.707031 M 40.199219 28.460938 C 38.746094 30.640625 38.601562 33.347656 39.621094 35.757812 C 40.683594 38.3125 42.863281 40.316406 45.410156 41.269531 C 45.515625 41.308594 45.621094 41.34375 45.734375 41.378906 L 45.875 41.425781 C 46.023438 41.472656 46.171875 41.527344 46.328125 41.558594 C 53.363281 42.941406 55.269531 37.882812 55.777344 37.136719 C 54.105469 39.585938 51.296875 40.175781 47.851562 39.324219 C 47.578125 39.257812 47.277344 39.15625 47.011719 39.0625 C 46.671875 38.941406 46.34375 38.800781 46.019531 38.644531 C 45.40625 38.339844 44.828125 37.980469 44.285156 37.5625 C 41.195312 35.179688 39.277344 30.632812 41.289062 26.929688 " fill-opacity="1" fill-rule="nonzero"/></g><path fill="#fe8282" d="M 24.664062 74.75 L 24.1875 76.441406 Z M 27.117188 78.417969 L 26.589844 78.414062 Z M 26.984375 80.941406 L 23.839844 80.953125 Z M 27.644531 78.421875 L 27.121094 78.417969 Z M 27.269531 80.726562 L 27.816406 78.636719 Z M 38.851562 71.097656 L 37.828125 75.898438 Z M 36.226562 71.097656 L 35.449219 74.683594 Z M 36.226562 71.097656 " fill-opacity="1" fill-rule="nonzero"/><path fill="#fe8282" d="M 38.667969 70.878906 L 36.488281 70.878906 C 36.363281 70.878906 36.246094 70.976562 36.21875 71.097656 L 34.667969 78.269531 C 34.644531 78.390625 34.523438 78.484375 34.402344 78.484375 L 32.855469 78.484375 C 31.328125 78.484375 31.503906 77.429688 31.824219 75.980469 L 31.832031 75.9375 L 32.019531 74.949219 L 32.097656 74.539062 L 32.804688 71.097656 C 32.828125 70.976562 32.75 70.878906 32.628906 70.878906 L 30.386719 70.878906 C 30.242188 70.886719 30.152344 70.957031 30.121094 71.097656 L 29.109375 75.882812 C 28.554688 78.417969 28.703125 80.835938 31.71875 80.910156 L 31.808594 80.914062 L 36.542969 80.914062 C 36.664062 80.914062 36.785156 80.816406 36.808594 80.699219 L 38.851562 71.097656 C 38.878906 70.976562 38.796875 70.878906 38.675781 70.878906 Z M 47.382812 78.511719 C 47.503906 78.511719 47.574219 78.609375 47.558594 78.726562 L 47.347656 79.761719 M 47.132812 80.800781 L 47.347656 79.761719 Z M 46.867188 81.019531 L 42.84375 81.039062 Z M 46.867188 81.019531 " fill-opacity="1" fill-rule="nonzero"/><path fill="#fe8282" d="M 41.539062 77.175781 C 41.539062 77.0625 41.667969 76.867188 41.789062 76.867188 L 41.515625 76.863281 C 41.386719 78.101562 41.539062 77.175781 41.539062 77.175781 Z M 43.042969 81.039062 L 43 81.039062 Z M 47.382812 78.511719 C 47.503906 78.511719 47.574219 78.609375 47.558594 78.726562 L 47.3125 79.933594 M 44.074219 81.042969 L 44.066406 81.042969 Z M 43.539062 81.039062 L 43.507812 81.039062 Z M 43.375 81.039062 L 43.324219 81.039062 Z M 43.21875 81.039062 L 43.171875 81.039062 Z M 43.515625 81.039062 L 43.382812 81.039062 Z M 43.515625 81.039062 " fill-opacity="1" fill-rule="nonzero"/><g clip-path="url(#c11fe3a75c)"><path fill="#fe8282" d="M 44.066406 81.042969 L 43.539062 81.042969 Z M 46.871094 81.023438 L 44.074219 81.042969 Z M 47.128906 80.800781 L 47.304688 79.933594 Z M 43.320312 81.039062 L 43.21875 81.039062 L 43.332031 81.039062 Z M 43 81.039062 L 42.84375 81.039062 Z M 43.164062 81.039062 L 43.035156 81.039062 Z M 11.21875 77.203125 L 11.558594 75.699219 L 11.167969 77.417969 L 11.125 77.632812 L 11.21875 77.199219 Z M 15.277344 70.855469 L 12.878906 70.855469 C 12.738281 70.863281 12.648438 70.933594 12.609375 71.070312 L 12.15625 73.074219 C 12.140625 73.128906 12.148438 73.179688 12.183594 73.226562 C 12.222656 73.273438 12.269531 73.292969 12.328125 73.289062 L 14.746094 73.289062 C 14.867188 73.289062 14.984375 73.191406 15.011719 73.074219 L 15.449219 71.066406 C 15.476562 70.949219 15.398438 70.851562 15.277344 70.851562 Z M 14.757812 74.195312 L 14.046875 77.449219 Z M 7.789062 84.976562 L 9.765625 84.992188 C 9.183594 84.992188 8.21875 84.984375 7.789062 84.976562 Z M 7.789062 84.976562 " fill-opacity="1" fill-rule="nonzero"/></g><g clip-path="url(#235a9eedfc)"><path fill="#fe8282" d="M 11.890625 74.195312 L 11.550781 75.699219 Z M 14.582031 73.980469 L 12.164062 73.980469 C 12.023438 73.984375 11.933594 74.054688 11.894531 74.195312 L 11.21875 77.203125 L 11.125 77.632812 L 10.476562 80.703125 C 10.445312 80.847656 10.40625 80.988281 10.359375 81.128906 C 10.359375 81.128906 9.910156 82.472656 9.152344 82.457031 L 8.398438 82.441406 C 8.257812 82.445312 8.164062 82.515625 8.125 82.652344 L 7.625 84.761719 C 7.609375 84.816406 7.617188 84.867188 7.652344 84.914062 C 7.691406 84.957031 7.738281 84.980469 7.792969 84.976562 L 9.773438 84.992188 C 11.667969 84.992188 12.667969 83.941406 13.308594 80.917969 L 14.765625 74.203125 C 14.789062 74.082031 14.710938 73.988281 14.589844 73.988281 Z M 48.921875 80.914062 C 48.800781 80.914062 48.726562 80.816406 48.746094 80.699219 L 50.566406 72.183594 M 51.449219 80.699219 L 52.183594 77.0625 Z M 51.449219 80.699219 " fill-opacity="1" fill-rule="nonzero"/></g><path fill="#fe8282" d="M 48.773438 80.808594 C 48.757812 80.746094 48.765625 80.601562 48.792969 80.484375 L 49.65625 76.441406 L 48.746094 80.699219 C 48.722656 80.816406 48.800781 80.914062 48.921875 80.914062 L 49.140625 80.914062 C 49.019531 80.914062 48.789062 80.867188 48.773438 80.808594 Z M 51.304688 80.867188 C 51.238281 80.894531 51.085938 80.914062 50.964844 80.914062 L 51.1875 80.914062 C 51.328125 80.910156 51.417969 80.835938 51.449219 80.699219 L 51.496094 80.484375 C 51.472656 80.601562 51.367188 80.839844 51.300781 80.867188 Z M 51.816406 78.882812 L 52.140625 77.277344 Z M 58.992188 72.753906 L 59.089844 73.164062 C 59.121094 73.285156 59.042969 73.378906 58.921875 73.382812 " fill-opacity="1" fill-rule="nonzero"/><path fill="#fe8282" d="M 51.492188 80.484375 L 51.816406 78.882812 Z M 58.890625 72.320312 L 58.992188 72.746094 Z M 52.140625 77.277344 L 52.230469 76.847656 L 52.578125 75.222656 L 52.183594 77.0625 Z M 50.59375 72.042969 L 50.519531 72.398438 L 49.65625 76.441406 L 50.566406 72.183594 Z M 50.59375 72.042969 " fill-opacity="1" fill-rule="nonzero"/><g clip-path="url(#7dc24cefea)"><path fill="#fe8282" d="M 59.09375 73.164062 L 58.992188 72.753906 L 58.84375 72.105469 C 58.648438 71.34375 58.070312 70.902344 56.820312 70.902344 L 51.058594 70.898438 C 50.914062 70.90625 50.824219 70.976562 50.792969 71.113281 L 50.703125 71.535156 L 50.574219 72.175781 L 48.800781 80.476562 C 48.773438 80.59375 48.765625 80.734375 48.78125 80.800781 C 48.796875 80.863281 49.027344 80.90625 49.148438 80.90625 L 50.972656 80.90625 C 51.09375 80.90625 51.246094 80.886719 51.3125 80.859375 C 51.378906 80.832031 51.476562 80.601562 51.503906 80.476562 L 52.195312 77.054688 L 52.9375 73.589844 C 52.960938 73.472656 53.082031 73.375 53.203125 73.375 L 58.933594 73.375 C 59.054688 73.375 59.132812 73.277344 59.105469 73.160156 Z M 66.46875 69.425781 L 64.195312 69.425781 C 64.050781 69.433594 63.9375 69.496094 63.851562 69.609375 L 59.792969 75.550781 C 59.726562 75.652344 59.648438 75.636719 59.621094 75.519531 L 59.320312 74.210938 C 59.285156 74.070312 59.195312 74 59.050781 73.992188 L 56.445312 73.992188 C 56.324219 73.992188 56.25 74.089844 56.285156 74.207031 L 57.445312 78.300781 C 57.480469 78.417969 57.480469 78.609375 57.453125 78.726562 L 56.9375 80.707031 C 56.917969 80.761719 56.925781 80.8125 56.960938 80.859375 C 56.996094 80.90625 57.042969 80.925781 57.101562 80.921875 L 59.6875 80.921875 C 59.808594 80.921875 59.929688 80.824219 59.960938 80.707031 L 60.476562 78.726562 C 60.519531 78.585938 60.582031 78.457031 60.664062 78.335938 L 67.257812 69.59375 C 67.332031 69.5 67.289062 69.417969 67.167969 69.421875 L 66.476562 69.425781 Z M 45.75 74.550781 C 45.734375 74.679688 45.613281 74.777344 45.492188 74.777344 L 42.1875 74.777344 C 42.070312 74.777344 42.015625 74.699219 42.03125 74.601562 L 42.035156 74.585938 L 42.046875 74.527344 C 42.371094 73.6875 43.007812 73.136719 44.214844 73.136719 C 45.578125 73.136719 45.84375 73.804688 45.75 74.550781 Z M 44.78125 70.734375 C 40.539062 70.734375 39.53125 73.3125 38.96875 75.910156 C 38.402344 78.5625 38.453125 81.039062 42.84375 81.039062 L 44.074219 81.039062 L 46.871094 81.019531 C 47.011719 81.015625 47.101562 80.941406 47.132812 80.804688 L 47.558594 78.730469 C 47.582031 78.609375 47.503906 78.511719 47.382812 78.511719 L 43.433594 78.511719 C 41.863281 78.511719 41.398438 78.097656 41.570312 76.871094 L 47.878906 76.871094 C 47.984375 76.867188 48.078125 76.804688 48.113281 76.707031 C 48.121094 76.691406 48.125 76.671875 48.128906 76.652344 C 49.066406 73.117188 48.796875 70.738281 44.78125 70.738281 Z M 24.722656 74.535156 L 24.664062 74.746094 C 24.664062 74.75 24.1875 76.4375 24.1875 76.4375 L 23.710938 78.125 C 23.664062 78.261719 23.570312 78.332031 23.429688 78.339844 L 20.90625 78.339844 C 18.992188 78.339844 18.527344 76.839844 18.992188 74.632812 C 19.457031 72.375 20.371094 70.972656 22.253906 70.832031 C 24.828125 70.636719 25.34375 72.445312 24.722656 74.535156 Z M 26.453125 78.207031 C 26.453125 78.207031 27.640625 75.320312 27.914062 73.652344 C 28.28125 71.421875 27.164062 68.183594 22.84375 68.183594 C 18.550781 68.183594 16.6875 71.273438 15.976562 74.640625 C 15.265625 78.027344 16.195312 80.996094 20.464844 80.972656 L 26.980469 80.949219 C 27.121094 80.941406 27.214844 80.871094 27.257812 80.734375 L 27.804688 78.640625 C 27.824219 78.585938 27.816406 78.535156 27.78125 78.488281 C 27.746094 78.445312 27.699219 78.421875 27.640625 78.425781 L 26.589844 78.421875 C 26.484375 78.421875 26.429688 78.351562 26.441406 78.265625 C 26.441406 78.25 26.445312 78.234375 26.453125 78.214844 Z M 26.453125 78.207031 " fill-opacity="1" fill-rule="nonzero"/></g><path fill="#fe8282" d="M 47.707031 76.277344 C 47.707031 76.355469 47.640625 76.421875 47.5625 76.421875 C 47.480469 76.421875 47.417969 76.355469 47.417969 76.277344 C 47.417969 76.195312 47.480469 76.132812 47.5625 76.132812 C 47.640625 76.132812 47.707031 76.195312 47.707031 76.277344 Z M 47.707031 76.277344 " fill-opacity="1" fill-rule="nonzero"/></svg>