<svg xmlns="http://www.w3.org/2000/svg" xmlns:xlink="http://www.w3.org/1999/xlink" width="100" zoomAndPan="magnify" viewBox="0 0 75 112.499997" height="150" preserveAspectRatio="xMidYMid meet" version="1.0"><defs><clipPath id="0a058627b9"><path d="M 0.164062 0 L 74.832031 0 L 74.832031 112.003906 L 0.164062 112.003906 Z M 0.164062 0 " clip-rule="nonzero"/></clipPath><clipPath id="43977be599"><path d="M 7.632812 42.019531 L 67.367188 42.019531 L 67.367188 67.40625 L 7.632812 67.40625 Z M 7.632812 42.019531 " clip-rule="nonzero"/></clipPath></defs><g clip-path="url(#0a058627b9)"><path fill="#ffffff" d="M 0.164062 0 L 74.835938 0 L 74.835938 112.003906 L 0.164062 112.003906 Z M 0.164062 0 " fill-opacity="1" fill-rule="nonzero"/><path fill="#ffffff" d="M 0.164062 0 L 74.835938 0 L 74.835938 112.003906 L 0.164062 112.003906 Z M 0.164062 0 " fill-opacity="1" fill-rule="nonzero"/></g><g clip-path="url(#43977be599)"><path fill="#fe8282" d="M 10.324219 58.199219 C 10.324219 57.1875 9.671875 56.101562 7.789062 56.027344 L 7.789062 53.492188 C 9.664062 53.417969 10.324219 52.332031 10.324219 51.316406 C 10.324219 49.507812 10.035156 48.347656 10.035156 46.246094 C 10.035156 43.058594 11.195312 42.042969 13.800781 42.042969 L 20.757812 42.042969 L 20.757812 44.363281 L 15.105469 44.363281 C 13.875 44.363281 13.511719 44.796875 13.511719 46.390625 L 13.65625 51.171875 C 13.65625 53.417969 12.933594 54.289062 11.484375 54.652344 L 11.484375 54.796875 C 12.933594 55.160156 13.65625 56.027344 13.65625 58.273438 L 13.511719 63.058594 C 13.511719 64.652344 13.875 65.160156 15.105469 65.160156 L 15.6875 65.160156 L 15.6875 67.40625 L 13.808594 67.40625 C 11.199219 67.40625 10.042969 66.390625 10.042969 63.203125 C 10.042969 61.101562 10.332031 60.015625 10.332031 58.203125 Z M 16.484375 42.257812 L 20.832031 42.257812 L 20.832031 58.5625 C 20.832031 59.503906 21.265625 59.792969 21.628906 59.792969 C 21.773438 59.792969 21.917969 59.792969 22.136719 59.722656 L 22.644531 62.910156 C 22.136719 63.128906 21.414062 63.273438 20.472656 63.273438 C 17.5 63.273438 16.484375 61.316406 16.484375 58.34375 Z M 28.730469 47.910156 C 32.859375 47.910156 34.960938 50.957031 34.960938 54.941406 C 34.960938 55.738281 34.890625 56.390625 34.816406 56.75 L 25.902344 56.75 C 26.265625 58.996094 27.78125 59.941406 29.742188 59.941406 C 30.832031 59.941406 31.84375 59.648438 32.933594 58.996094 L 34.382812 61.605469 C 32.859375 62.621094 30.902344 63.273438 29.164062 63.273438 C 24.960938 63.273438 21.773438 60.445312 21.773438 55.589844 C 21.699219 50.882812 25.179688 47.910156 28.730469 47.910156 Z M 31.265625 54.070312 C 31.265625 52.402344 30.542969 51.171875 28.800781 51.171875 C 27.425781 51.171875 26.265625 52.113281 25.976562 54.070312 Z M 37.425781 58.5625 C 38.730469 59.578125 39.960938 60.085938 41.195312 60.085938 C 42.496094 60.085938 43.070312 59.578125 43.070312 58.851562 C 43.070312 57.910156 41.621094 57.402344 40.101562 56.824219 C 38.363281 56.171875 36.261719 54.949219 36.261719 52.550781 C 36.261719 49.867188 38.507812 47.984375 41.839844 47.984375 C 44.085938 47.984375 45.753906 48.925781 46.984375 49.859375 L 45.027344 52.46875 C 43.941406 51.671875 43 51.238281 41.914062 51.238281 C 40.824219 51.238281 40.246094 51.671875 40.246094 52.398438 C 40.246094 53.339844 41.621094 53.699219 43.144531 54.273438 C 45.019531 54.925781 47.128906 56.011719 47.128906 58.695312 C 47.128906 61.375 45.027344 63.40625 41.113281 63.40625 C 39.238281 63.40625 36.984375 62.605469 35.535156 61.375 Z M 49.238281 58.5625 C 50.542969 59.578125 51.773438 60.085938 53.003906 60.085938 C 54.308594 60.085938 54.882812 59.578125 54.882812 58.851562 C 54.882812 57.910156 53.433594 57.402344 51.914062 56.824219 C 50.171875 56.171875 48.070312 54.949219 48.070312 52.550781 C 48.070312 49.867188 50.316406 47.984375 53.652344 47.984375 C 55.898438 47.984375 57.5625 48.925781 58.796875 49.859375 L 56.839844 52.46875 C 55.753906 51.671875 54.8125 51.238281 53.722656 51.238281 C 52.636719 51.238281 52.058594 51.671875 52.058594 52.398438 C 52.058594 53.339844 53.433594 53.699219 54.882812 54.273438 C 56.761719 54.925781 58.867188 56.011719 58.867188 58.695312 C 58.867188 61.375 56.765625 63.40625 52.855469 63.40625 C 50.976562 63.40625 48.722656 62.605469 47.273438 61.375 Z M 59.960938 65.085938 C 61.191406 65.085938 61.554688 64.648438 61.554688 62.984375 C 61.554688 61.386719 61.410156 59.9375 61.410156 58.199219 C 61.410156 55.953125 62.132812 55.085938 63.582031 54.722656 L 63.582031 54.578125 C 62.132812 54.214844 61.410156 53.34375 61.410156 51.097656 C 61.410156 49.359375 61.554688 47.839844 61.554688 46.316406 C 61.554688 44.722656 61.265625 44.289062 59.960938 44.289062 L 59.378906 44.289062 L 59.378906 42.042969 L 61.257812 42.042969 C 63.867188 42.042969 65.027344 43.054688 65.027344 46.242188 C 65.027344 48.273438 64.734375 49.433594 64.734375 51.316406 C 64.734375 52.332031 65.386719 53.417969 67.273438 53.488281 L 67.273438 56.027344 C 65.394531 56.097656 64.734375 57.1875 64.734375 58.199219 C 64.734375 60.078125 65.027344 61.167969 65.027344 63.273438 C 65.027344 66.460938 63.867188 67.472656 61.257812 67.472656 L 59.378906 67.472656 L 59.378906 65.15625 Z M 59.960938 65.085938 " fill-opacity="1" fill-rule="nonzero"/></g></svg>