<svg xmlns="http://www.w3.org/2000/svg" xmlns:xlink="http://www.w3.org/1999/xlink" width="100" zoomAndPan="magnify" viewBox="0 0 75 112.499997" height="150" preserveAspectRatio="xMidYMid meet" version="1.0"><defs><clipPath id="fff33ce8c8"><path d="M 0.164062 0 L 74.832031 0 L 74.832031 112.003906 L 0.164062 112.003906 Z M 0.164062 0 " clip-rule="nonzero"/></clipPath><clipPath id="172b846b06"><path d="M 7.632812 26.132812 L 67.367188 26.132812 L 67.367188 85.867188 L 7.632812 85.867188 Z M 7.632812 26.132812 " clip-rule="nonzero"/></clipPath></defs><g clip-path="url(#fff33ce8c8)"><path fill="#ffffff" d="M 0.164062 0 L 74.835938 0 L 74.835938 112.003906 L 0.164062 112.003906 Z M 0.164062 0 " fill-opacity="1" fill-rule="nonzero"/><path fill="#ffffff" d="M 0.164062 0 L 74.835938 0 L 74.835938 112.003906 L 0.164062 112.003906 Z M 0.164062 0 " fill-opacity="1" fill-rule="nonzero"/></g><g clip-path="url(#172b846b06)"><path fill="#fe8282" d="M 67.367188 51.285156 C 67.367188 49.019531 66.816406 46.789062 65.796875 44.808594 C 66.832031 42.96875 67.367188 40.878906 67.367188 38.710938 C 67.367188 31.777344 61.722656 26.132812 54.792969 26.132812 C 51.253906 26.132812 47.890625 27.625 45.53125 30.203125 C 43.175781 28.585938 40.375 27.707031 37.5 27.707031 C 31.417969 27.707031 26.007812 31.667969 24.089844 37.324219 C 15.601562 35.941406 7.632812 42.671875 7.632812 51.285156 C 7.632812 58.546875 13.148438 64.554688 20.207031 65.339844 L 20.207031 71.722656 L 16.78125 71.722656 C 16.121094 69.898438 14.390625 68.578125 12.347656 68.578125 C 9.753906 68.578125 7.632812 70.699219 7.632812 73.292969 C 7.632812 75.886719 9.753906 78.007812 12.347656 78.007812 C 14.390625 78.007812 16.121094 76.6875 16.78125 74.863281 L 20.207031 74.863281 C 21.9375 74.863281 23.351562 73.449219 23.351562 71.722656 L 23.351562 65.433594 L 32.785156 65.433594 L 32.785156 79.582031 L 29.355469 79.582031 C 28.695312 77.757812 26.96875 76.4375 24.925781 76.4375 C 22.332031 76.4375 20.207031 78.558594 20.207031 81.152344 C 20.207031 83.746094 22.332031 85.867188 24.925781 85.867188 C 26.96875 85.867188 28.695312 84.546875 29.355469 82.726562 L 32.785156 82.726562 C 34.511719 82.726562 35.929688 81.308594 35.929688 79.582031 L 35.929688 65.433594 L 39.070312 65.433594 L 39.070312 79.582031 C 39.070312 81.308594 40.488281 82.726562 42.214844 82.726562 L 45.644531 82.726562 C 46.304688 84.546875 48.03125 85.867188 50.074219 85.867188 C 52.667969 85.867188 54.792969 83.746094 54.792969 81.152344 C 54.792969 78.558594 52.667969 76.4375 50.074219 76.4375 C 48.03125 76.4375 46.304688 77.757812 45.644531 79.582031 L 42.214844 79.582031 L 42.214844 65.433594 L 51.648438 65.433594 L 51.648438 71.722656 C 51.648438 73.449219 53.0625 74.863281 54.792969 74.863281 L 58.21875 74.863281 C 58.878906 76.6875 60.609375 78.007812 62.652344 78.007812 C 65.246094 78.007812 67.367188 75.886719 67.367188 73.292969 C 67.367188 70.699219 65.246094 68.578125 62.652344 68.578125 C 60.609375 68.578125 58.878906 69.898438 58.21875 71.722656 L 54.792969 71.722656 L 54.792969 65.339844 C 61.851562 64.554688 67.367188 58.546875 67.367188 51.285156 Z M 20.601562 49.714844 C 22.769531 49.714844 24.53125 51.476562 24.53125 53.644531 C 24.53125 55.8125 22.769531 57.574219 20.601562 57.574219 L 18.242188 57.574219 C 17.375 57.574219 16.671875 56.871094 16.671875 56 C 16.671875 55.132812 17.375 54.429688 18.242188 54.429688 L 20.601562 54.429688 C 21.035156 54.429688 21.386719 54.074219 21.386719 53.644531 C 21.386719 53.210938 21.035156 52.855469 20.601562 52.855469 C 18.433594 52.855469 16.671875 51.09375 16.671875 48.925781 C 16.671875 46.757812 18.433594 44.996094 20.601562 44.996094 L 22.960938 44.996094 C 23.828125 44.996094 24.53125 45.699219 24.53125 46.570312 C 24.53125 47.4375 23.828125 48.140625 22.960938 48.140625 L 20.601562 48.140625 C 20.167969 48.140625 19.816406 48.496094 19.816406 48.925781 C 19.816406 49.359375 20.167969 49.714844 20.601562 49.714844 Z M 36.320312 56 C 36.320312 56.871094 35.617188 57.574219 34.75 57.574219 C 33.878906 57.574219 33.175781 56.871094 33.175781 56 L 33.175781 55.710938 C 32.683594 55.886719 32.160156 56 31.605469 56 C 29.003906 56 26.890625 53.886719 26.890625 51.285156 C 26.890625 48.683594 29.003906 46.570312 31.605469 46.570312 C 32.160156 46.570312 32.683594 46.683594 33.175781 46.859375 L 33.175781 46.570312 C 33.175781 45.699219 33.878906 44.996094 34.75 44.996094 C 35.617188 44.996094 36.320312 45.699219 36.320312 46.570312 Z M 48.109375 56 C 48.109375 56.871094 47.40625 57.574219 46.539062 57.574219 C 45.671875 57.574219 44.96875 56.871094 44.96875 56 L 44.96875 55.710938 C 44.472656 55.886719 43.949219 56 43.394531 56 C 40.792969 56 38.679688 53.886719 38.679688 51.285156 C 38.679688 48.683594 40.792969 46.570312 43.394531 46.570312 C 43.949219 46.570312 44.472656 46.683594 44.96875 46.859375 L 44.96875 46.570312 C 44.96875 45.699219 45.671875 44.996094 46.539062 44.996094 C 47.40625 44.996094 48.109375 45.699219 48.109375 46.570312 Z M 54.398438 57.574219 L 52.039062 57.574219 C 51.171875 57.574219 50.46875 56.871094 50.46875 56 C 50.46875 55.132812 51.171875 54.429688 52.039062 54.429688 L 54.398438 54.429688 C 54.832031 54.429688 55.183594 54.074219 55.183594 53.644531 C 55.183594 53.210938 54.832031 52.855469 54.398438 52.855469 C 52.230469 52.855469 50.46875 51.09375 50.46875 48.925781 C 50.46875 46.757812 52.230469 44.996094 54.398438 44.996094 L 56.757812 44.996094 C 57.625 44.996094 58.328125 45.699219 58.328125 46.570312 C 58.328125 47.4375 57.625 48.140625 56.757812 48.140625 L 54.398438 48.140625 C 53.964844 48.140625 53.613281 48.496094 53.613281 48.925781 C 53.613281 49.359375 53.964844 49.714844 54.398438 49.714844 C 56.566406 49.714844 58.328125 51.476562 58.328125 53.644531 C 58.328125 55.8125 56.566406 57.574219 54.398438 57.574219 Z M 54.398438 57.574219 " fill-opacity="1" fill-rule="nonzero"/></g><path fill="#fe8282" d="M 44.96875 51.285156 C 44.96875 51.492188 44.925781 51.695312 44.847656 51.886719 C 44.765625 52.078125 44.652344 52.25 44.507812 52.398438 C 44.359375 52.542969 44.1875 52.65625 43.996094 52.738281 C 43.804688 52.816406 43.601562 52.855469 43.394531 52.855469 C 43.1875 52.855469 42.984375 52.816406 42.792969 52.738281 C 42.601562 52.65625 42.429688 52.542969 42.285156 52.398438 C 42.136719 52.25 42.023438 52.078125 41.941406 51.886719 C 41.863281 51.695312 41.824219 51.492188 41.824219 51.285156 C 41.824219 51.078125 41.863281 50.875 41.941406 50.683594 C 42.023438 50.492188 42.136719 50.320312 42.285156 50.171875 C 42.429688 50.027344 42.601562 49.914062 42.792969 49.832031 C 42.984375 49.753906 43.1875 49.714844 43.394531 49.714844 C 43.601562 49.714844 43.804688 49.753906 43.996094 49.832031 C 44.1875 49.914062 44.359375 50.027344 44.507812 50.171875 C 44.652344 50.320312 44.765625 50.492188 44.847656 50.683594 C 44.925781 50.875 44.96875 51.078125 44.96875 51.285156 Z M 44.96875 51.285156 " fill-opacity="1" fill-rule="nonzero"/><path fill="#fe8282" d="M 33.175781 51.285156 C 33.175781 51.492188 33.136719 51.695312 33.058594 51.886719 C 32.976562 52.078125 32.863281 52.25 32.714844 52.398438 C 32.570312 52.542969 32.398438 52.65625 32.207031 52.738281 C 32.015625 52.816406 31.8125 52.855469 31.605469 52.855469 C 31.398438 52.855469 31.195312 52.816406 31.003906 52.738281 C 30.8125 52.65625 30.640625 52.542969 30.492188 52.398438 C 30.347656 52.25 30.234375 52.078125 30.152344 51.886719 C 30.074219 51.695312 30.03125 51.492188 30.03125 51.285156 C 30.03125 51.078125 30.074219 50.875 30.152344 50.683594 C 30.234375 50.492188 30.347656 50.320312 30.492188 50.171875 C 30.640625 50.027344 30.8125 49.914062 31.003906 49.832031 C 31.195312 49.753906 31.398438 49.714844 31.605469 49.714844 C 31.8125 49.714844 32.015625 49.753906 32.207031 49.832031 C 32.398438 49.914062 32.570312 50.027344 32.714844 50.171875 C 32.863281 50.320312 32.976562 50.492188 33.058594 50.683594 C 33.136719 50.875 33.175781 51.078125 33.175781 51.285156 Z M 33.175781 51.285156 " fill-opacity="1" fill-rule="nonzero"/></svg>