<svg xmlns="http://www.w3.org/2000/svg" xmlns:xlink="http://www.w3.org/1999/xlink" width="100" zoomAndPan="magnify" viewBox="0 0 75 74.999997" height="100" preserveAspectRatio="xMidYMid meet" version="1.0"><defs><clipPath id="af0c124689"><path d="M 7.5 7.5 L 67.5 7.5 L 67.5 67.5 L 7.5 67.5 Z M 7.5 7.5 " clip-rule="nonzero"/></clipPath></defs><rect x="-7.5" width="90" fill="#ffffff" y="-7.5" height="89.999996" fill-opacity="1"/><rect x="-7.5" width="90" fill="#ffffff" y="-7.5" height="89.999996" fill-opacity="1"/><g clip-path="url(#af0c124689)"><path fill="#fe8282" d="M 66.144531 30.542969 C 66.152344 30.503906 66.15625 30.460938 66.160156 30.417969 L 67.335938 22.089844 C 67.351562 22.023438 67.359375 21.957031 67.359375 21.886719 C 67.359375 21.351562 66.925781 20.917969 66.390625 20.917969 L 58.765625 20.917969 C 58.761719 20.917969 58.761719 20.917969 58.757812 20.917969 C 58.757812 20.917969 58.757812 20.917969 58.753906 20.917969 L 51.136719 20.917969 C 51.136719 20.917969 51.132812 20.917969 51.128906 20.917969 C 51.125 20.917969 51.121094 20.917969 51.121094 20.917969 L 43.511719 20.917969 C 43.507812 20.917969 43.503906 20.917969 43.5 20.917969 C 43.492188 20.917969 43.488281 20.917969 43.484375 20.917969 L 35.886719 20.917969 C 35.878906 20.917969 35.875 20.914062 35.867188 20.914062 C 35.863281 20.914062 35.855469 20.917969 35.851562 20.917969 L 28.257812 20.917969 C 28.25 20.917969 28.242188 20.914062 28.238281 20.914062 C 28.230469 20.914062 28.222656 20.917969 28.214844 20.917969 L 21.632812 20.917969 L 17.601562 10.304688 C 17.484375 9.996094 17.226562 9.785156 16.933594 9.707031 L 8.832031 7.632812 C 8.316406 7.503906 7.789062 7.816406 7.660156 8.335938 C 7.527344 8.851562 7.839844 9.378906 8.359375 9.507812 L 15.96875 11.457031 L 21.449219 25.878906 L 26.464844 39.074219 C 26.476562 39.117188 26.492188 39.15625 26.511719 39.199219 L 27.308594 41.292969 C 27.320312 41.335938 27.339844 41.378906 27.355469 41.421875 L 29.574219 47.253906 L 27.3125 49.417969 C 25.347656 51.296875 24.078125 53.09375 23.507812 54.621094 C 23.140625 55.605469 23.050781 56.511719 23.242188 57.292969 C 23.449219 58.15625 23.972656 58.84375 24.808594 59.304688 C 25.089844 59.457031 25.398438 59.585938 25.746094 59.683594 C 25.019531 60.511719 24.578125 61.597656 24.578125 62.785156 C 24.578125 64.054688 25.082031 65.207031 25.902344 66.054688 L 25.960938 66.117188 C 26.8125 66.972656 27.992188 67.5 29.292969 67.5 C 30.59375 67.5 31.773438 66.96875 32.625 66.117188 L 32.625 66.113281 C 33.476562 65.261719 34.007812 64.082031 34.007812 62.785156 C 34.007812 61.707031 33.644531 60.71875 33.035156 59.921875 L 53.179688 59.921875 C 52.609375 60.703125 52.269531 61.664062 52.269531 62.703125 C 52.269531 63.972656 52.773438 65.125 53.59375 65.976562 L 53.652344 66.035156 C 54.503906 66.890625 55.683594 67.417969 56.984375 67.417969 C 58.285156 67.417969 59.464844 66.890625 60.316406 66.035156 L 60.316406 66.03125 C 61.167969 65.179688 61.699219 64 61.699219 62.703125 C 61.699219 61.664062 61.359375 60.703125 60.789062 59.921875 L 62.585938 59.921875 C 63.121094 59.921875 63.554688 59.488281 63.554688 58.953125 C 63.554688 58.417969 63.121094 57.984375 62.585938 57.984375 C 62.585938 57.984375 27.675781 57.984375 27.675781 57.984375 C 26.824219 57.984375 26.179688 57.851562 25.742188 57.609375 C 25.402344 57.421875 25.195312 57.160156 25.117188 56.835938 C 25.019531 56.433594 25.085938 55.910156 25.316406 55.289062 C 25.789062 54.027344 26.898438 52.484375 28.652344 50.808594 L 31.132812 48.433594 L 35.898438 47.957031 C 35.941406 47.957031 35.984375 47.953125 36.03125 47.945312 L 43.53125 47.195312 C 43.574219 47.195312 43.617188 47.191406 43.660156 47.183594 L 51.160156 46.433594 C 51.207031 46.433594 51.246094 46.429688 51.289062 46.421875 L 58.792969 45.675781 C 58.835938 45.671875 58.875 45.667969 58.917969 45.664062 L 63.289062 45.226562 C 63.738281 45.199219 64.121094 44.859375 64.183594 44.394531 L 64.945312 39 C 64.957031 38.957031 64.960938 38.917969 64.964844 38.875 Z M 31.261719 64.75 C 30.757812 65.25 30.0625 65.5625 29.296875 65.5625 C 28.527344 65.5625 27.835938 65.25 27.332031 64.75 L 27.285156 64.707031 C 26.808594 64.207031 26.519531 63.53125 26.519531 62.785156 C 26.519531 62.011719 26.828125 61.320312 27.332031 60.820312 C 27.832031 60.316406 28.527344 60.003906 29.296875 60.003906 C 30.0625 60.003906 30.757812 60.316406 31.261719 60.820312 L 31.304688 60.859375 C 31.78125 61.359375 32.074219 62.035156 32.074219 62.785156 C 32.074219 63.554688 31.761719 64.25 31.261719 64.75 Z M 58.949219 60.738281 L 58.992188 60.78125 C 59.46875 61.277344 59.761719 61.957031 59.761719 62.703125 C 59.761719 63.472656 59.453125 64.167969 58.949219 64.667969 C 58.445312 65.167969 57.75 65.480469 56.984375 65.480469 C 56.21875 65.480469 55.523438 65.167969 55.019531 64.667969 L 54.972656 64.625 C 54.5 64.125 54.207031 63.449219 54.207031 62.699219 C 54.207031 61.929688 54.515625 61.238281 55.019531 60.734375 C 55.519531 60.234375 56.21875 59.921875 56.984375 59.921875 C 57.75 59.925781 58.445312 60.234375 58.949219 60.738281 Z M 31.34375 46.476562 L 29.207031 40.851562 L 29.207031 39.765625 L 34.898438 39.765625 L 34.898438 46.121094 Z M 50.160156 29.371094 L 44.464844 29.371094 L 44.464844 22.851562 L 50.160156 22.851562 C 50.160156 24.132812 50.160156 26.566406 50.160156 29.371094 Z M 52.097656 22.851562 L 57.789062 22.851562 L 57.789062 29.375 L 52.097656 29.375 Z M 44.46875 31.308594 L 50.160156 31.308594 C 50.160156 33.476562 50.160156 35.75 50.160156 37.832031 L 44.46875 37.832031 Z M 42.53125 37.828125 L 36.839844 37.828125 L 36.839844 31.308594 L 42.53125 31.308594 Z M 42.53125 29.371094 L 36.839844 29.371094 L 36.839844 22.851562 L 42.53125 22.851562 Z M 34.898438 29.371094 L 29.207031 29.371094 L 29.207031 22.851562 L 34.898438 22.851562 Z M 34.898438 31.308594 L 34.898438 37.832031 L 29.207031 37.832031 L 29.207031 31.308594 Z M 27.269531 35.753906 L 25.582031 31.308594 L 27.269531 31.308594 Z M 36.835938 39.765625 L 42.53125 39.765625 L 42.53125 45.359375 L 36.835938 45.925781 Z M 44.46875 39.765625 L 50.160156 39.765625 C 50.160156 41.867188 50.160156 43.609375 50.160156 44.597656 L 44.46875 45.167969 Z M 52.097656 39.765625 L 57.789062 39.765625 L 57.789062 43.835938 L 52.097656 44.40625 Z M 52.097656 37.828125 L 52.097656 31.308594 L 57.789062 31.308594 L 57.789062 37.828125 Z M 59.726562 31.308594 L 64.085938 31.308594 L 63.164062 37.832031 L 59.726562 37.832031 Z M 64.355469 29.371094 L 59.726562 29.371094 L 59.726562 22.851562 L 65.277344 22.851562 Z M 27.269531 22.851562 L 27.269531 29.375 L 24.84375 29.375 L 23.257812 25.199219 L 22.367188 22.855469 L 27.269531 22.855469 Z M 59.726562 43.644531 L 59.726562 39.765625 L 62.890625 39.765625 L 62.378906 43.378906 Z M 59.726562 43.644531 " fill-opacity="1" fill-rule="nonzero"/></g></svg>