<svg xmlns="http://www.w3.org/2000/svg" xmlns:xlink="http://www.w3.org/1999/xlink" width="100" zoomAndPan="magnify" viewBox="0 0 75 112.499997" height="150" preserveAspectRatio="xMidYMid meet" version="1.0"><defs><clipPath id="d4c6f2fa6e"><path d="M 0.164062 0 L 74.832031 0 L 74.832031 112.003906 L 0.164062 112.003906 Z M 0.164062 0 " clip-rule="nonzero"/></clipPath><clipPath id="88221a19cc"><path d="M 7.632812 26.132812 L 67 26.132812 L 67 85.867188 L 7.632812 85.867188 Z M 7.632812 26.132812 " clip-rule="nonzero"/></clipPath></defs><g clip-path="url(#d4c6f2fa6e)"><path fill="#ffffff" d="M 0.164062 0 L 74.835938 0 L 74.835938 112.003906 L 0.164062 112.003906 Z M 0.164062 0 " fill-opacity="1" fill-rule="nonzero"/><path fill="#ffffff" d="M 0.164062 0 L 74.835938 0 L 74.835938 112.003906 L 0.164062 112.003906 Z M 0.164062 0 " fill-opacity="1" fill-rule="nonzero"/></g><g clip-path="url(#88221a19cc)"><path fill="#fe8282" d="M 15.652344 81.894531 C 16.007812 82.246094 16.472656 82.441406 16.96875 82.441406 L 48.738281 82.441406 C 49.769531 82.441406 50.605469 81.605469 50.605469 80.574219 L 50.605469 74.628906 L 60.398438 84.421875 C 61.820312 85.84375 64.128906 85.828125 65.550781 84.421875 L 65.929688 84.042969 C 67.34375 82.617188 67.34375 80.304688 65.929688 78.890625 L 51.683594 64.644531 C 51.4375 64.386719 51.03125 64.261719 50.605469 64.476562 L 50.605469 58.714844 C 51.734375 55.414062 51.734375 51.789062 50.605469 48.492188 L 50.605469 28.019531 C 50.605469 26.988281 49.769531 26.152344 48.738281 26.152344 L 9.507812 26.152344 C 8.480469 26.152344 7.640625 26.988281 7.640625 28.019531 L 7.640625 73.203125 C 7.640625 73.707031 7.835938 74.179688 8.191406 74.535156 Z M 65.277344 79.539062 C 66.335938 80.597656 66.335938 82.328125 65.277344 83.394531 L 64.902344 83.769531 C 63.835938 84.828125 62.105469 84.828125 61.046875 83.769531 L 46.792969 69.503906 L 51.023438 65.285156 Z M 35.773438 68.363281 C 27.890625 68.363281 21.375 62.21875 20.996094 54.296875 C 20.800781 50.234375 22.246094 46.519531 24.835938 43.65625 C 30.273438 37.699219 39.636719 37.132812 45.746094 42.683594 C 50.152344 46.707031 51.636719 52.976562 49.710938 58.5 C 47.730469 64.292969 42.152344 68.363281 35.773438 68.363281 Z M 49.613281 65.386719 L 47.839844 63.613281 C 48.484375 62.84375 48.804688 62.355469 49.183594 61.734375 L 49.6875 61.734375 L 49.6875 65.3125 Z M 8.5625 28.019531 C 8.5625 27.488281 8.976562 27.070312 9.507812 27.070312 L 48.738281 27.070312 C 49.261719 27.070312 49.6875 27.496094 49.6875 28.019531 L 49.6875 45.175781 L 49.015625 45.175781 C 42.808594 35.496094 28.765625 35.5 22.535156 45.175781 L 14.683594 45.175781 C 13.902344 45.175781 13.265625 45.808594 13.265625 46.601562 L 13.265625 60.3125 C 13.265625 61.09375 13.902344 61.734375 14.683594 61.734375 L 22.335938 61.734375 C 23.632812 63.867188 25.328125 65.554688 27.386719 66.855469 L 20.304688 66.855469 C 20.050781 66.855469 19.847656 67.0625 19.847656 67.316406 C 19.847656 67.570312 20.050781 67.773438 20.304688 67.773438 L 29.074219 67.773438 C 31.152344 68.753906 33.429688 69.28125 35.773438 69.28125 C 39.113281 69.28125 42.394531 68.203125 45.046875 66.253906 L 46.894531 68.105469 L 46.144531 68.855469 C 45.777344 69.222656 45.785156 69.824219 46.144531 70.167969 L 49.6875 73.707031 L 49.6875 79.308594 L 16.390625 79.308594 L 16.199219 79.117188 C 16.027344 77.097656 15.988281 75.171875 16.140625 73.371094 C 16.160156 73.238281 16.046875 73.144531 15.914062 73.171875 C 13.554688 73.714844 11.015625 73.695312 8.609375 73.457031 C 8.589844 73.375 8.5625 73.292969 8.5625 73.203125 Z M 8.5625 28.019531 " fill-opacity="1" fill-rule="nonzero"/></g><path fill="#fe8282" d="M 37.5 50.691406 C 37.097656 50.191406 36.527344 49.953125 35.792969 49.953125 C 34.160156 49.953125 33.484375 51.183594 33.484375 52.8125 C 33.484375 54.839844 34.488281 55.679688 35.792969 55.679688 C 37.109375 55.679688 38.105469 54.832031 38.105469 52.8125 C 38.105469 51.894531 37.90625 51.1875 37.5 50.691406 Z M 37.5 50.691406 " fill-opacity="1" fill-rule="nonzero"/><path fill="#fe8282" d="M 11.710938 34.488281 L 14.15625 35.929688 C 14.378906 36.0625 14.660156 35.984375 14.785156 35.769531 C 14.914062 35.550781 14.84375 35.269531 14.625 35.140625 L 12.792969 34.058594 L 14.84375 32.617188 C 15.054688 32.472656 15.101562 32.183594 14.957031 31.976562 C 14.8125 31.769531 14.527344 31.71875 14.316406 31.863281 L 11.679688 33.714844 C 11.410156 33.90625 11.421875 34.316406 11.710938 34.488281 Z M 11.710938 34.488281 " fill-opacity="1" fill-rule="nonzero"/><path fill="#fe8282" d="M 19.765625 36.160156 C 19.957031 36.160156 19.820312 36.167969 22.507812 34.835938 C 22.808594 34.6875 22.847656 34.277344 22.589844 34.070312 L 20.085938 32.046875 C 19.890625 31.886719 19.597656 31.917969 19.4375 32.113281 C 19.28125 32.3125 19.3125 32.601562 19.507812 32.761719 L 21.460938 34.335938 L 19.558594 35.292969 C 19.128906 35.507812 19.28125 36.160156 19.765625 36.160156 Z M 19.765625 36.160156 " fill-opacity="1" fill-rule="nonzero"/><path fill="#fe8282" d="M 15.992188 37.613281 C 16.183594 37.613281 16.363281 37.492188 16.425781 37.300781 L 18.558594 30.929688 C 18.640625 30.6875 18.511719 30.425781 18.269531 30.347656 C 18.03125 30.265625 17.769531 30.394531 17.6875 30.636719 L 15.554688 37.007812 C 15.457031 37.304688 15.675781 37.613281 15.992188 37.613281 Z M 15.992188 37.613281 " fill-opacity="1" fill-rule="nonzero"/><path fill="#fe8282" d="M 28.191406 34.335938 L 43.328125 34.335938 C 43.582031 34.335938 43.785156 34.132812 43.785156 33.878906 C 43.785156 33.625 43.582031 33.417969 43.328125 33.417969 L 28.191406 33.417969 C 27.9375 33.417969 27.730469 33.625 27.730469 33.878906 C 27.730469 34.132812 27.9375 34.335938 28.191406 34.335938 Z M 28.191406 34.335938 " fill-opacity="1" fill-rule="nonzero"/><path fill="#fe8282" d="M 20.308594 74.542969 L 42.972656 74.542969 C 43.226562 74.542969 43.433594 74.339844 43.433594 74.085938 C 43.433594 73.832031 43.226562 73.625 42.972656 73.625 L 20.308594 73.625 C 20.054688 73.625 19.847656 73.832031 19.847656 74.085938 C 19.847656 74.339844 20.054688 74.542969 20.308594 74.542969 Z M 20.308594 74.542969 " fill-opacity="1" fill-rule="nonzero"/><path fill="#fe8282" d="M 47.40625 53.046875 C 46.960938 43.382812 35.476562 38.496094 28.148438 44.828125 C 25.464844 47.140625 23.972656 50.527344 24.140625 54.148438 C 24.4375 60.484375 29.703125 65.21875 35.773438 65.21875 C 42.429688 65.21875 47.734375 59.660156 47.40625 53.046875 Z M 44.851562 55.578125 C 45.019531 55.578125 45.136719 55.617188 45.230469 55.6875 C 45.453125 55.914062 45.433594 56.46875 44.851562 56.46875 L 41.15625 56.46875 C 40.824219 56.46875 40.632812 56.242188 40.632812 55.972656 L 40.632812 49.652344 C 40.632812 48.941406 41.710938 48.90625 41.710938 49.652344 L 41.710938 55.578125 Z M 42.367188 45.175781 L 29.1875 45.175781 C 33.054688 42.171875 38.417969 42.101562 42.367188 45.175781 Z M 38.402344 57.664062 C 38.789062 58.277344 37.875 58.695312 37.480469 58.078125 L 36.875 57.078125 C 36.65625 56.726562 36.296875 56.554688 35.792969 56.554688 C 34.359375 56.554688 33.339844 55.871094 32.8125 54.796875 C 32.25 53.648438 32.269531 51.933594 32.8125 50.828125 C 33.375 49.640625 34.496094 49.082031 35.792969 49.082031 C 38.007812 49.082031 39.191406 50.636719 39.191406 52.8125 C 39.191406 54.304688 38.601562 55.71875 37.207031 56.285156 C 37.847656 56.480469 38.078125 57.199219 38.402344 57.664062 Z M 27.070312 56.332031 C 26.59375 56.183594 26.214844 55.992188 25.929688 55.734375 C 25.582031 55.4375 25.746094 54.863281 26.085938 54.863281 C 26.503906 54.863281 26.976562 55.679688 28.550781 55.679688 C 29.457031 55.679688 30.269531 55.375 30.269531 54.476562 C 30.269531 52.875 25.902344 53.910156 25.902344 51.242188 C 25.902344 48.925781 29.484375 48.4375 31.050781 49.898438 C 31.1875 50.019531 31.261719 50.15625 31.261719 50.320312 C 31.261719 50.574219 31.070312 50.773438 30.902344 50.773438 C 30.808594 50.773438 30.691406 50.726562 30.554688 50.632812 C 29.835938 50.085938 29.355469 49.953125 28.652344 49.953125 C 27.753906 49.953125 26.960938 50.28125 26.960938 51.1875 C 26.960938 51.515625 27.089844 51.765625 27.355469 51.9375 C 28.488281 52.667969 31.335938 52.425781 31.335938 54.4375 C 31.335938 56.378906 28.921875 56.914062 27.070312 56.332031 Z M 28.820312 61.734375 L 42.722656 61.734375 C 40.792969 63.386719 38.347656 64.300781 35.773438 64.300781 C 33.203125 64.300781 30.746094 63.382812 28.820312 61.734375 Z M 28.820312 61.734375 " fill-opacity="1" fill-rule="nonzero"/><path fill="#fe8282" d="M 58.464844 75.65625 C 58.644531 75.832031 58.9375 75.832031 59.113281 75.648438 C 59.292969 75.46875 59.289062 75.175781 59.109375 75 L 56.570312 72.511719 C 56.390625 72.335938 56.097656 72.335938 55.921875 72.519531 C 55.746094 72.699219 55.746094 72.992188 55.929688 73.167969 Z M 58.464844 75.65625 " fill-opacity="1" fill-rule="nonzero"/></svg>