<svg xmlns="http://www.w3.org/2000/svg" xmlns:xlink="http://www.w3.org/1999/xlink" width="150" zoomAndPan="magnify" viewBox="0 0 112.5 104.999996" height="140" preserveAspectRatio="xMidYMid meet" version="1.0"><defs><clipPath id="e87c3fc58c"><path d="M 0 0.230469 L 112.003906 0.230469 L 112.003906 104.765625 L 0 104.765625 Z M 0 0.230469 " clip-rule="nonzero"/></clipPath><clipPath id="6f955d7991"><path d="M 12.839844 10.6875 L 99.453125 10.6875 L 99.453125 94.3125 L 12.839844 94.3125 Z M 12.839844 10.6875 " clip-rule="nonzero"/></clipPath><clipPath id="e89032c248"><path d="M 99.164062 100.382812 L 112.003906 100.382812 L 112.003906 104.765625 L 99.164062 104.765625 Z M 99.164062 100.382812 " clip-rule="nonzero"/></clipPath></defs><g clip-path="url(#e87c3fc58c)"><path fill="#ffffff" d="M 0 0.230469 L 112.003906 0.230469 L 112.003906 104.769531 L 0 104.769531 Z M 0 0.230469 " fill-opacity="1" fill-rule="nonzero"/><path fill="#ffffff" d="M 0 0.230469 L 112.003906 0.230469 L 112.003906 104.769531 L 0 104.769531 Z M 0 0.230469 " fill-opacity="1" fill-rule="nonzero"/></g><g clip-path="url(#6f955d7991)"><path fill="#fe8282" d="M 92.6875 19.050781 L 85.941406 19.050781 L 85.941406 11.765625 C 85.941406 11.226562 85.539062 10.6875 84.863281 10.6875 L 78.660156 10.6875 C 78.121094 10.6875 77.582031 11.089844 77.582031 11.765625 L 77.582031 19.050781 L 68.542969 19.050781 L 68.542969 11.765625 C 68.542969 11.226562 68.140625 10.6875 67.464844 10.6875 L 61.261719 10.6875 C 60.71875 10.6875 60.179688 11.089844 60.179688 11.765625 L 60.179688 19.050781 L 51.144531 19.050781 L 51.144531 11.765625 C 51.144531 11.226562 50.738281 10.6875 50.066406 10.6875 L 43.859375 10.6875 C 43.320312 10.6875 42.78125 11.089844 42.78125 11.765625 L 42.78125 19.050781 L 33.746094 19.050781 L 33.746094 11.765625 C 33.746094 11.226562 33.339844 10.6875 32.664062 10.6875 L 26.460938 10.6875 C 25.921875 10.6875 25.382812 11.089844 25.382812 11.765625 L 25.382812 19.050781 L 18.636719 19.050781 C 15.671875 19.050781 12.839844 21.882812 12.839844 25.523438 L 12.839844 87.839844 C 12.839844 91.34375 15.671875 94.3125 19.3125 94.3125 L 92.6875 94.3125 C 96.195312 94.3125 99.160156 91.480469 99.160156 87.839844 L 99.160156 25.523438 C 99.160156 21.882812 96.328125 19.050781 92.6875 19.050781 Z M 83.921875 12.710938 L 83.921875 26.46875 L 79.738281 26.46875 L 79.738281 12.710938 Z M 66.65625 12.710938 L 66.65625 26.46875 L 62.472656 26.46875 L 62.472656 12.710938 Z M 49.390625 12.710938 L 49.390625 26.46875 L 45.210938 26.46875 L 45.210938 12.710938 Z M 32.125 12.710938 L 32.125 26.46875 L 27.945312 26.46875 L 27.945312 12.710938 Z M 14.859375 25.523438 C 14.859375 23.097656 16.882812 21.074219 19.3125 21.074219 L 26.054688 21.074219 L 26.054688 27.683594 C 26.054688 28.222656 26.460938 28.761719 27.136719 28.761719 L 33.339844 28.761719 C 33.878906 28.761719 34.417969 28.355469 34.417969 27.683594 L 34.417969 21.074219 L 43.457031 21.074219 L 43.457031 27.683594 C 43.457031 28.222656 43.859375 28.761719 44.535156 28.761719 L 50.738281 28.761719 C 51.277344 28.761719 51.820312 28.355469 51.820312 27.683594 L 51.820312 21.074219 L 60.855469 21.074219 L 60.855469 27.683594 C 60.855469 28.222656 61.261719 28.761719 61.933594 28.761719 L 68.140625 28.761719 C 68.679688 28.761719 69.21875 28.355469 69.21875 27.683594 L 69.21875 21.074219 L 78.253906 21.074219 L 78.253906 27.683594 C 78.253906 28.222656 78.660156 28.761719 79.335938 28.761719 L 85.539062 28.761719 C 86.078125 28.761719 86.617188 28.355469 86.617188 27.683594 L 86.617188 21.074219 L 93.363281 21.074219 C 95.789062 21.074219 97.8125 23.097656 97.8125 25.523438 L 97.8125 31.726562 L 15.535156 31.726562 L 15.535156 25.523438 Z M 92.6875 92.289062 L 19.3125 92.289062 C 16.882812 92.289062 14.859375 90.265625 14.859375 87.839844 L 14.859375 33.75 L 97.136719 33.75 L 97.136719 87.839844 C 97.136719 90.265625 95.113281 92.289062 92.6875 92.289062 Z M 92.6875 92.289062 " fill-opacity="1" fill-rule="nonzero"/></g><path fill="#fe8282" d="M 31.722656 38.066406 L 20.121094 38.066406 C 19.582031 38.066406 19.042969 38.472656 19.042969 39.148438 L 19.042969 49.9375 C 19.042969 50.476562 19.445312 51.015625 20.121094 51.015625 L 31.722656 51.015625 C 32.261719 51.015625 32.800781 50.613281 32.800781 49.9375 L 32.800781 39.148438 C 32.664062 38.605469 32.261719 38.066406 31.722656 38.066406 Z M 30.640625 48.859375 L 21.199219 48.859375 L 21.199219 40.089844 L 30.640625 40.089844 Z M 30.640625 48.859375 " fill-opacity="1" fill-rule="nonzero"/><path fill="#fe8282" d="M 24.574219 47.105469 C 24.707031 47.238281 24.976562 47.375 25.246094 47.375 C 25.515625 47.375 25.785156 47.238281 25.921875 46.96875 L 29.023438 43.464844 C 29.429688 43.058594 29.292969 42.382812 28.890625 41.980469 C 28.484375 41.574219 27.808594 41.710938 27.40625 42.113281 L 25.113281 44.8125 L 24.03125 43.867188 C 23.628906 43.464844 22.953125 43.464844 22.550781 43.867188 C 22.144531 44.273438 22.144531 44.945312 22.550781 45.351562 Z M 24.574219 47.105469 " fill-opacity="1" fill-rule="nonzero"/><path fill="#fe8282" d="M 91.878906 43.464844 L 38.871094 43.464844 C 38.332031 43.464844 37.789062 43.867188 37.789062 44.542969 C 37.789062 45.082031 38.195312 45.621094 38.871094 45.621094 L 91.878906 45.621094 C 92.417969 45.621094 92.957031 45.214844 92.957031 44.542969 C 92.820312 44.003906 92.417969 43.464844 91.878906 43.464844 Z M 91.878906 43.464844 " fill-opacity="1" fill-rule="nonzero"/><path fill="#fe8282" d="M 31.722656 55.738281 L 20.121094 55.738281 C 19.582031 55.738281 19.042969 56.140625 19.042969 56.816406 L 19.042969 67.605469 C 19.042969 68.144531 19.445312 68.6875 20.121094 68.6875 L 31.722656 68.6875 C 32.261719 68.6875 32.800781 68.28125 32.800781 67.605469 L 32.800781 56.816406 C 32.664062 56.140625 32.261719 55.738281 31.722656 55.738281 Z M 30.640625 66.527344 L 21.199219 66.527344 L 21.199219 57.761719 L 30.640625 57.761719 Z M 30.640625 66.527344 " fill-opacity="1" fill-rule="nonzero"/><path fill="#fe8282" d="M 24.574219 64.640625 C 24.707031 64.773438 24.976562 64.910156 25.246094 64.910156 C 25.515625 64.910156 25.785156 64.773438 25.921875 64.503906 L 29.023438 60.996094 C 29.429688 60.59375 29.292969 59.917969 28.890625 59.515625 C 28.484375 59.109375 27.808594 59.242188 27.40625 59.648438 L 25.113281 62.347656 L 24.03125 61.402344 C 23.628906 60.996094 22.953125 60.996094 22.550781 61.402344 C 22.144531 61.808594 22.144531 62.480469 22.550781 62.886719 Z M 24.574219 64.640625 " fill-opacity="1" fill-rule="nonzero"/><path fill="#fe8282" d="M 91.878906 61.132812 L 38.871094 61.132812 C 38.332031 61.132812 37.789062 61.535156 37.789062 62.210938 C 37.789062 62.75 38.195312 63.289062 38.871094 63.289062 L 91.878906 63.289062 C 92.417969 63.289062 92.957031 62.886719 92.957031 62.210938 C 92.820312 61.535156 92.417969 61.132812 91.878906 61.132812 Z M 91.878906 61.132812 " fill-opacity="1" fill-rule="nonzero"/><path fill="#fe8282" d="M 31.722656 73.40625 L 20.121094 73.40625 C 19.582031 73.40625 19.042969 73.8125 19.042969 74.484375 L 19.042969 85.277344 C 19.175781 85.679688 19.582031 86.21875 20.121094 86.21875 L 31.722656 86.21875 C 32.261719 86.21875 32.800781 85.816406 32.800781 85.140625 L 32.800781 74.351562 C 32.664062 73.8125 32.261719 73.40625 31.722656 73.40625 Z M 30.640625 84.195312 L 21.199219 84.195312 L 21.199219 75.429688 L 30.640625 75.429688 Z M 30.640625 84.195312 " fill-opacity="1" fill-rule="nonzero"/><path fill="#fe8282" d="M 24.574219 82.171875 C 24.707031 82.308594 24.976562 82.445312 25.246094 82.445312 C 25.515625 82.445312 25.785156 82.308594 25.921875 82.039062 L 29.023438 78.53125 C 29.429688 78.128906 29.292969 77.453125 28.890625 77.046875 C 28.484375 76.644531 27.808594 76.777344 27.40625 77.183594 L 25.113281 79.878906 L 24.03125 78.9375 C 23.628906 78.53125 22.953125 78.53125 22.550781 78.9375 C 22.144531 79.339844 22.144531 80.015625 22.550781 80.421875 Z M 24.574219 82.171875 " fill-opacity="1" fill-rule="nonzero"/><path fill="#fe8282" d="M 91.878906 78.800781 L 38.871094 78.800781 C 38.332031 78.800781 37.789062 79.207031 37.789062 79.878906 C 37.789062 80.421875 38.195312 80.960938 38.871094 80.960938 L 91.878906 80.960938 C 92.417969 80.960938 92.957031 80.554688 92.957031 79.878906 C 92.820312 79.207031 92.417969 78.800781 91.878906 78.800781 Z M 91.878906 78.800781 " fill-opacity="1" fill-rule="nonzero"/><g clip-path="url(#e89032c248)"><path fill="#fffff9" d="M 99.164062 100.382812 L 114.421875 100.382812 L 114.421875 104.769531 L 99.164062 104.769531 Z M 99.164062 100.382812 " fill-opacity="1" fill-rule="nonzero"/></g></svg>